<svg width="794" height="559" viewBox="0 0 794 559" fill="none" xmlns="http://www.w3.org/2000/svg">
<path fill-rule="evenodd" clip-rule="evenodd" d="M5 279.5C5 137.985 112.088 21.4809 249.649 6.60439C188.33 17.4325 138.32 61.0313 118.354 118.662C112.292 136.157 109 154.945 109 174.5C109 200.139 114.659 224.457 124.798 246.273C126.199 249.287 127.685 252.253 129.253 255.169C132.313 262.676 134 270.891 134 279.5C134 288.109 132.313 296.324 129.253 303.831C127.689 306.739 126.206 309.697 124.809 312.703C113.527 331.456 92.9779 344 69.5 344C33.8776 344 5 315.122 5 279.5ZM4 279.5C4 127.346 127.346 4 279.5 4C327.831 4 373.255 16.4452 412.742 38.3058C412.45 38.5246 412.158 38.7444 411.867 38.965C372.615 17.318 327.496 5 279.5 5C243.878 5 215 33.8776 215 69.5C215 92.9779 227.544 113.527 246.297 124.809C249.303 126.206 252.261 127.689 255.169 129.253C262.676 132.314 270.891 134 279.5 134C288.109 134 296.324 132.313 303.831 129.253C306.747 127.685 309.713 126.199 312.727 124.798C326.473 118.41 341.213 113.8 356.65 111.263C356.506 111.624 356.362 111.986 356.22 112.349C341.097 114.888 326.654 119.431 313.172 125.694C310.326 127.403 307.339 128.902 304.234 130.169C296.601 133.284 288.251 135 279.5 135C270.749 135 262.399 133.284 254.766 130.169C251.652 128.898 248.658 127.395 245.805 125.68C226.75 114.227 214 93.3528 214 69.5C214 38.3108 235.799 12.2132 264.993 5.61215C197.196 11.3588 140.771 57.0108 119.298 118.99C113.273 136.381 110 155.058 110 174.5C110 199.981 115.622 224.147 125.694 245.828C127.403 248.674 128.902 251.66 130.169 254.766C133.284 262.399 135 270.749 135 279.5C135 288.251 133.284 296.601 130.169 304.234C128.898 307.348 127.395 310.342 125.68 313.195C114.227 332.25 93.3528 345 69.5 345C38.3108 345 12.2132 323.201 5.61215 294.007C11.3588 361.804 57.0108 418.229 118.99 439.702C136.381 445.727 155.058 449 174.5 449C199.981 449 224.147 443.378 245.828 433.307C248.674 431.597 251.661 430.098 254.766 428.831C262.399 425.716 270.75 424 279.5 424C288.251 424 296.601 425.716 304.234 428.831C307.348 430.102 310.342 431.605 313.195 433.32C332.25 444.773 345 465.647 345 489.5C345 520.689 323.201 546.787 294.007 553.388C333.69 550.024 369.477 532.989 396.639 507.011C396.879 507.242 397.12 507.472 397.362 507.702C373.563 530.476 343.178 546.422 309.351 552.396C346.201 548.411 380.864 537.133 411.867 520.035C412.158 520.256 412.45 520.475 412.742 520.694C373.255 542.555 327.831 555 279.5 555C127.346 555 4 431.654 4 279.5ZM411.867 520.035C496.601 473.306 554 383.106 554 279.5C554 243.878 525.122 215 489.5 215C466.022 215 445.473 227.544 434.191 246.297C432.793 249.303 431.311 252.261 429.747 255.169C426.686 262.677 425 270.891 425 279.5C425 288.109 426.686 296.324 429.747 303.831C431.315 306.746 432.801 309.713 434.202 312.727C444.34 334.543 450 358.861 450 384.5C450 404.055 446.708 422.843 440.646 440.338C431.695 466.176 416.704 489.194 397.362 507.702C401.96 512.076 406.803 516.194 411.867 520.035ZM396.639 507.011C415.883 488.606 430.797 465.712 439.702 440.01C445.727 422.619 449 403.942 449 384.5C449 359.019 443.378 334.853 433.306 313.172C431.597 310.326 430.098 307.34 428.831 304.234C425.716 296.601 424 288.251 424 279.5C424 270.749 425.716 262.399 428.831 254.766C430.102 251.652 431.605 248.658 433.32 245.805C444.773 226.75 465.647 214 489.5 214C520.689 214 546.787 235.799 553.388 264.993C547.641 197.196 501.989 140.771 440.01 119.298C422.619 113.273 403.942 110 384.5 110C374.864 110 365.416 110.804 356.22 112.349C355.379 114.487 354.581 116.646 353.826 118.826C287.28 141.881 239.5 205.111 239.5 279.5C239.5 353.889 287.28 417.119 353.826 440.174C362.698 465.783 377.521 488.613 396.639 507.011ZM356.65 111.263C365.713 109.774 375.016 109 384.5 109C404.055 109 422.843 112.292 440.338 118.354C497.969 138.32 541.567 188.33 552.396 249.649C542.565 158.743 488.351 81.1442 411.867 38.965C387.468 57.4702 368.219 82.4128 356.65 111.263ZM412.742 520.694C497.569 473.734 555 383.324 555 279.5C555 175.676 497.569 85.2665 412.742 38.3058C441.113 17.0743 476.338 4.5 514.5 4.5C588.889 4.5 652.119 52.2804 675.174 118.826C741.72 141.881 789.5 205.111 789.5 279.5C789.5 353.889 741.72 417.119 675.174 440.174C652.119 506.72 588.889 554.5 514.5 554.5C476.338 554.5 441.113 541.926 412.742 520.694ZM246.273 434.202C249.287 432.801 252.254 431.315 255.169 429.747C262.677 426.686 270.891 425 279.5 425C288.109 425 296.324 426.686 303.831 429.747C306.739 431.311 309.697 432.793 312.703 434.191C331.456 445.473 344 466.022 344 489.5C344 525.122 315.122 554 279.5 554C137.985 554 21.4809 446.912 6.60439 309.351C17.4325 370.67 61.0313 420.68 118.662 440.646C136.157 446.708 154.945 450 174.5 450C200.139 450 224.457 444.341 246.273 434.202ZM364.706 254.955C363.138 252.041 361.652 249.076 360.251 246.062C361.953 248.894 363.445 251.865 364.706 254.955ZM360.251 312.938C361.652 309.924 363.138 306.959 364.706 304.045C363.445 307.135 361.953 310.106 360.251 312.938ZM489.955 429.294C487.041 430.862 484.076 432.348 481.062 433.749C483.894 432.047 486.865 430.555 489.955 429.294ZM547.938 433.749C544.924 432.348 541.959 430.862 539.045 429.294C542.135 430.555 545.106 432.047 547.938 433.749ZM664.294 304.045C665.862 306.959 667.348 309.924 668.749 312.938C667.047 310.106 665.555 307.135 664.294 304.045ZM668.749 246.062C667.348 249.076 665.862 252.041 664.294 254.955C665.555 251.865 667.047 248.894 668.749 246.062ZM539.045 129.706C542.135 128.445 545.106 126.953 547.938 125.251C544.924 126.652 541.959 128.138 539.045 129.706ZM481.062 125.251C483.894 126.953 486.865 128.445 489.955 129.706C487.041 128.138 484.076 126.652 481.062 125.251Z" fill="#FDFDFD"/>
<path d="M249.649 6.60439L250.344 10.5434L249.219 2.62757L249.649 6.60439ZM118.354 118.662L122.133 119.972L122.133 119.972L118.354 118.662ZM124.798 246.273L121.17 247.959L121.17 247.959L124.798 246.273ZM129.253 255.169L132.957 253.659L132.877 253.461L132.776 253.274L129.253 255.169ZM129.253 303.831L132.776 305.727L132.877 305.539L132.957 305.341L129.253 303.831ZM124.809 312.703L128.237 314.765L128.346 314.582L128.436 314.389L124.809 312.703ZM246.297 124.809L244.235 128.237L244.418 128.346L244.611 128.436L246.297 124.809ZM255.169 129.253L253.274 132.776L253.461 132.877L253.659 132.957L255.169 129.253ZM303.831 129.253L305.341 132.957L305.539 132.877L305.727 132.776L303.831 129.253ZM312.727 124.798L311.041 121.17L311.041 121.17L312.727 124.798ZM313.172 125.694L311.487 122.066L311.295 122.155L311.113 122.264L313.172 125.694ZM304.234 130.169L305.745 133.873L305.745 133.873L304.234 130.169ZM254.766 130.169L256.278 126.466L256.278 126.466L254.766 130.169ZM245.805 125.68L243.744 129.108L243.744 129.108L245.805 125.68ZM264.993 5.61215L265.875 9.51365L264.655 1.62644L264.993 5.61215ZM119.298 118.99L115.519 117.68L115.519 117.68L119.298 118.99ZM125.694 245.828L122.066 247.513L122.155 247.705L122.264 247.887L125.694 245.828ZM130.169 254.766L133.873 253.255L133.873 253.255L130.169 254.766ZM130.169 304.234L133.873 305.745L133.873 305.745L130.169 304.234ZM125.68 313.195L129.108 315.256L129.108 315.256L125.68 313.195ZM5.61215 294.007L9.51365 293.125L1.62644 294.345L5.61215 294.007ZM118.99 439.702L117.68 443.481L117.68 443.481L118.99 439.702ZM245.828 433.307L247.513 436.934L247.705 436.845L247.887 436.736L245.828 433.307ZM254.766 428.831L256.278 432.534L256.278 432.534L254.766 428.831ZM304.234 428.831L302.722 432.534L302.722 432.534L304.234 428.831ZM313.195 433.32L315.256 429.892L315.256 429.892L313.195 433.32ZM294.007 553.388L293.125 549.486L294.345 557.374L294.007 553.388ZM309.351 552.396L308.656 548.457L309.781 556.372L309.351 552.396ZM434.191 246.297L430.763 244.235L430.654 244.418L430.564 244.611L434.191 246.297ZM429.747 255.169L426.224 253.274L426.123 253.462L426.043 253.659L429.747 255.169ZM429.747 303.831L426.043 305.341L426.123 305.539L426.224 305.726L429.747 303.831ZM434.202 312.727L437.83 311.041L437.83 311.041L434.202 312.727ZM440.646 440.338L436.867 439.028L436.867 439.028L440.646 440.338ZM439.702 440.01L443.481 441.32L443.481 441.32L439.702 440.01ZM433.306 313.172L436.934 311.487L436.845 311.295L436.736 311.113L433.306 313.172ZM428.831 304.234L432.534 302.722L432.534 302.722L428.831 304.234ZM428.831 254.766L432.534 256.278L432.534 256.278L428.831 254.766ZM433.32 245.805L429.892 243.744L429.892 243.744L433.32 245.805ZM553.388 264.993L549.486 265.875L557.374 264.655L553.388 264.993ZM440.01 119.298L441.32 115.519L441.32 115.519L440.01 119.298ZM353.826 118.826L355.135 122.606L356.97 121.97L357.606 120.135L353.826 118.826ZM353.826 440.174L357.606 438.865L356.97 437.03L355.135 436.394L353.826 440.174ZM440.338 118.354L439.028 122.133L439.028 122.133L440.338 118.354ZM552.396 249.649L548.457 250.344L556.372 249.219L552.396 249.649ZM675.174 118.826L671.394 120.135L672.03 121.97L673.865 122.606L675.174 118.826ZM675.174 440.174L673.865 436.394L672.03 437.03L671.394 438.865L675.174 440.174ZM255.169 429.747L253.659 426.043L253.462 426.123L253.274 426.224L255.169 429.747ZM246.273 434.202L244.587 430.575L244.587 430.575L246.273 434.202ZM303.831 429.747L305.726 426.224L305.539 426.123L305.341 426.043L303.831 429.747ZM312.703 434.191L314.765 430.763L314.582 430.654L314.389 430.564L312.703 434.191ZM6.60439 309.351L10.5434 308.656L2.62757 309.781L6.60439 309.351ZM118.662 440.646L119.972 436.867L119.972 436.867L118.662 440.646ZM364.706 254.955L361.184 256.851L368.41 253.444L364.706 254.955ZM360.251 246.062L363.68 244.002L356.624 247.748L360.251 246.062ZM360.251 312.938L356.624 311.252L363.68 314.998L360.251 312.938ZM364.706 304.045L368.41 305.556L361.184 302.149L364.706 304.045ZM489.955 429.294L491.851 432.816L488.444 425.59L489.955 429.294ZM481.062 433.749L479.002 430.32L482.748 437.376L481.062 433.749ZM547.938 433.749L546.252 437.376L549.998 430.32L547.938 433.749ZM539.045 429.294L540.556 425.59L537.149 432.816L539.045 429.294ZM664.294 304.045L667.816 302.149L660.59 305.556L664.294 304.045ZM668.749 312.938L665.32 314.998L672.376 311.252L668.749 312.938ZM668.749 246.062L672.376 247.748L665.32 244.002L668.749 246.062ZM664.294 254.955L660.59 253.444L667.816 256.851L664.294 254.955ZM539.045 129.706L537.149 126.184L540.556 133.41L539.045 129.706ZM547.938 125.251L549.998 128.68L546.252 121.624L547.938 125.251ZM481.062 125.251L482.748 121.624L479.002 128.68L481.062 125.251ZM489.955 129.706L488.444 133.41L491.851 126.184L489.955 129.706ZM249.219 2.62757C109.649 17.7213 1 135.92 1 279.5H9C9 140.049 114.527 25.2404 250.079 10.5812L249.219 2.62757ZM122.133 119.972C141.631 63.6918 190.475 21.1156 250.344 10.5434L248.953 2.66533C186.185 13.7494 135.008 58.3707 114.574 117.353L122.133 119.972ZM113 174.5C113 155.396 116.216 137.051 122.133 119.972L114.574 117.353C108.369 135.263 105 154.493 105 174.5H113ZM128.425 244.587C118.527 223.289 113 199.545 113 174.5H105C105 200.733 110.792 225.626 121.17 247.959L128.425 244.587ZM132.776 253.274C131.244 250.427 129.793 247.53 128.425 244.587L121.17 247.959C122.604 251.044 124.125 254.08 125.731 257.064L132.776 253.274ZM138 279.5C138 270.364 136.21 261.638 132.957 253.659L125.549 256.679C128.417 263.715 130 271.417 130 279.5H138ZM132.957 305.341C136.21 297.362 138 288.636 138 279.5H130C130 287.583 128.417 295.285 125.549 302.321L132.957 305.341ZM128.436 314.389C129.801 311.454 131.248 308.566 132.776 305.727L125.731 301.936C124.13 304.912 122.612 307.94 121.182 311.016L128.436 314.389ZM69.5 348C94.4387 348 116.261 334.671 128.237 314.765L121.382 310.641C110.792 328.242 91.5172 340 69.5 340V348ZM1 279.5C1 317.332 31.6685 348 69.5 348V340C36.0868 340 9 312.913 9 279.5H1ZM279.5 0C125.136 0 0 125.136 0 279.5H8C8 129.555 129.555 8 279.5 8V0ZM414.68 34.8063C374.614 12.6258 328.526 0 279.5 0V8C327.136 8 371.895 20.2646 410.805 41.8053L414.68 34.8063ZM410.346 35.1033C410.046 35.3273 409.748 35.5522 409.45 35.7779L414.284 42.1521C414.569 41.9366 414.854 41.722 415.139 41.5083L410.346 35.1033ZM413.799 35.4624C373.97 13.4974 328.188 1 279.5 1V9C326.803 9 371.259 21.1386 409.936 42.4677L413.799 35.4624ZM279.5 1C241.669 1 211 31.6685 211 69.5H219C219 36.0868 246.087 9 279.5 9V1ZM211 69.5C211 94.4387 224.329 116.261 244.235 128.237L248.359 121.382C230.758 110.792 219 91.5172 219 69.5H211ZM244.611 128.436C247.546 129.801 250.434 131.248 253.274 132.776L257.064 125.731C254.088 124.13 251.06 122.612 247.984 121.182L244.611 128.436ZM253.659 132.957C261.638 136.21 270.364 138 279.5 138V130C271.417 130 263.715 128.417 256.679 125.549L253.659 132.957ZM279.5 138C288.636 138 297.362 136.21 305.341 132.957L302.321 125.549C295.285 128.417 287.583 130 279.5 130V138ZM305.727 132.776C308.573 131.244 311.47 129.793 314.413 128.425L311.041 121.17C307.956 122.604 304.92 124.125 301.936 125.731L305.727 132.776ZM314.413 128.425C327.834 122.188 342.225 117.687 357.299 115.21L356.002 107.316C340.2 109.912 325.112 114.631 311.041 121.17L314.413 128.425ZM352.938 109.775C352.79 110.144 352.643 110.515 352.497 110.886L359.942 113.812C360.081 113.458 360.222 113.105 360.363 112.752L352.938 109.775ZM314.857 129.321C328.019 123.207 342.118 118.773 356.882 116.293L355.557 108.404C340.076 111.004 325.289 115.654 311.487 122.066L314.857 129.321ZM305.745 133.873C309.042 132.527 312.212 130.936 315.232 129.123L311.113 122.264C308.441 123.869 305.637 125.276 302.722 126.466L305.745 133.873ZM279.5 139C288.778 139 297.641 137.18 305.745 133.873L302.722 126.466C295.562 129.388 287.723 131 279.5 131V139ZM253.255 133.873C261.359 137.18 270.222 139 279.5 139V131C271.277 131 263.438 129.388 256.278 126.466L253.255 133.873ZM243.744 129.108C246.771 130.928 249.949 132.524 253.255 133.873L256.278 126.466C253.355 125.273 250.544 123.861 247.865 122.251L243.744 129.108ZM210 69.5C210 94.8142 223.536 116.962 243.744 129.108L247.865 122.251C229.964 111.492 218 91.8913 218 69.5H210ZM264.11 1.71064C233.134 8.71493 210 36.4011 210 69.5H218C218 40.2206 238.465 15.7114 265.875 9.51365L264.11 1.71064ZM123.078 120.299C144.045 59.7796 199.146 15.208 265.33 9.59785L264.655 1.62644C195.247 7.50973 137.497 54.242 115.519 117.68L123.078 120.299ZM114 174.5C114 155.509 117.197 137.275 123.078 120.299L115.519 117.68C109.35 135.487 106 154.606 106 174.5H114ZM129.321 244.142C119.49 222.979 114 199.387 114 174.5H106C106 200.575 111.754 225.316 122.066 247.513L129.321 244.142ZM133.873 253.255C132.527 249.958 130.936 246.788 129.123 243.768L122.264 247.887C123.869 250.559 125.276 253.363 126.466 256.278L133.873 253.255ZM139 279.5C139 270.222 137.18 261.359 133.873 253.255L126.466 256.278C129.388 263.438 131 271.277 131 279.5H139ZM133.873 305.745C137.18 297.641 139 288.778 139 279.5H131C131 287.723 129.388 295.562 126.466 302.722L133.873 305.745ZM129.108 315.256C130.928 312.229 132.524 309.051 133.873 305.745L126.466 302.722C125.273 305.645 123.861 308.456 122.251 311.135L129.108 315.256ZM69.5 349C94.8142 349 116.962 335.464 129.108 315.256L122.251 311.135C111.492 329.036 91.8913 341 69.5 341V349ZM1.71064 294.89C8.71493 325.866 36.4011 349 69.5 349V341C40.2206 341 15.7114 320.535 9.51365 293.125L1.71064 294.89ZM120.299 435.922C59.7796 414.955 15.208 359.854 9.59785 293.67L1.62644 294.345C7.50973 363.753 54.242 421.503 117.68 443.481L120.299 435.922ZM174.5 445C155.509 445 137.275 441.803 120.299 435.922L117.68 443.481C135.487 449.65 154.606 453 174.5 453V445ZM244.142 429.679C222.979 439.51 199.387 445 174.5 445V453C200.575 453 225.315 447.246 247.513 436.934L244.142 429.679ZM253.255 425.127C249.958 426.473 246.788 428.064 243.768 429.877L247.887 436.736C250.559 435.131 253.363 433.724 256.278 432.534L253.255 425.127ZM279.5 420C270.222 420 261.359 421.82 253.255 425.127L256.278 432.534C263.438 429.612 271.277 428 279.5 428V420ZM305.745 425.127C297.641 421.82 288.778 420 279.5 420V428C287.723 428 295.562 429.612 302.722 432.534L305.745 425.127ZM315.256 429.892C312.229 428.072 309.051 426.476 305.745 425.127L302.722 432.534C305.645 433.727 308.456 435.139 311.135 436.749L315.256 429.892ZM349 489.5C349 464.186 335.463 442.038 315.256 429.892L311.134 436.749C329.036 447.508 341 467.109 341 489.5H349ZM294.89 557.289C325.866 550.285 349 522.599 349 489.5H341C341 518.779 320.535 543.289 293.125 549.486L294.89 557.289ZM393.874 504.12C367.348 529.49 332.41 546.118 293.67 549.402L294.345 557.374C334.97 553.93 371.605 536.489 399.404 509.901L393.874 504.12ZM393.865 509.893C394.111 510.13 394.358 510.366 394.605 510.601L400.119 504.804C399.883 504.579 399.647 504.354 399.413 504.128L393.865 509.893ZM394.597 504.812C371.352 527.056 341.681 542.625 308.656 548.457L310.047 556.335C344.675 550.22 375.775 533.896 400.128 510.592L394.597 504.812ZM309.781 556.372C347.169 552.329 382.342 540.886 413.799 523.538L409.936 516.532C379.386 533.38 345.232 544.492 308.921 548.419L309.781 556.372ZM409.45 523.222C409.748 523.448 410.046 523.673 410.346 523.897L415.139 517.492C414.854 517.278 414.569 517.064 414.285 516.848L409.45 523.222ZM279.5 559C328.526 559 374.614 546.374 414.68 524.194L410.805 517.195C371.895 538.735 327.136 551 279.5 551V559ZM0 279.5C0 433.864 125.136 559 279.5 559V551C129.555 551 8 429.445 8 279.5H0ZM413.799 523.538C499.757 476.134 558 384.621 558 279.5H550C550 381.591 493.445 470.479 409.936 516.532L413.799 523.538ZM558 279.5C558 241.669 527.332 211 489.5 211V219C522.913 219 550 246.087 550 279.5H558ZM489.5 211C464.561 211 442.739 224.329 430.763 244.235L437.618 248.359C448.207 230.758 467.483 219 489.5 219V211ZM430.564 244.611C429.199 247.546 427.752 250.434 426.224 253.274L433.269 257.064C434.87 254.088 436.388 251.06 437.818 247.984L430.564 244.611ZM426.043 253.659C422.79 261.638 421 270.364 421 279.5H429C429 271.417 430.583 263.715 433.451 256.679L426.043 253.659ZM421 279.5C421 288.636 422.79 297.362 426.043 305.341L433.451 302.321C430.583 295.285 429 287.583 429 279.5H421ZM426.224 305.726C427.756 308.573 429.207 311.47 430.575 314.413L437.83 311.041C436.396 307.956 434.875 304.92 433.269 301.936L426.224 305.726ZM430.575 314.413C440.473 335.711 446 359.455 446 384.5H454C454 358.267 448.208 333.374 437.83 311.041L430.575 314.413ZM446 384.5C446 403.604 442.784 421.949 436.867 439.028L444.426 441.647C450.631 423.737 454 404.507 454 384.5H446ZM436.867 439.028C428.127 464.255 413.488 486.734 394.597 504.812L400.128 510.592C419.919 491.654 435.262 468.097 444.426 441.647L436.867 439.028ZM394.605 510.601C399.311 515.076 404.267 519.291 409.45 523.222L414.285 516.848C409.339 513.097 404.609 509.075 400.119 504.804L394.605 510.601ZM435.922 438.701C427.23 463.791 412.668 486.145 393.874 504.12L399.404 509.901C419.097 491.066 434.365 467.633 443.481 441.32L435.922 438.701ZM445 384.5C445 403.491 441.803 421.725 435.922 438.701L443.481 441.32C449.65 423.513 453 404.394 453 384.5H445ZM429.679 314.857C439.51 336.021 445 359.613 445 384.5H453C453 358.425 447.246 333.684 436.934 311.487L429.679 314.857ZM425.127 305.745C426.473 309.042 428.064 312.212 429.877 315.232L436.736 311.113C435.131 308.441 433.724 305.637 432.534 302.722L425.127 305.745ZM420 279.5C420 288.778 421.82 297.641 425.127 305.745L432.534 302.722C429.612 295.562 428 287.723 428 279.5H420ZM425.127 253.255C421.82 261.359 420 270.222 420 279.5H428C428 271.277 429.612 263.438 432.534 256.278L425.127 253.255ZM429.892 243.744C428.072 246.771 426.476 249.949 425.127 253.255L432.534 256.278C433.727 253.355 435.139 250.544 436.749 247.865L429.892 243.744ZM489.5 210C464.186 210 442.038 223.536 429.892 243.744L436.749 247.865C447.508 229.964 467.109 218 489.5 218V210ZM557.289 264.11C550.285 233.134 522.599 210 489.5 210V218C518.779 218 543.289 238.465 549.486 265.875L557.289 264.11ZM438.701 123.078C499.22 144.045 543.792 199.146 549.402 265.33L557.374 264.655C551.49 195.247 504.758 137.497 441.32 115.519L438.701 123.078ZM384.5 114C403.491 114 421.725 117.197 438.701 123.078L441.32 115.519C423.513 109.35 404.394 106 384.5 106V114ZM356.882 116.293C365.861 114.785 375.087 114 384.5 114V106C374.641 106 364.972 106.823 355.557 108.404L356.882 116.293ZM352.497 110.886C351.637 113.075 350.819 115.285 350.046 117.517L357.606 120.135C358.343 118.008 359.122 115.899 359.942 113.812L352.497 110.886ZM352.517 115.046C284.41 138.642 235.5 203.354 235.5 279.5H243.5C243.5 206.867 290.151 145.12 355.135 122.606L352.517 115.046ZM235.5 279.5C235.5 355.646 284.41 420.358 352.517 443.954L355.135 436.394C290.151 413.88 243.5 352.133 243.5 279.5H235.5ZM350.046 441.483C359.129 467.7 374.301 491.066 393.865 509.893L399.412 504.128C380.74 486.16 366.267 463.866 357.606 438.865L350.046 441.483ZM357.299 115.21C366.148 113.757 375.234 113 384.5 113V105C374.798 105 365.278 105.792 356.002 107.316L357.299 115.21ZM384.5 113C403.604 113 421.949 116.216 439.028 122.133L441.647 114.574C423.737 108.369 404.507 105 384.5 105V113ZM439.028 122.133C495.308 141.631 537.884 190.475 548.457 250.344L556.335 248.953C545.251 186.185 500.629 135.008 441.647 114.574L439.028 122.133ZM556.372 249.219C546.397 156.976 491.389 78.2513 413.799 35.4624L409.936 42.4677C485.314 84.0372 538.732 160.51 548.419 250.079L556.372 249.219ZM409.45 35.778C384.481 54.715 364.78 80.2413 352.938 109.775L360.363 112.752C371.658 84.5842 390.454 60.2254 414.285 42.1521L409.45 35.778ZM414.68 524.194C500.728 476.557 559 384.836 559 279.5H551C551 381.811 494.41 470.91 410.805 517.195L414.68 524.194ZM559 279.5C559 174.164 500.728 82.443 414.68 34.8063L410.805 41.8053C494.41 88.0899 551 177.189 551 279.5H559ZM514.5 0.5C475.445 0.5 439.385 13.3719 410.346 35.1033L415.139 41.5083C442.842 20.7768 477.231 8.5 514.5 8.5V0.5ZM678.954 117.517C655.358 49.4103 590.646 0.5 514.5 0.5V8.5C587.133 8.5 648.88 55.1505 671.394 120.135L678.954 117.517ZM793.5 279.5C793.5 203.354 744.59 138.642 676.484 115.046L673.865 122.606C738.849 145.12 785.5 206.867 785.5 279.5H793.5ZM676.484 443.954C744.59 420.358 793.5 355.646 793.5 279.5H785.5C785.5 352.133 738.849 413.88 673.865 436.394L676.484 443.954ZM514.5 558.5C590.646 558.5 655.358 509.59 678.954 441.483L671.394 438.865C648.88 503.849 587.133 550.5 514.5 550.5V558.5ZM410.346 523.897C439.385 545.628 475.445 558.5 514.5 558.5V550.5C477.231 550.5 442.842 538.223 415.139 517.492L410.346 523.897ZM253.274 426.224C250.427 427.756 247.53 429.207 244.587 430.575L247.959 437.83C251.044 436.396 254.08 434.875 257.064 433.269L253.274 426.224ZM279.5 421C270.364 421 261.638 422.79 253.659 426.043L256.679 433.451C263.715 430.583 271.417 429 279.5 429V421ZM305.341 426.043C297.362 422.79 288.636 421 279.5 421V429C287.583 429 295.285 430.583 302.321 433.451L305.341 426.043ZM314.389 430.564C311.454 429.199 308.566 427.752 305.726 426.224L301.936 433.269C304.912 434.87 307.94 436.388 311.016 437.818L314.389 430.564ZM348 489.5C348 464.561 334.671 442.739 314.765 430.763L310.641 437.618C328.242 448.207 340 467.483 340 489.5H348ZM279.5 558C317.332 558 348 527.332 348 489.5H340C340 522.913 312.913 550 279.5 550V558ZM2.62757 309.781C17.7213 449.351 135.92 558 279.5 558V550C140.049 550 25.2404 444.473 10.5812 308.921L2.62757 309.781ZM119.972 436.867C63.6918 417.369 21.1156 368.525 10.5434 308.656L2.66533 310.047C13.7494 372.815 58.3707 423.992 117.353 444.426L119.972 436.867ZM174.5 446C155.396 446 137.051 442.784 119.972 436.867L117.353 444.426C135.263 450.631 154.493 454 174.5 454V446ZM244.587 430.575C223.289 440.473 199.545 446 174.5 446V454C200.733 454 225.626 448.208 247.959 437.83L244.587 430.575ZM368.228 253.06C366.697 250.214 365.246 247.319 363.879 244.377L356.624 247.748C358.057 250.833 359.578 253.868 361.184 256.851L368.228 253.06ZM356.823 248.123C358.42 250.78 359.82 253.568 361.003 256.467L368.41 253.444C367.07 250.162 365.486 247.007 363.68 244.002L356.823 248.123ZM363.879 314.623C365.246 311.681 366.697 308.786 368.228 305.94L361.184 302.149C359.578 305.132 358.057 308.167 356.624 311.252L363.879 314.623ZM361.003 302.533C359.82 305.432 358.42 308.22 356.823 310.877L363.68 314.998C365.486 311.993 367.07 308.838 368.41 305.556L361.003 302.533ZM488.06 425.772C485.214 427.303 482.319 428.754 479.377 430.121L482.748 437.376C485.833 435.943 488.868 434.422 491.851 432.816L488.06 425.772ZM483.123 437.177C485.78 435.58 488.568 434.18 491.467 432.997L488.444 425.59C485.162 426.93 482.007 428.514 479.002 430.32L483.123 437.177ZM549.623 430.121C546.681 428.754 543.786 427.303 540.94 425.772L537.149 432.816C540.132 434.422 543.167 435.943 546.252 437.376L549.623 430.121ZM537.533 432.997C540.432 434.18 543.22 435.58 545.877 437.177L549.998 430.32C546.993 428.514 543.838 426.93 540.556 425.59L537.533 432.997ZM660.772 305.941C662.303 308.786 663.754 311.681 665.121 314.623L672.376 311.252C670.943 308.167 669.422 305.132 667.816 302.149L660.772 305.941ZM672.177 310.877C670.58 308.22 669.18 305.432 667.997 302.533L660.59 305.556C661.93 308.838 663.514 311.993 665.32 314.998L672.177 310.877ZM665.121 244.377C663.754 247.319 662.303 250.214 660.772 253.06L667.816 256.851C669.422 253.868 670.943 250.833 672.376 247.748L665.121 244.377ZM667.997 256.467C669.18 253.568 670.58 250.78 672.177 248.123L665.32 244.002C663.514 247.007 661.93 250.162 660.59 253.444L667.997 256.467ZM540.556 133.41C543.838 132.07 546.993 130.486 549.998 128.68L545.877 121.823C543.22 123.42 540.432 124.82 537.533 126.003L540.556 133.41ZM546.252 121.624C543.167 123.057 540.132 124.578 537.149 126.184L540.94 133.228C543.786 131.697 546.681 130.246 549.623 128.879L546.252 121.624ZM479.002 128.68C482.007 130.486 485.162 132.07 488.444 133.41L491.467 126.003C488.568 124.82 485.78 123.42 483.123 121.823L479.002 128.68ZM491.851 126.184C488.868 124.578 485.833 123.057 482.748 121.624L479.377 128.879C482.319 130.246 485.214 131.697 488.06 133.228L491.851 126.184Z" fill="#777467"/>
</svg>
