<svg width="800" height="600" xmlns="http://www.w3.org/2000/svg"><path d="M253.689 532.088c-24.434 11.637 11.403-12.757 11.403-54.544S276.942 423 281.334 423c4.391 0-.346 13.484-.346 55.271 0 41.788-2.865 42.181-27.3 53.817z" opacity="undefined" stroke="#000" fill="#222c3c"/><path d="M261.857 528.503c-6.576 0-11.907-21.437-11.907-47.889 0-26.448 5.331-47.888 11.907-47.888-3.748 11.305-5.954 29.048-5.954 47.888s2.206 36.58 5.954 47.889z" stroke="#000" fill="#fff"/><path d="M267.182 548.182c-5.115 0-9.261-32.155-9.261-71.832 0-39.673 4.146-71.833 9.26-71.833-2.914 16.957-4.63 43.571-4.63 71.833s1.716 54.87 4.63 71.832z" stroke="#000" fill="#fff"/><path d="M264.526 545.646c-10.229 0-18.522-52.587-18.522-117.476 0-64.882 8.293-117.476 18.522-117.476-5.83 27.73-9.26 71.257-9.26 117.476s3.43 89.736 9.26 117.476z" stroke="#000" fill="#fff"/><path d="M255.385 540.108c-11.69 0-21.168-70.674-21.168-157.882 0-87.197 9.478-157.882 21.168-157.882-6.662 37.27-10.583 95.766-10.583 157.882s3.92 120.601 10.583 157.882z" stroke="#000" fill="#fff"/><g stroke="#000" fill="#fff"><ellipse ry="36.494" rx="120.693" cy="558.762" cx="336.906"/><path transform="matrix(-.78006 -1.31558 1.15686 -.88708 476.775 1085.844)" d="M464.169 367.435c-3.889 0-7.041-13.653-7.041-30.5 0-16.845 3.153-30.5 7.04-30.5-2.215 7.2-3.52 18.5-3.52 30.5s1.305 23.298 3.52 30.5z"/><path transform="matrix(-.68928 -1.37959 1.21315 -.78384 92.643 1319.994)" d="M347.163 513.286c-8.126 0-14.715-13.653-14.715-30.5 0-16.845 6.59-30.5 14.715-30.5-4.63 7.2-7.357 18.5-7.357 30.5s2.726 23.298 7.357 30.5z"/><path d="M404.972 332.92c-3.865 0-7-12.534-7-28 0-15.464 3.135-28 7-28-2.203 6.61-3.5 16.984-3.5 28s1.297 21.388 3.5 28zM374.157 364.78c-6.074 0-11-16.115-11-36 0-19.883 4.926-36 11-36-3.462 8.498-5.5 21.836-5.5 36s2.038 27.5 5.5 36zM438.722 297.09c-4.418 0-8-12.086-8-27 0-14.912 3.582-27 8-27-2.517 6.373-4 16.377-4 27s1.483 20.624 4 27z" transform="matrix(1.25593 -.69123 .60784 1.42824 -276.115 18.125)"/><path transform="matrix(-.89788 -1.21454 1.068 -1.02106 634.195 1001.585)" d="M490.35 321.638c-4.536 0-8.214-10.744-8.214-24 0-13.255 3.678-24 8.215-24-2.585 5.665-4.107 14.557-4.107 24s1.522 18.332 4.107 24z"/><path d="M344.247 403.595c-9.94 0-18-13.877-18-31 0-17.121 8.06-31 18-31-5.665 7.318-9 18.803-9 31s3.335 23.68 9 31zM307.462 455.415c-13.253 0-24-17.458-24-39 0-21.54 10.747-39 24-39-7.553 9.206-11.999 23.656-11.999 39s4.446 29.79 12 39zM271.627 488.255c-11.597 0-21-17.682-21-39.5 0-21.816 9.403-39.5 21-39.5-6.61 9.324-10.5 23.96-10.5 39.5s3.89 30.173 10.5 39.5zM467.61 258.23c-4.97 0-9-9.624-9-21.5 0-11.874 4.03-21.5 9-21.5-2.833 5.075-4.5 13.041-4.5 21.5s1.667 16.423 4.5 21.5z" transform="matrix(1.25593 -.69123 .60784 1.42824 -276.115 18.125)"/><path transform="matrix(.98535 1.12342 -.98788 1.12054 262.82 -808.134)" d="M502.687 272.96c-4.878 0-8.834-8.824-8.834-19.712 0-10.887 3.956-19.712 8.834-19.712-2.78 4.653-4.417 11.957-4.417 19.712s1.637 15.057 4.417 19.712z"/><path transform="matrix(-.43914 -1.50608 1.32438 -.49939 190.053 1099.349)" d="M439.362 407.744c-5.389 0-9.758-13.653-9.758-30.5 0-16.845 4.37-30.5 9.758-30.5-3.071 7.2-4.879 18.5-4.879 30.5s1.808 23.298 4.879 30.5z"/><path transform="matrix(-.43914 -1.50608 1.32438 -.49939 109.036 1139.926)" d="M406.362 442.744c-5.389 0-9.758-13.653-9.758-30.5 0-16.845 4.37-30.5 9.758-30.5-3.071 7.2-4.879 18.5-4.879 30.5s1.808 23.298 4.879 30.5z"/><path transform="matrix(-.76819 -1.32459 1.16478 -.87358 238.719 1290.8)" d="M382.753 481.838c-5.388 0-9.758-14.733-9.758-32.912 0-18.178 4.37-32.913 9.758-32.913-3.07 7.77-4.878 19.964-4.878 32.913s1.807 25.14 4.878 32.912z"/><path transform="matrix(1.35138 .3949 -.34726 1.53679 57.558 -435.028)" d="M383.52 547.19c-5.522 0-10-71.622-10-160 0-88.367 4.478-160 10-160-3.147 37.77-5 97.05-5 160s1.853 122.219 5 160z"/><path d="M350.634 595.908c-4.296 6.487-38.688 5.796-76.828-1.547-38.136-7.342-65.566-18.553-61.27-25.04 13.851 6.835 37.993 13.936 65.16 19.166s54.185 7.979 72.938 7.42z"/><path d="M280.082 589.715c-9.246 0-16.744-22.018-16.744-49.188 0-27.166 7.498-49.188 16.744-49.188-5.27 11.611-8.371 29.836-8.371 49.188s3.101 37.573 8.371 49.188z"/><path d="M264.783 586.716c-6.165 0-11.163-29.12-11.163-65.055 0-35.93 4.998-65.055 11.163-65.055-3.513 15.357-5.581 39.46-5.581 65.055s2.068 49.694 5.58 65.055z"/></g><ellipse transform="rotate(-75.936 295.562 526.764)" stroke="#000" ry="4" rx="65.429" cy="526.764" cx="295.562" fill="#fff"/></svg>