<svg width="741" height="551" viewBox="0 0 741 551" fill="none" xmlns="http://www.w3.org/2000/svg">
<path fill-rule="evenodd" clip-rule="evenodd" d="M65.5 210C35.6973 210 10.5435 229.904 2.60679 257.144C11.254 208.342 53.7722 171.241 105.001 171.001C105.068 194.359 109.832 216.613 118.399 236.867C106.484 220.58 87.2278 210 65.5 210ZM114.019 115.638C108.222 132.706 105.055 150.988 105.001 170.001C54.989 170.233 13.1992 205.263 2.59878 252.124C11.354 188.654 55.2502 136.402 114.019 115.638ZM245.649 2.60439C117.893 16.4205 16.4205 117.893 2.60439 245.649C13.4182 184.412 56.9157 134.453 114.433 114.433C134.453 56.9157 184.412 13.4182 245.649 2.60439ZM106 170.5C106 151.143 109.245 132.545 115.219 115.219C132.545 109.245 151.143 106 170.5 106C194.692 106 217.698 111.068 238.518 120.199C216.257 152.671 200.784 190.162 194.143 230.626C173.848 241.665 156.046 256.707 141.795 274.691C135.94 267.188 130.702 259.179 126.159 250.742C124.894 247.645 123.398 244.666 121.694 241.828C111.622 220.147 106 195.981 106 170.5ZM193.941 231.876C194.007 231.459 194.075 231.042 194.143 230.626C195.802 229.723 197.477 228.848 199.168 228C205.695 224.726 212.461 221.86 219.433 219.433C221.86 212.461 224.726 205.695 228 199.168C239.227 176.782 255.237 157.211 274.691 141.795C267.188 135.94 259.179 130.702 250.742 126.159C247.645 124.894 244.666 123.398 241.828 121.694C240.731 121.184 239.627 120.686 238.518 120.199C238.804 119.781 239.092 119.363 239.381 118.947C240.335 119.593 241.308 120.214 242.297 120.809C245.303 122.206 248.261 123.689 251.169 125.253C258.676 128.313 266.891 130 275.5 130C284.109 130 292.324 128.313 299.831 125.253C300.515 124.885 301.202 124.522 301.892 124.163C304.133 122.996 306.404 121.878 308.703 120.809C313.759 117.767 318.363 114.052 322.392 109.788C333.308 98.2341 340 82.6484 340 65.5C340 54.4134 337.203 43.9802 332.276 34.8674C332.567 34.7057 332.859 34.5445 333.151 34.3838C338.158 43.6399 341 54.238 341 65.5C341 82.3909 334.606 97.7883 324.108 109.404C321.102 112.731 317.759 115.747 314.133 118.399C330.352 111.539 347.854 107.117 366.178 105.593C370.736 105.214 375.346 105.014 379.999 105.001C379.856 74.4422 366.596 46.983 345.561 27.9638C345.884 27.8068 346.208 27.6505 346.532 27.4947C367.596 46.6863 380.857 74.2937 380.999 105.001C393.407 105.036 405.504 106.397 417.156 108.95C417.548 109.386 417.946 109.816 418.349 110.242C406.18 107.466 393.511 106 380.5 106C378.596 106 376.699 106.031 374.809 106.094C351.421 106.865 329.232 112.375 309.172 121.694C306.709 123.173 304.14 124.495 301.48 125.645C301.075 125.821 300.668 125.992 300.258 126.159C291.821 130.702 283.812 135.94 276.309 141.795C283.277 147.316 289.803 153.371 295.825 159.897C306.618 171.591 315.795 184.8 323 199.168C326.274 205.695 329.14 212.461 331.567 219.433C338.539 221.86 345.305 224.726 351.832 228C358.462 231.325 364.846 235.07 370.947 239.199C385.447 249.013 398.355 260.999 409.205 274.691C415.06 267.188 420.298 259.179 424.841 250.742C426.106 247.645 427.602 244.666 429.307 241.828C439.378 220.147 445 195.981 445 170.5C445 167.348 444.914 164.216 444.744 161.107C444.06 148.581 442.016 136.417 438.757 124.761C439.149 124.938 439.543 125.112 439.939 125.281C443.007 136.464 444.965 148.105 445.687 160.079C445.885 163.362 445.99 166.671 445.999 170.001C469.011 170.108 490.282 177.582 507.575 190.186C520.877 199.881 531.826 212.612 539.402 227.36C543.381 235.107 546.43 243.411 548.401 252.124C547.337 244.407 545.753 236.856 543.686 229.507C532.676 190.366 507.965 156.963 475.054 134.803C475.351 134.601 475.649 134.4 475.947 134.2C509.138 156.663 533.992 190.514 544.901 230.144C546.299 235.221 547.468 240.393 548.396 245.649C547.861 240.708 547.196 235.807 546.403 230.948C539.762 190.259 524.176 152.577 501.728 119.985L501.789 119.958C501.808 119.95 501.827 119.941 501.846 119.933C501.89 119.914 501.934 119.894 501.977 119.875L502.185 119.784C502.072 119.833 501.959 119.883 501.846 119.933C501.807 119.95 501.768 119.968 501.728 119.985C501.648 119.869 501.568 119.753 501.488 119.636C501.766 119.452 502.042 119.265 502.316 119.076C502.431 119.242 502.546 119.409 502.661 119.575C525.273 152.456 540.932 190.49 547.514 231.556C549.808 245.866 551 260.544 551 275.5C551 290.456 549.808 305.134 547.514 319.444C540.932 360.51 525.273 398.544 502.661 431.425C502.535 431.37 502.409 431.315 502.283 431.26C502.319 431.275 502.355 431.291 502.391 431.307C502.481 431.346 502.571 431.385 502.661 431.425C502.546 431.591 502.431 431.758 502.316 431.924C502.042 431.735 501.766 431.548 501.488 431.363C501.568 431.247 501.648 431.131 501.728 431.015C524.176 398.423 539.762 360.741 546.403 320.052C547.196 315.193 547.861 310.292 548.396 305.351C547.468 310.607 546.299 315.779 544.901 320.856C533.992 360.486 509.138 394.337 475.947 416.801C475.649 416.6 475.351 416.399 475.054 416.197C507.964 394.037 532.676 360.634 543.686 321.493C545.753 314.144 547.337 306.593 548.401 298.876C546.43 307.589 543.381 315.893 539.401 323.64C531.826 338.388 520.877 351.119 507.575 360.814C490.282 373.418 469.011 380.892 445.999 380.999C445.99 384.329 445.885 387.638 445.687 390.921C444.965 402.895 443.007 414.536 439.939 425.719C439.543 425.888 439.149 426.062 438.757 426.239C442.016 414.583 444.06 402.419 444.744 389.893C444.914 386.784 445 383.652 445 380.5V380H445.5C469.303 380 491.247 372.042 508.817 358.641C520.82 349.486 530.781 337.79 537.899 324.357C542.883 314.95 546.473 304.691 548.393 293.856C540.456 321.096 515.303 341 485.5 341C461.647 341 440.773 328.25 429.32 309.195C427.61 306.35 426.11 303.364 424.841 300.258C420.298 291.821 415.06 283.812 409.205 276.309C398.355 290.001 385.447 301.987 370.947 311.801C364.846 315.93 358.462 319.675 351.832 323C345.305 326.274 338.539 329.14 331.567 331.567C329.14 338.539 326.274 345.305 323 351.832C315.795 366.2 306.618 379.409 295.825 391.103C289.803 397.629 283.277 403.684 276.309 409.205C283.812 415.06 291.821 420.298 300.258 424.841C300.668 425.008 301.075 425.179 301.48 425.355C304.14 426.505 306.709 427.827 309.172 429.306C329.232 438.625 351.421 444.135 374.809 444.906C376.699 444.969 378.596 445 380.5 445C393.511 445 406.18 443.534 418.349 440.758C417.945 441.184 417.548 441.614 417.156 442.05C405.504 444.603 393.407 445.964 380.999 445.999C380.857 476.706 367.596 504.314 346.532 523.505C346.208 523.349 345.884 523.193 345.561 523.036C366.596 504.017 379.856 476.558 379.999 445.999C375.346 445.986 370.736 445.786 366.178 445.407C347.854 443.883 330.352 439.461 314.133 432.601C317.759 435.253 321.102 438.269 324.108 441.596C334.606 453.212 341 468.609 341 485.5C341 496.762 338.158 507.36 333.151 516.616C332.859 516.456 332.567 516.294 332.276 516.133C337.203 507.02 340 496.587 340 485.5C340 468.352 333.308 452.766 322.392 441.212C318.363 436.948 313.759 433.233 308.703 430.191C306.404 429.122 304.133 428.004 301.892 426.837C301.202 426.478 300.515 426.115 299.831 425.747C292.324 422.686 284.109 421 275.5 421C266.891 421 258.676 422.686 251.169 425.747C248.261 427.311 245.303 428.793 242.297 430.191C241.308 430.786 240.335 431.407 239.381 432.053C239.092 431.637 238.804 431.219 238.518 430.801C239.627 430.314 240.731 429.816 241.828 429.306C244.666 427.602 247.645 426.106 250.742 424.841C259.179 420.298 267.188 415.06 274.691 409.205C255.237 393.789 239.227 374.218 228 351.832C224.726 345.305 221.86 338.539 219.433 331.567C212.461 329.14 205.695 326.274 199.168 323C197.477 322.152 195.802 321.277 194.143 320.374C194.075 319.958 194.007 319.541 193.941 319.124C195.812 320.153 197.704 321.147 199.617 322.107C206.176 325.396 212.978 328.272 219.99 330.702L220.219 330.781L220.298 331.01C222.727 338.022 225.604 344.824 228.893 351.383C240.091 373.71 256.075 393.221 275.5 408.57C282.751 402.84 289.523 396.531 295.745 389.711C306.192 378.262 315.089 365.376 322.107 351.383C325.396 344.824 328.272 338.022 330.702 331.01L330.781 330.781L331.01 330.702C338.022 328.272 344.824 325.396 351.383 322.107C357.854 318.861 364.089 315.214 370.054 311.197C384.67 301.355 397.67 289.295 408.57 275.5C397.67 261.705 384.67 249.645 370.054 239.803C364.089 235.786 357.854 232.139 351.383 228.893C344.824 225.604 338.022 222.727 331.01 220.298L330.781 220.219L330.702 219.99C328.272 212.978 325.396 206.176 322.107 199.617C315.089 185.624 306.192 172.738 295.745 161.289C289.523 154.469 282.751 148.16 275.5 142.43C256.075 157.779 240.091 177.29 228.893 199.617C225.604 206.176 222.727 212.978 220.298 219.99L220.219 220.219L219.99 220.298C212.978 222.727 206.176 225.604 199.617 228.893C197.704 229.853 195.812 230.847 193.941 231.876ZM190.5 275.5C190.5 290.345 191.676 304.916 193.941 319.124C173.977 308.145 156.464 293.261 142.43 275.5C156.464 257.739 173.977 242.855 193.941 231.876C191.676 246.084 190.5 260.655 190.5 275.5ZM331.793 275.5C325.757 267.824 320.367 259.615 315.706 250.955C314.445 247.865 312.953 244.894 311.251 242.062C299.885 223.152 279.17 210.5 255.5 210.5C219.601 210.5 190.5 239.601 190.5 275.5C190.5 311.398 219.601 340.5 255.5 340.5C279.17 340.5 299.885 327.848 311.251 308.938C312.953 306.106 314.445 303.135 315.706 300.045C320.367 291.385 325.757 283.176 331.793 275.5ZM194.143 320.374C173.848 309.335 156.046 294.293 141.795 276.309C135.94 283.812 130.702 291.821 126.159 300.258C124.894 303.355 123.398 306.334 121.694 309.172C111.622 330.853 106 355.019 106 380.5C106 399.857 109.245 418.455 115.219 435.781C132.545 441.755 151.143 445 170.5 445C194.692 445 217.698 439.932 238.518 430.801C216.257 398.329 200.784 360.838 194.143 320.374ZM239.381 432.053C263.422 466.711 295.225 495.576 332.276 516.133C321.372 536.3 300.036 550 275.5 550C239.878 550 211 521.122 211 485.5C211 463.261 222.255 443.65 239.381 432.053ZM333.151 516.616C337.226 518.858 341.364 520.999 345.561 523.036C331.333 535.901 313.547 544.904 293.856 548.393C310.802 543.456 324.909 531.855 333.151 516.616ZM357.906 528.655C354.069 527.022 350.277 525.305 346.532 523.505C333.29 535.57 316.965 544.309 298.876 548.401C320.052 545.48 339.98 538.647 357.906 528.655ZM401.094 494.328C388.709 507.985 374.127 519.613 357.906 528.655C358.294 528.82 358.683 528.985 359.072 529.148C342.659 538.396 324.56 545.004 305.351 548.396C327.744 545.974 349.329 540.859 369.777 533.382C370.259 533.561 370.741 533.739 371.225 533.915C341.408 544.964 309.159 551 275.5 551C123.346 551 0 427.654 0 275.5C0 123.346 123.346 0 275.5 0C309.159 0 341.408 6.03615 371.225 17.085C370.741 17.2614 370.259 17.439 369.777 17.618C349.329 10.1408 327.744 5.02606 305.351 2.60439C324.56 5.99641 342.659 12.6042 359.072 21.8519C358.683 22.0153 358.294 22.1797 357.906 22.3449C339.98 12.3529 320.052 5.51992 298.876 2.59879C316.965 6.69058 333.29 15.4295 346.532 27.4947C350.277 25.695 354.069 23.9776 357.906 22.3449C374.127 31.3866 388.709 43.015 401.094 56.6723C400.702 59.5589 400.5 62.5058 400.5 65.5C400.5 82.2041 406.801 97.4365 417.156 108.95C423.357 110.309 429.433 112.005 435.362 114.019C427.795 92.6009 416.045 73.1583 401.094 56.6723C401.153 56.2444 401.215 55.8179 401.281 55.3928C416.759 72.2962 428.874 92.3294 436.567 114.433C450.622 119.325 463.839 126.005 475.947 134.2C480.496 131.15 485.2 128.314 490.045 125.706C493.135 124.445 496.106 122.953 498.938 121.251C499.801 120.732 500.651 120.194 501.488 119.636C477.365 84.7271 445.363 55.68 408.05 35.066C408.207 34.7714 408.365 34.4781 408.526 34.1862C445.98 54.8769 478.104 84.0338 502.316 119.076C519.34 107.355 530.5 87.7309 530.5 65.5C530.5 29.6015 501.398 0.5 465.5 0.5C617.378 0.5 740.5 123.622 740.5 275.5C740.5 239.601 711.398 210.5 675.5 210.5C651.83 210.5 631.115 223.152 619.749 242.062C618.047 244.894 616.555 247.865 615.294 250.955C610.633 259.615 605.243 267.824 599.207 275.5C605.243 283.176 610.633 291.385 615.294 300.045C616.555 303.135 618.047 306.106 619.749 308.938C631.115 327.848 651.83 340.5 675.5 340.5C711.398 340.5 740.5 311.398 740.5 275.5C740.5 427.378 617.378 550.5 465.5 550.5C501.398 550.5 530.5 521.398 530.5 485.5C530.5 463.269 519.34 443.645 502.316 431.924C478.104 466.966 445.98 496.123 408.526 516.814C408.365 516.522 408.207 516.229 408.05 515.934C445.363 495.32 477.365 466.273 501.488 431.363C500.651 430.806 499.801 430.268 498.938 429.749C496.106 428.047 493.135 426.555 490.045 425.294C485.2 422.686 480.496 419.85 475.947 416.801C463.839 424.995 450.622 431.675 436.567 436.567C428.874 458.671 416.759 478.704 401.281 495.607C401.215 495.182 401.153 494.756 401.094 494.328ZM401.094 494.328C400.702 491.441 400.5 488.494 400.5 485.5C400.5 468.796 406.801 453.564 417.156 442.05C423.357 440.691 429.433 438.995 435.362 436.981C427.795 458.399 416.045 477.842 401.094 494.328ZM401.281 495.607C402.412 502.848 404.737 509.693 408.05 515.934C395.832 522.684 383.044 528.531 369.777 533.382C366.172 532.044 362.603 530.632 359.072 529.148C374.876 520.244 389.117 508.892 401.281 495.607ZM408.526 516.814C419.586 536.895 440.954 550.5 465.5 550.5C432.381 550.5 400.63 544.646 371.225 533.915C384.143 529.128 396.605 523.4 408.526 516.814ZM465.5 0.5C440.954 0.5 419.586 14.1054 408.526 34.1862C396.605 27.6003 384.143 21.8722 371.225 17.085C400.63 6.3545 432.381 0.5 465.5 0.5ZM408.05 35.066C395.832 28.3156 383.044 22.4695 369.777 17.618C366.172 18.9565 362.603 20.3684 359.072 21.8519C374.876 30.7562 389.117 42.1079 401.281 55.3928C402.412 48.1518 404.737 41.3069 408.05 35.066ZM432.062 429.749C427.002 432.79 422.39 436.501 418.349 440.758C424.284 439.405 430.101 437.74 435.781 435.781C436.864 432.641 437.857 429.459 438.757 426.239C436.451 427.281 434.216 428.454 432.062 429.749ZM465.5 409.207C457.824 415.243 449.615 420.633 440.955 425.294C440.615 425.433 440.276 425.574 439.939 425.719C439.046 428.973 438.059 432.188 436.981 435.362C450.548 430.569 463.322 424.097 475.054 416.197C471.786 413.976 468.6 411.644 465.5 409.207ZM475.054 134.803C463.322 126.903 450.548 120.431 436.981 115.638C438.059 118.812 439.046 122.027 439.939 125.281C440.276 125.426 440.615 125.567 440.955 125.706C449.615 130.367 457.824 135.757 465.5 141.793C468.6 139.356 471.786 137.024 475.054 134.803ZM438.757 124.761C436.451 123.719 434.216 122.546 432.062 121.251C427.002 118.21 422.39 114.499 418.349 110.242C424.284 111.595 430.101 113.26 435.781 115.219C436.864 118.359 437.857 121.541 438.757 124.761ZM345.561 27.9638C331.333 15.0991 313.547 6.09583 293.856 2.6068C310.802 7.54436 324.909 19.1454 333.151 34.3838C337.226 32.1424 341.364 30.0013 345.561 27.9638ZM332.276 34.8674C295.225 55.424 263.422 84.2891 239.381 118.947C222.255 107.35 211 87.7391 211 65.5C211 29.8776 239.878 1 275.5 1C300.036 1 321.372 14.6999 332.276 34.8674ZM537.899 226.643C530.781 213.21 520.82 201.514 508.817 192.359C491.37 179.052 469.61 171.112 445.999 171.001C445.932 194.359 441.168 216.613 432.601 236.867C444.516 220.58 463.772 210 485.5 210C515.303 210 540.456 229.904 548.393 257.144C546.473 246.309 542.883 236.05 537.899 226.643ZM275.5 141.158C269.43 136.407 263.031 132.059 256.341 128.153C262.401 130.004 268.835 131 275.5 131C282.165 131 288.599 130.004 294.659 128.153C287.969 132.059 281.57 136.407 275.5 141.158ZM430.191 242.297C428.793 245.303 427.311 248.261 425.747 251.169C422.686 258.677 421 266.891 421 275.5C421 284.109 422.687 292.324 425.747 299.831C427.311 302.739 428.794 305.697 430.191 308.703C441.473 327.456 462.022 340 485.5 340C521.122 340 550 311.122 550 275.5C550 239.878 521.122 211 485.5 211C462.022 211 441.473 223.544 430.191 242.297ZM409.842 275.5C414.593 269.43 418.941 263.031 422.847 256.341C420.996 262.401 420 268.835 420 275.5C420 282.165 420.996 288.599 422.847 294.659C418.941 287.969 414.593 281.57 409.842 275.5ZM275.5 409.842C281.57 414.593 287.969 418.941 294.659 422.847C288.599 420.996 282.165 420 275.5 420C268.835 420 262.401 420.996 256.341 422.847C263.031 418.941 269.43 414.593 275.5 409.842ZM171.001 445.999C194.359 445.932 216.613 441.168 236.867 432.601C220.58 444.516 210 463.772 210 485.5C210 515.303 229.904 540.456 257.144 548.393C208.342 539.746 171.241 497.228 171.001 445.999ZM170.001 445.999C170.233 496.011 205.263 537.801 252.124 548.401C188.654 539.646 136.402 495.75 115.638 436.981C132.706 442.778 150.988 445.945 170.001 445.999ZM105.001 380.999C105.055 400.012 108.222 418.294 114.019 435.362C55.2502 414.598 11.354 362.346 2.59879 298.876C13.1992 345.737 54.989 380.767 105.001 380.999ZM114.433 436.567C56.9157 416.547 13.4182 366.588 2.60439 305.351C16.4205 433.107 117.893 534.579 245.649 548.396C184.412 537.582 134.453 494.084 114.433 436.567ZM115.638 114.019C136.402 55.2502 188.654 11.354 252.124 2.59878C205.263 13.1992 170.233 54.989 170.001 105.001C150.988 105.055 132.706 108.222 115.638 114.019ZM236.867 118.399C216.613 109.832 194.359 105.068 171.001 105.001C171.241 53.7722 208.342 11.254 257.144 2.60679C229.904 10.5435 210 35.6973 210 65.5C210 87.2278 220.58 106.484 236.867 118.399ZM65.5 341C35.6973 341 10.5435 321.096 2.6068 293.856C11.254 342.658 53.7722 379.759 105.001 379.999C105.068 356.641 109.832 334.387 118.399 314.133C106.484 330.42 87.2278 341 65.5 341ZM65.5 340C88.9779 340 109.527 327.456 120.809 308.703C122.206 305.697 123.689 302.739 125.253 299.831C128.313 292.324 130 284.109 130 275.5C130 266.891 128.313 258.676 125.253 251.169C123.689 248.261 122.206 245.303 120.809 242.297C109.527 223.544 88.9779 211 65.5 211C29.8776 211 1 239.878 1 275.5C1 311.122 29.8776 340 65.5 340ZM141.158 275.5C136.407 281.57 132.059 287.969 128.153 294.659C130.004 288.599 131 282.165 131 275.5C131 268.835 130.004 262.401 128.153 256.341C132.059 263.031 136.407 269.43 141.158 275.5Z" fill="#777467"/>
</svg>
