<svg width="789" height="559" viewBox="0 0 789 559" fill="none" xmlns="http://www.w3.org/2000/svg">
<path fill-rule="evenodd" clip-rule="evenodd" d="M299.25 214C269.447 214 244.294 233.904 236.357 261.144C243.383 221.492 272.77 189.564 311.021 178.857C319.848 176.387 329.146 175.046 338.751 175.001C338.77 181.766 339.184 188.438 339.969 194.995C335.571 198.137 330.92 200.949 326.053 203.392C329.353 209.971 332.238 216.794 334.674 223.826C339.074 225.35 343.391 227.05 347.618 228.917C348.983 232.971 350.495 236.956 352.149 240.867C340.234 224.58 320.978 214 299.25 214ZM348.863 229.473C348.449 229.286 348.034 229.101 347.618 228.917C343.964 218.057 341.373 206.709 339.969 194.995C340.28 194.774 340.589 194.55 340.897 194.325C342.313 206.48 345.015 218.243 348.863 229.473ZM440.228 228.549C437.76 229.643 435.323 230.794 432.918 232C418.594 239.183 405.423 248.325 393.755 259.075C387.188 265.125 381.097 271.685 375.545 278.691C369.69 271.188 364.452 263.179 359.909 254.742C358.644 251.645 357.148 248.666 355.444 245.828C352.978 240.519 350.779 235.062 348.863 229.473C350.968 230.423 353.05 231.414 355.108 232.447C372.362 198.083 407.927 174.5 449 174.5C449 193.395 445.917 211.57 440.228 228.549ZM439.789 229.84C439.937 229.41 440.083 228.98 440.228 228.549C444.458 226.674 448.78 224.966 453.183 223.433C455.61 216.461 458.476 209.695 461.75 203.168C471.054 184.616 483.643 167.997 498.755 154.075C501.879 151.197 505.109 148.435 508.441 145.795C500.938 139.94 492.929 134.702 484.492 130.159C481.395 128.894 478.416 127.398 475.578 125.694C463.624 120.141 450.915 115.94 437.647 113.289C426.85 111.132 415.682 110 404.25 110C397.393 110 390.631 110.407 383.987 111.199C383.992 110.863 383.996 110.527 383.998 110.19C390.478 109.423 397.069 109.02 403.751 109.001C403.818 94.6727 406.74 81.0194 411.979 68.5811C425.026 37.6039 452.438 14.1622 485.874 6.59878C450.868 11.4277 419.274 26.9463 394.493 49.7542C375.73 67.0235 360.874 88.4718 351.399 112.623C351.011 112.698 350.623 112.775 350.236 112.853C359.745 88.3431 374.757 66.578 393.755 49.0746C417.187 27.4868 446.684 12.3815 479.399 6.60439C443.634 10.4721 409.929 21.2094 379.631 37.4698C366.927 44.2878 354.822 52.0767 343.414 60.7375C343.363 60.3593 343.309 59.9821 343.252 59.606C354.444 51.1435 366.303 43.5159 378.736 36.8157C417.582 15.8806 462.028 4 509.25 4C661.404 4 784.75 127.346 784.75 279.5C784.75 431.654 661.404 555 509.25 555C462.028 555 417.582 543.119 378.736 522.184C366.303 515.484 354.444 507.856 343.252 499.394C343.309 499.018 343.363 498.641 343.414 498.263C354.822 506.923 366.927 514.712 379.631 521.53C409.929 537.791 443.634 548.528 479.399 552.396C446.684 546.619 417.187 531.513 393.755 509.925C374.757 492.422 359.745 470.657 350.236 446.147C350.623 446.225 351.011 446.302 351.399 446.377C360.874 470.528 375.73 491.977 394.493 509.246C419.274 532.054 450.868 547.572 485.874 552.401C452.438 544.838 425.026 521.396 411.979 490.419C406.74 477.981 403.818 464.327 403.751 449.999C397.069 449.98 390.478 449.577 383.998 448.81C383.996 448.473 383.992 448.137 383.987 447.801C390.631 448.593 397.393 449 404.25 449C415.682 449 426.85 447.868 437.647 445.711C450.915 443.06 463.624 438.859 475.578 433.306C478.416 431.602 481.395 430.106 484.492 428.841C492.929 424.298 500.938 419.06 508.441 413.205C505.109 410.565 501.879 407.803 498.755 404.925C483.643 391.003 471.054 374.384 461.75 355.832C458.476 349.305 455.61 342.539 453.183 335.567C448.78 334.034 444.458 332.326 440.228 330.451C440.083 330.02 439.937 329.59 439.789 329.16C444.337 331.205 448.99 333.056 453.74 334.702L453.969 334.781L454.048 335.01C456.477 342.022 459.354 348.824 462.643 355.383C471.905 373.852 484.443 390.393 499.494 404.246C502.638 407.14 505.893 409.917 509.25 412.57C528.675 397.221 544.659 377.71 555.857 355.383C559.146 348.824 562.022 342.022 564.452 335.01L564.531 334.781L564.76 334.702C571.772 332.272 578.574 329.396 585.133 326.107C607.46 314.909 626.971 298.925 642.32 279.5C626.971 260.075 607.46 244.091 585.133 232.893C578.574 229.604 571.772 226.727 564.76 224.298L564.531 224.219L564.452 223.99C562.022 216.978 559.146 210.176 555.857 203.617C544.659 181.29 528.675 161.779 509.25 146.43C505.893 149.083 502.638 151.86 499.494 154.754C484.443 168.607 471.905 185.148 462.643 203.617C459.354 210.176 456.477 216.978 454.048 223.99L453.969 224.219L453.74 224.298C448.99 225.944 444.337 227.795 439.789 229.84ZM433.249 246.062C435.696 240.796 437.882 235.383 439.789 229.84C437.624 230.814 435.483 231.832 433.367 232.893C419.152 240.022 406.078 249.092 394.494 259.754C394.403 259.67 394.312 259.586 394.221 259.502C394.22 259.501 394.219 259.5 394.217 259.499C394.309 259.584 394.402 259.669 394.494 259.754C387.883 265.839 381.757 272.442 376.18 279.5C381.757 286.558 387.883 293.161 394.494 299.246C406.078 309.908 419.152 318.978 433.367 326.107C435.483 327.168 437.624 328.186 439.789 329.16C437.882 323.617 435.696 318.204 433.249 312.938C444.615 331.848 465.33 344.5 489 344.5C524.898 344.5 554 315.398 554 279.5C554 243.601 524.898 214.5 489 214.5C465.33 214.5 444.615 227.152 433.249 246.062ZM428.794 254.955C430.055 251.865 431.547 248.894 433.249 246.062C431.848 249.076 430.362 252.041 428.794 254.955ZM428.794 304.045C430.362 306.959 431.848 309.924 433.249 312.938C431.547 310.106 430.055 307.135 428.794 304.045ZM348.863 329.527C350.968 328.577 353.05 327.586 355.108 326.553C372.362 360.917 407.927 384.5 449 384.5C449 365.605 445.917 347.43 440.228 330.451C437.76 329.357 435.323 328.206 432.918 327C418.594 319.817 405.423 310.675 393.755 299.925C387.188 293.875 381.097 287.315 375.545 280.309C369.69 287.812 364.452 295.821 359.909 304.258C358.644 307.355 357.148 310.334 355.444 313.172C352.978 318.481 350.779 323.938 348.863 329.527ZM347.618 330.083C347.747 330.026 347.876 329.969 348.005 329.912C348.291 329.784 348.577 329.656 348.863 329.527C345.015 340.757 342.313 352.52 340.897 364.675C340.589 364.45 340.28 364.226 339.969 364.005C341.345 352.524 343.861 341.393 347.402 330.73C347.474 330.514 347.546 330.298 347.618 330.083ZM347.618 330.083C343.391 331.95 339.074 333.65 334.674 335.174C332.238 342.206 329.353 349.029 326.053 355.608C326.791 355.978 327.523 356.356 328.25 356.743C332.323 358.91 336.237 361.338 339.969 364.005C339.184 370.562 338.77 377.234 338.751 383.999C329.146 383.954 319.848 382.613 311.021 380.143C272.77 369.436 243.383 337.508 236.357 297.856C244.294 325.096 269.447 345 299.25 345C320.978 345 340.234 334.42 352.149 318.133C350.495 322.044 348.983 326.029 347.618 330.083ZM340.897 364.675C366.601 383.464 383.445 413.653 383.987 447.801C371.876 446.359 360.157 443.639 348.969 439.781C342.995 422.455 339.75 403.857 339.75 384.5C339.75 377.793 340.139 371.178 340.897 364.675ZM383.998 448.81C372.038 447.394 360.458 444.741 349.388 440.981C350.029 442.794 350.699 444.593 351.399 446.377C361.95 448.427 372.85 449.5 384 449.5C384 449.27 383.999 449.04 383.998 448.81ZM312.438 433.749C331.348 445.115 344 465.83 344 489.5C344 492.472 343.801 495.397 343.414 498.263C314.801 476.538 290.581 449.329 272.319 418.201C268.264 411.291 264.504 404.187 261.054 396.907C248.236 369.858 239.71 340.38 236.354 309.351C242.981 346.875 261.879 380.165 288.755 404.925C305.74 420.573 325.91 432.815 348.183 440.567C348.836 442.442 349.52 444.302 350.236 446.147C337.017 443.483 324.353 439.286 312.438 433.749ZM303.545 429.294C306.635 430.555 309.606 432.047 312.438 433.749C309.424 432.348 306.459 430.862 303.545 429.294ZM245.562 433.749C226.652 445.115 214 465.83 214 489.5C214 525.398 243.101 554.5 279 554.5C311.535 554.5 338.487 530.597 343.252 499.394C314.365 477.553 289.916 450.151 271.499 418.78C266.899 410.946 262.676 402.864 258.854 394.56C242.738 359.545 233.75 320.572 233.75 279.5C233.75 238.428 242.738 199.455 258.854 164.44C262.676 156.136 266.899 148.054 271.499 140.22C289.916 108.849 314.365 81.4473 343.252 59.606C338.487 28.4032 311.535 4.5 279 4.5C243.101 4.5 214 33.6015 214 69.5C214 93.1701 226.652 113.885 245.562 125.251C223.811 115.143 199.565 109.5 174 109.5C174 150.573 197.583 186.138 231.947 203.392C228.647 209.971 225.762 216.794 223.326 223.826C216.294 226.262 209.471 229.147 202.892 232.447C185.638 198.083 150.073 174.5 109 174.5C109 200.065 114.643 224.311 124.751 246.062C113.385 227.152 92.6701 214.5 69 214.5C33.1015 214.5 4 243.601 4 279.5C4 315.398 33.1015 344.5 69 344.5C92.6701 344.5 113.385 331.848 124.751 312.938C114.643 334.689 109 358.935 109 384.5C150.073 384.5 185.638 360.917 202.892 326.553C209.471 329.853 216.294 332.738 223.326 335.174C225.762 342.206 228.647 349.029 231.947 355.608C197.583 372.862 174 408.427 174 449.5C199.565 449.5 223.811 443.857 245.562 433.749ZM254.455 429.294C251.541 430.862 248.576 432.348 245.562 433.749C248.394 432.047 251.365 430.555 254.455 429.294ZM129.206 304.045C127.945 307.135 126.453 310.106 124.751 312.938C126.152 309.924 127.638 306.959 129.206 304.045ZM129.206 254.955C127.638 252.041 126.152 249.076 124.751 246.062C126.453 248.894 127.945 251.865 129.206 254.955ZM254.455 129.706C251.365 128.445 248.394 126.953 245.562 125.251C248.576 126.652 251.541 128.138 254.455 129.706ZM312.438 125.251C324.353 119.714 337.017 115.517 350.236 112.853C349.52 114.698 348.836 116.558 348.183 118.433C325.91 126.185 305.74 138.427 288.755 154.075C261.879 178.835 242.981 212.125 236.354 249.649C239.71 218.62 248.236 189.142 261.054 162.093C264.504 154.813 268.264 147.709 272.319 140.799C290.581 109.671 314.801 82.4617 343.414 60.7375C343.801 63.6033 344 66.5284 344 69.5C344 93.1701 331.348 113.885 312.438 125.251ZM303.545 129.706C306.459 128.138 309.424 126.652 312.438 125.251C309.606 126.953 306.635 128.445 303.545 129.706ZM351.399 112.623C350.699 114.407 350.029 116.206 349.388 118.019C360.458 114.259 372.038 111.606 383.998 110.19C383.999 109.96 384 109.73 384 109.5C372.85 109.5 361.95 110.573 351.399 112.623ZM383.987 111.199C383.445 145.347 366.601 175.536 340.897 194.325C340.139 187.822 339.75 181.207 339.75 174.5C339.75 155.143 342.995 136.545 348.969 119.219C360.157 115.361 371.876 112.641 383.987 111.199ZM338.751 174.001C328.92 174.047 319.406 175.437 310.385 177.997C273.514 188.462 244.865 218.475 236.349 256.124C241.853 216.221 261.247 180.752 289.493 154.754C306.176 139.399 325.947 127.348 347.769 119.638C341.972 136.706 338.805 154.988 338.751 174.001ZM347.769 439.362C325.947 431.652 306.176 419.601 289.493 404.246C261.247 378.248 241.853 342.779 236.349 302.876C244.865 340.525 273.514 370.538 310.385 381.003C319.406 383.563 328.92 384.953 338.751 384.999C338.805 404.012 341.972 422.294 347.769 439.362ZM289.171 404.544C289.235 404.485 289.299 404.426 289.363 404.366L289.493 404.246C289.386 404.345 289.278 404.445 289.171 404.544ZM289.171 404.544C289.131 404.581 289.091 404.617 289.052 404.654C289.081 404.626 289.111 404.599 289.141 404.572L289.171 404.544ZM490.894 552.393C455.425 546.108 426.136 521.932 412.689 489.523C407.633 477.341 404.817 463.995 404.751 449.999C415.854 449.967 426.708 448.874 437.216 446.815C448.814 444.543 459.991 441.095 470.617 436.601C454.33 448.516 443.75 467.772 443.75 489.5C443.75 519.303 463.654 544.456 490.894 552.393ZM470.617 122.399C459.991 117.905 448.814 114.457 437.216 112.185C426.708 110.126 415.854 109.033 404.751 109.001C404.817 95.005 407.633 81.6594 412.689 69.477C426.136 37.0682 455.425 12.8916 490.894 6.60679C463.654 14.5435 443.75 39.6973 443.75 69.5C443.75 91.2278 454.33 110.484 470.617 122.399ZM476.047 124.809C479.053 126.206 482.011 127.689 484.919 129.253C492.426 132.313 500.641 134 509.25 134C517.859 134 526.074 132.313 533.581 129.253C536.489 127.689 539.447 126.206 542.453 124.809C561.206 113.527 573.75 92.9779 573.75 69.5C573.75 33.8776 544.872 5 509.25 5C473.628 5 444.75 33.8776 444.75 69.5C444.75 92.9779 457.294 113.527 476.047 124.809ZM509.25 145.158C503.18 140.407 496.781 136.059 490.091 132.153C496.151 134.004 502.585 135 509.25 135C515.915 135 522.349 134.004 528.409 132.153C521.719 136.059 515.32 140.407 509.25 145.158ZM510.059 145.795C517.562 139.94 525.571 134.702 534.008 130.159C537.105 128.894 540.084 127.398 542.922 125.694C564.602 115.622 588.769 110 614.25 110C633.607 110 652.205 113.245 669.531 119.219C675.505 136.545 678.75 155.143 678.75 174.5C678.75 199.981 673.128 224.147 663.057 245.828C661.352 248.666 659.856 251.645 658.591 254.742C654.048 263.179 648.81 271.188 642.955 278.691C627.539 259.237 607.968 243.227 585.582 232C579.055 228.726 572.289 225.86 565.317 223.433C562.89 216.461 560.024 209.695 556.75 203.168C545.523 180.782 529.513 161.211 510.059 145.795ZM613.749 109.001C590.391 109.068 568.137 113.832 547.883 122.399C564.17 110.484 574.75 91.2278 574.75 69.5C574.75 39.6973 554.846 14.5435 527.606 6.6068C576.408 15.254 613.509 57.7722 613.749 109.001ZM614.749 109.001C614.517 58.989 579.487 17.1992 532.626 6.59879C596.096 15.354 648.348 59.2502 669.112 118.019C652.044 112.222 633.762 109.055 614.749 109.001ZM679.749 174.001C679.695 154.988 676.528 136.706 670.731 119.638C729.5 140.402 773.396 192.654 782.151 256.124C771.551 209.263 729.761 174.233 679.749 174.001ZM679.749 175.001C730.978 175.241 773.496 212.342 782.143 261.144C774.206 233.904 749.053 214 719.25 214C697.522 214 678.266 224.58 666.351 240.867C674.918 220.613 679.682 198.359 679.749 175.001ZM663.941 246.297C662.543 249.303 661.061 252.261 659.497 255.169C656.436 262.677 654.75 270.891 654.75 279.5C654.75 288.109 656.437 296.324 659.497 303.831C661.061 306.739 662.544 309.697 663.941 312.703C675.223 331.456 695.772 344 719.25 344C754.872 344 783.75 315.122 783.75 279.5C783.75 243.878 754.872 215 719.25 215C695.772 215 675.223 227.544 663.941 246.297ZM643.592 279.5C648.343 273.43 652.691 267.031 656.597 260.341C654.746 266.401 653.75 272.835 653.75 279.5C653.75 286.165 654.746 292.599 656.597 298.659C652.691 291.969 648.343 285.57 643.592 279.5ZM642.955 280.309C648.81 287.812 654.048 295.821 658.591 304.258C659.86 307.364 661.36 310.35 663.07 313.195C674.523 332.25 695.397 345 719.25 345C749.053 345 774.206 325.096 782.143 297.856C773.468 346.816 730.701 384 679.25 384H678.75V384.5C678.75 403.857 675.505 422.455 669.531 439.781C652.205 445.755 633.607 449 614.25 449C588.769 449 564.603 443.378 542.922 433.306C540.084 431.602 537.105 430.106 534.008 428.841C525.571 424.298 517.562 419.06 510.059 413.205C529.513 397.789 545.523 378.218 556.75 355.832C560.024 349.305 562.89 342.539 565.317 335.567C572.289 333.14 579.055 330.274 585.582 327C607.968 315.773 627.539 299.763 642.955 280.309ZM679.749 384.999C729.761 384.767 771.551 349.737 782.151 302.876C773.396 366.346 729.5 418.598 670.731 439.362C676.528 422.294 679.695 404.012 679.749 384.999ZM614.749 449.999C633.762 449.945 652.044 446.778 669.112 440.981C648.348 499.75 596.096 543.646 532.626 552.401C579.487 541.801 614.517 500.011 614.749 449.999ZM613.749 449.999C613.509 501.228 576.408 543.746 527.606 552.393C554.846 544.456 574.75 519.303 574.75 489.5C574.75 467.772 564.17 448.516 547.883 436.601C568.137 445.168 590.391 449.932 613.749 449.999ZM542.453 434.191C539.447 432.793 536.489 431.311 533.581 429.747C526.074 426.686 517.859 425 509.25 425C500.641 425 492.426 426.686 484.919 429.747C482.011 431.311 479.053 432.793 476.047 434.191C457.294 445.473 444.75 466.022 444.75 489.5C444.75 525.122 473.628 554 509.25 554C544.872 554 573.75 525.122 573.75 489.5C573.75 466.022 561.206 445.473 542.453 434.191ZM509.25 413.842C515.32 418.593 521.719 422.941 528.409 426.847C522.349 424.996 515.915 424 509.25 424C502.585 424 496.151 424.996 490.091 426.847C496.781 422.941 503.18 418.593 509.25 413.842ZM670.317 440.567C650.297 498.084 600.339 541.582 539.101 552.396C666.857 538.579 768.329 437.107 782.146 309.351C771.332 370.588 727.834 420.547 670.317 440.567ZM670.317 118.433C727.834 138.453 771.332 188.412 782.146 249.649C768.329 121.893 666.857 20.4205 539.101 6.60439C600.339 17.4182 650.297 60.9157 670.317 118.433ZM299.25 344C322.728 344 343.277 331.456 354.559 312.703C355.956 309.697 357.439 306.739 359.003 303.831C362.063 296.324 363.75 288.109 363.75 279.5C363.75 270.891 362.063 262.676 359.003 255.169C357.439 252.261 355.956 249.303 354.559 246.297C343.277 227.544 322.728 215 299.25 215C263.628 215 234.75 243.878 234.75 279.5C234.75 315.122 263.628 344 299.25 344ZM374.908 279.5C370.157 285.57 365.809 291.969 361.903 298.659C363.754 292.599 364.75 286.165 364.75 279.5C364.75 272.835 363.754 266.401 361.903 260.341C365.809 267.031 370.157 273.43 374.908 279.5Z" fill="#777467"/>
<path d="M236.357 261.144L232.418 260.447L240.197 262.263L236.357 261.144ZM311.021 178.857L312.1 182.709L312.1 182.709L311.021 178.857ZM338.751 175.001L342.751 174.99L342.739 170.982L338.732 171.001L338.751 175.001ZM326.053 203.392L324.259 199.818L320.686 201.612L322.478 205.186L326.053 203.392ZM334.674 223.826L330.894 225.135L331.53 226.97L333.365 227.606L334.674 223.826ZM352.149 240.867L348.921 243.229L355.833 239.309L352.149 240.867ZM432.918 232L431.125 228.424L431.125 228.424L432.918 232ZM393.755 259.075L391.045 256.133L391.045 256.133L393.755 259.075ZM375.545 278.691L372.391 281.152L375.521 285.162L378.68 281.175L375.545 278.691ZM359.909 254.742L356.206 256.255L356.286 256.451L356.387 256.638L359.909 254.742ZM355.444 245.828L351.816 247.513L351.905 247.705L352.014 247.887L355.444 245.828ZM355.108 232.447L353.314 236.022L356.888 237.814L358.682 234.241L355.108 232.447ZM449 174.5H453V170.5H449V174.5ZM453.183 223.433L454.498 227.211L456.325 226.575L456.961 224.748L453.183 223.433ZM461.75 203.168L458.174 201.375L458.174 201.375L461.75 203.168ZM498.755 154.075L496.045 151.133L496.045 151.133L498.755 154.075ZM508.441 145.795L510.925 148.93L514.912 145.771L510.902 142.641L508.441 145.795ZM484.492 130.159L486.388 126.637L486.201 126.537L486.005 126.456L484.492 130.159ZM475.578 125.694L477.637 122.264L477.455 122.155L477.263 122.066L475.578 125.694ZM437.647 113.289L438.431 109.367L438.431 109.367L437.647 113.289ZM403.751 109.001L403.763 113.001L407.733 112.989L407.751 109.019L403.751 109.001ZM411.979 68.5811L415.665 70.1338L415.665 70.1338L411.979 68.5811ZM485.874 6.59878L486.756 10.5002L485.327 2.63631L485.874 6.59878ZM394.493 49.7542L397.202 52.6973L397.202 52.6973L394.493 49.7542ZM393.755 49.0746L396.466 52.0164L396.466 52.0164L393.755 49.0746ZM479.399 6.60439L480.094 10.5434L478.969 2.62757L479.399 6.60439ZM379.631 37.4698L381.522 40.9943L381.522 40.9943L379.631 37.4698ZM378.736 36.8157L380.633 40.3369L380.633 40.3369L378.736 36.8157ZM378.736 522.184L380.633 518.663L380.633 518.663L378.736 522.184ZM379.631 521.53L381.522 518.006L381.522 518.006L379.631 521.53ZM479.399 552.396L478.969 556.372L480.094 548.457L479.399 552.396ZM393.755 509.925L391.045 512.867L391.045 512.867L393.755 509.925ZM394.493 509.246L397.202 506.303L397.202 506.303L394.493 509.246ZM485.874 552.401L485.327 556.364L486.756 548.5L485.874 552.401ZM411.979 490.419L415.665 488.866L415.665 488.866L411.979 490.419ZM403.751 449.999L407.751 449.981L407.733 446.011L403.763 445.999L403.751 449.999ZM437.647 445.711L436.863 441.788L436.863 441.788L437.647 445.711ZM475.578 433.306L477.263 436.934L477.455 436.845L477.637 436.736L475.578 433.306ZM484.492 428.841L486.004 432.544L486.201 432.464L486.388 432.363L484.492 428.841ZM508.441 413.205L510.902 416.359L514.912 413.229L510.925 410.07L508.441 413.205ZM498.755 404.925L496.045 407.867L496.045 407.867L498.755 404.925ZM461.75 355.832L458.174 357.625L458.174 357.625L461.75 355.832ZM453.183 335.567L456.961 334.252L456.325 332.425L454.498 331.789L453.183 335.567ZM453.74 334.702L452.43 338.481L452.43 338.481L453.74 334.702ZM453.969 334.781L457.749 333.472L457.113 331.637L455.278 331.001L453.969 334.781ZM454.048 335.01L450.269 336.32L450.269 336.32L454.048 335.01ZM462.643 355.383L466.219 353.59L466.219 353.59L462.643 355.383ZM499.494 404.246L496.785 407.189L496.785 407.189L499.494 404.246ZM509.25 412.57L506.77 415.708L509.25 417.668L511.73 415.708L509.25 412.57ZM555.857 355.383L559.432 357.177L559.432 357.177L555.857 355.383ZM564.452 335.01L568.231 336.32L568.231 336.319L564.452 335.01ZM564.531 334.781L563.222 331.001L561.387 331.637L560.751 333.472L564.531 334.781ZM564.76 334.702L566.069 338.481L566.07 338.481L564.76 334.702ZM585.133 326.107L586.927 329.682L586.927 329.682L585.133 326.107ZM642.32 279.5L645.458 281.98L647.418 279.5L645.458 277.02L642.32 279.5ZM585.133 232.893L583.34 236.469L583.34 236.469L585.133 232.893ZM564.76 224.298L566.07 220.519L566.069 220.519L564.76 224.298ZM564.531 224.219L560.751 225.528L561.387 227.363L563.222 227.999L564.531 224.219ZM564.452 223.99L568.231 222.681L568.231 222.68L564.452 223.99ZM555.857 203.617L559.432 201.823L559.432 201.823L555.857 203.617ZM509.25 146.43L511.73 143.292L509.25 141.332L506.77 143.292L509.25 146.43ZM499.494 154.754L496.785 151.811L496.785 151.811L499.494 154.754ZM462.643 203.617L466.219 205.41L466.219 205.41L462.643 203.617ZM454.048 223.99L450.269 222.68L450.269 222.68L454.048 223.99ZM453.969 224.219L455.278 227.999L457.113 227.363L457.749 225.528L453.969 224.219ZM453.74 224.298L452.43 220.519L452.43 220.519L453.74 224.298ZM433.367 232.893L431.573 229.318L431.573 229.318L433.367 232.893ZM394.494 259.754L397.202 262.697L397.202 262.697L394.494 259.754ZM394.221 259.502L391.497 262.431L391.503 262.437L391.509 262.443L394.221 259.502ZM394.217 259.499L396.929 256.559L391.493 262.428L394.217 259.499ZM376.18 279.5L373.042 277.02L371.082 279.5L373.042 281.98L376.18 279.5ZM394.494 299.246L397.202 296.303L397.202 296.303L394.494 299.246ZM433.367 326.107L435.16 322.531L435.16 322.531L433.367 326.107ZM428.794 254.955L425.09 253.444L432.316 256.851L428.794 254.955ZM428.794 304.045L432.316 302.149L425.09 305.556L428.794 304.045ZM355.108 326.553L358.682 324.759L356.888 321.186L353.314 322.978L355.108 326.553ZM449 384.5V388.5H453V384.5H449ZM432.918 327L434.711 323.425L434.711 323.425L432.918 327ZM393.755 299.925L391.045 302.867L391.045 302.867L393.755 299.925ZM375.545 280.309L378.68 277.825L375.521 273.838L372.391 277.848L375.545 280.309ZM359.909 304.258L356.387 302.362L356.287 302.549L356.206 302.745L359.909 304.258ZM355.444 313.172L352.014 311.113L351.905 311.295L351.816 311.487L355.444 313.172ZM348.005 329.912L346.379 326.257L346.379 326.257L348.005 329.912ZM347.402 330.73L343.606 329.47L343.606 329.47L347.402 330.73ZM334.674 335.174L333.365 331.394L331.53 332.03L330.894 333.865L334.674 335.174ZM326.053 355.608L322.478 353.814L320.686 357.388L324.259 359.182L326.053 355.608ZM328.25 356.743L326.371 360.274L326.371 360.274L328.25 356.743ZM338.751 383.999L338.732 387.999L342.739 388.018L342.751 384.01L338.751 383.999ZM311.021 380.143L309.943 383.995L309.943 383.995L311.021 380.143ZM236.357 297.856L240.197 296.737L232.418 298.553L236.357 297.856ZM352.149 318.133L355.833 319.691L348.921 315.771L352.149 318.133ZM348.969 439.781L345.188 441.085L345.823 442.927L347.665 443.562L348.969 439.781ZM349.388 440.981L350.674 437.194L342.871 434.543L345.617 442.314L349.388 440.981ZM384 449.5V453.5H388V449.5H384ZM272.319 418.201L268.869 420.225L268.869 420.225L272.319 418.201ZM261.054 396.907L257.439 398.62L257.439 398.62L261.054 396.907ZM236.354 309.351L240.293 308.656L232.378 309.781L236.354 309.351ZM288.755 404.925L286.045 407.867L286.045 407.867L288.755 404.925ZM348.183 440.567L351.961 439.252L351.325 437.425L349.498 436.789L348.183 440.567ZM303.545 429.294L305.056 425.59L301.649 432.816L303.545 429.294ZM271.499 418.78L274.948 416.755L274.948 416.755L271.499 418.78ZM258.854 394.56L255.22 396.232L255.22 396.232L258.854 394.56ZM258.854 164.44L255.22 162.768L255.22 162.768L258.854 164.44ZM271.499 140.22L274.948 142.245L274.948 142.245L271.499 140.22ZM174 109.5V105.5H170V109.5H174ZM231.947 203.392L235.522 205.186L237.314 201.612L233.741 199.818L231.947 203.392ZM223.326 223.826L224.635 227.606L226.47 226.97L227.106 225.135L223.326 223.826ZM202.892 232.447L199.318 234.241L201.112 237.814L204.686 236.022L202.892 232.447ZM109 174.5V170.5H105V174.5H109ZM109 384.5H105V388.5H109V384.5ZM202.892 326.553L204.686 322.978L201.112 321.186L199.318 324.759L202.892 326.553ZM223.326 335.174L227.106 333.865L226.47 332.03L224.635 331.394L223.326 335.174ZM231.947 355.608L233.741 359.182L237.314 357.388L235.522 353.814L231.947 355.608ZM174 449.5H170V453.5H174V449.5ZM254.455 429.294L256.351 432.816L252.944 425.59L254.455 429.294ZM129.206 304.045L132.91 305.556L125.684 302.149L129.206 304.045ZM129.206 254.955L125.684 256.851L132.91 253.444L129.206 254.955ZM254.455 129.706L252.944 133.41L256.351 126.184L254.455 129.706ZM348.183 118.433L349.498 122.211L351.325 121.575L351.961 119.748L348.183 118.433ZM288.755 154.075L286.045 151.133L286.045 151.133L288.755 154.075ZM236.354 249.649L232.378 249.219L240.293 250.344L236.354 249.649ZM261.054 162.093L257.439 160.38L257.439 160.38L261.054 162.093ZM272.319 140.799L275.769 142.823L275.769 142.823L272.319 140.799ZM303.545 129.706L301.649 126.184L305.056 133.41L303.545 129.706ZM349.388 118.019L345.617 116.686L342.871 124.457L350.674 121.806L349.388 118.019ZM384 109.5H388V105.5H384V109.5ZM348.969 119.219L347.665 115.438L345.823 116.073L345.188 117.915L348.969 119.219ZM310.385 177.997L311.477 181.846L311.477 181.846L310.385 177.997ZM338.751 174.001L338.769 178.001L342.739 177.983L342.751 174.013L338.751 174.001ZM236.349 256.124L232.386 255.577L240.25 257.006L236.349 256.124ZM289.493 154.754L292.202 157.697L292.202 157.697L289.493 154.754ZM347.769 119.638L351.556 120.924L354.207 113.121L346.436 115.867L347.769 119.638ZM289.493 404.246L292.202 401.303L292.202 401.303L289.493 404.246ZM347.769 439.362L346.436 443.133L354.207 445.879L351.556 438.076L347.769 439.362ZM236.349 302.876L240.25 301.994L232.386 303.423L236.349 302.876ZM310.385 381.003L311.477 377.154L311.477 377.154L310.385 381.003ZM338.751 384.999L342.751 384.987L342.739 381.017L338.769 380.999L338.751 384.999ZM289.363 404.366L292.078 407.304L292.079 407.303L289.363 404.366ZM289.052 404.654L286.344 401.71L291.759 407.598L289.052 404.654ZM289.141 404.572L291.85 407.514L291.852 407.513L289.141 404.572ZM412.689 489.523L416.383 487.99L416.383 487.99L412.689 489.523ZM490.894 552.393L490.197 556.332L492.013 548.553L490.894 552.393ZM404.751 449.999L404.74 445.999L400.732 446.011L400.751 450.018L404.751 449.999ZM437.216 446.815L436.447 442.89L436.447 442.89L437.216 446.815ZM470.617 436.601L472.979 439.829L469.059 432.917L470.617 436.601ZM437.216 112.185L437.985 108.259L437.985 108.259L437.216 112.185ZM470.617 122.399L469.059 126.083L472.979 119.171L470.617 122.399ZM404.751 109.001L400.751 108.982L400.732 112.989L404.74 113.001L404.751 109.001ZM412.689 69.477L408.994 67.9439L408.994 67.9439L412.689 69.477ZM490.894 6.60679L492.013 10.4471L490.197 2.66814L490.894 6.60679ZM484.919 129.253L483.024 132.776L483.211 132.877L483.409 132.957L484.919 129.253ZM476.047 124.809L473.985 128.237L474.168 128.346L474.361 128.436L476.047 124.809ZM533.581 129.253L535.091 132.957L535.289 132.877L535.477 132.776L533.581 129.253ZM542.453 124.809L544.139 128.436L544.332 128.346L544.515 128.237L542.453 124.809ZM490.091 132.153L491.259 128.328L488.074 135.608L490.091 132.153ZM509.25 145.158L506.785 148.308L509.25 150.237L511.715 148.308L509.25 145.158ZM528.409 132.153L530.426 135.608L527.241 128.328L528.409 132.153ZM534.008 130.159L532.495 126.456L532.299 126.537L532.112 126.637L534.008 130.159ZM510.059 145.795L507.598 142.641L503.588 145.771L507.575 148.93L510.059 145.795ZM542.922 125.694L541.237 122.066L541.045 122.155L540.863 122.264L542.922 125.694ZM669.531 119.219L673.312 117.915L672.677 116.073L670.835 115.438L669.531 119.219ZM663.057 245.828L666.486 247.887L666.595 247.705L666.684 247.513L663.057 245.828ZM658.591 254.742L662.113 256.638L662.214 256.451L662.294 256.255L658.591 254.742ZM642.955 278.691L639.82 281.175L642.979 285.162L646.109 281.152L642.955 278.691ZM585.582 232L587.375 228.424L587.375 228.424L585.582 232ZM565.317 223.433L561.539 224.748L562.175 226.575L564.002 227.211L565.317 223.433ZM556.75 203.168L553.175 204.961L553.175 204.961L556.75 203.168ZM547.883 122.399L545.521 119.171L549.441 126.083L547.883 122.399ZM613.749 109.001L613.76 113.001L617.768 112.989L617.749 108.982L613.749 109.001ZM527.606 6.6068L528.303 2.66815L526.487 10.4471L527.606 6.6068ZM532.626 6.59879L533.173 2.63631L531.744 10.5002L532.626 6.59879ZM614.749 109.001L610.749 109.019L610.767 112.989L614.737 113.001L614.749 109.001ZM669.112 118.019L667.826 121.806L675.629 124.457L672.883 116.686L669.112 118.019ZM670.731 119.638L672.064 115.867L664.293 113.121L666.944 120.924L670.731 119.638ZM679.749 174.001L675.749 174.013L675.761 177.983L679.731 178.001L679.749 174.001ZM782.151 256.124L778.25 257.006L786.114 255.577L782.151 256.124ZM782.143 261.144L778.303 262.263L786.082 260.447L782.143 261.144ZM679.749 175.001L679.768 171.001L675.761 170.982L675.749 174.99L679.749 175.001ZM666.351 240.867L662.667 239.309L669.579 243.229L666.351 240.867ZM659.497 255.169L655.974 253.274L655.873 253.462L655.793 253.659L659.497 255.169ZM663.941 246.297L660.513 244.235L660.404 244.418L660.314 244.611L663.941 246.297ZM659.497 303.831L655.793 305.341L655.873 305.539L655.974 305.726L659.497 303.831ZM663.941 312.703L660.314 314.389L660.404 314.582L660.513 314.765L663.941 312.703ZM656.597 260.341L660.422 261.509L653.142 258.324L656.597 260.341ZM643.592 279.5L640.442 277.035L638.513 279.5L640.442 281.965L643.592 279.5ZM656.597 298.659L653.142 300.676L660.422 297.491L656.597 298.659ZM658.591 304.258L662.294 302.746L662.214 302.549L662.113 302.362L658.591 304.258ZM642.955 280.309L646.109 277.848L642.979 273.838L639.82 277.825L642.955 280.309ZM663.07 313.195L659.642 315.256L659.642 315.256L663.07 313.195ZM782.143 297.856L786.082 298.553L778.303 296.737L782.143 297.856ZM678.75 384V380H674.75V384H678.75ZM669.531 439.781L670.835 443.562L672.677 442.927L673.312 441.085L669.531 439.781ZM542.922 433.306L540.863 436.736L541.045 436.845L541.237 436.934L542.922 433.306ZM534.008 428.841L532.112 432.363L532.299 432.464L532.495 432.544L534.008 428.841ZM510.059 413.205L507.575 410.07L503.588 413.229L507.598 416.359L510.059 413.205ZM556.75 355.832L553.175 354.039L553.175 354.039L556.75 355.832ZM565.317 335.567L564.002 331.789L562.175 332.425L561.539 334.252L565.317 335.567ZM585.582 327L587.375 330.576L587.375 330.576L585.582 327ZM782.151 302.876L786.114 303.423L778.25 301.994L782.151 302.876ZM679.749 384.999L679.731 380.999L675.761 381.017L675.749 384.987L679.749 384.999ZM670.731 439.362L666.944 438.076L664.293 445.879L672.064 443.133L670.731 439.362ZM669.112 440.981L672.883 442.314L675.629 434.543L667.826 437.194L669.112 440.981ZM614.749 449.999L614.737 445.999L610.767 446.011L610.749 449.981L614.749 449.999ZM532.626 552.401L531.744 548.5L533.173 556.364L532.626 552.401ZM527.606 552.393L526.487 548.553L528.303 556.332L527.606 552.393ZM613.749 449.999L617.749 450.018L617.768 446.011L613.76 445.999L613.749 449.999ZM547.883 436.601L549.441 432.917L545.521 439.829L547.883 436.601ZM533.581 429.747L535.476 426.224L535.289 426.123L535.091 426.043L533.581 429.747ZM542.453 434.191L544.515 430.763L544.332 430.654L544.139 430.564L542.453 434.191ZM484.919 429.747L483.409 426.043L483.212 426.123L483.024 426.224L484.919 429.747ZM476.047 434.191L474.361 430.564L474.168 430.654L473.985 430.763L476.047 434.191ZM528.409 426.847L527.241 430.672L530.426 423.392L528.409 426.847ZM509.25 413.842L511.715 410.692L509.25 408.763L506.785 410.692L509.25 413.842ZM490.091 426.847L488.074 423.392L491.259 430.672L490.091 426.847ZM539.101 552.396L538.406 548.457L539.531 556.372L539.101 552.396ZM670.317 440.567L669.002 436.789L667.175 437.425L666.539 439.252L670.317 440.567ZM782.146 309.351L786.122 309.781L778.207 308.656L782.146 309.351ZM782.146 249.649L778.207 250.344L786.122 249.219L782.146 249.649ZM670.317 118.433L666.539 119.748L667.175 121.575L669.002 122.211L670.317 118.433ZM539.101 6.60439L539.531 2.62757L538.406 10.5434L539.101 6.60439ZM354.559 312.703L357.987 314.765L358.096 314.582L358.186 314.389L354.559 312.703ZM359.003 303.831L362.526 305.726L362.627 305.539L362.707 305.341L359.003 303.831ZM359.003 255.169L362.707 253.659L362.627 253.461L362.526 253.274L359.003 255.169ZM354.559 246.297L358.186 244.611L358.096 244.418L357.987 244.235L354.559 246.297ZM361.903 298.659L358.078 297.491L365.358 300.676L361.903 298.659ZM374.908 279.5L378.058 281.965L379.987 279.5L378.058 277.035L374.908 279.5ZM361.903 260.341L365.358 258.324L358.078 261.509L361.903 260.341ZM240.197 262.263C247.65 236.684 271.273 218 299.25 218V210C267.621 210 240.937 231.124 232.516 260.026L240.197 262.263ZM309.943 175.005C270.225 186.123 239.715 219.266 232.418 260.447L240.295 261.842C247.051 223.717 275.315 193.005 312.1 182.709L309.943 175.005ZM338.732 171.001C328.766 171.048 319.111 172.439 309.943 175.005L312.1 182.709C320.584 180.334 329.527 179.044 338.769 179.001L338.732 171.001ZM343.941 194.52C343.174 188.116 342.77 181.599 342.751 174.99L334.751 175.013C334.771 181.933 335.194 188.76 335.998 195.471L343.941 194.52ZM327.848 206.967C332.901 204.43 337.729 201.512 342.294 198.25L337.644 191.741C333.413 194.763 328.939 197.467 324.259 199.818L327.848 206.967ZM338.454 222.517C335.96 215.318 333.006 208.333 329.629 201.599L322.478 205.186C325.699 211.609 328.516 218.27 330.894 225.135L338.454 222.517ZM349.235 225.258C344.907 223.347 340.487 221.607 335.983 220.046L333.365 227.606C337.66 229.094 341.875 230.753 346.002 232.576L349.235 225.258ZM355.833 239.309C354.218 235.49 352.741 231.599 351.409 227.641L343.827 230.193C345.224 234.342 346.772 238.422 348.465 242.425L355.833 239.309ZM299.25 218C319.648 218 337.727 227.927 348.921 243.229L355.378 238.505C342.742 221.233 322.308 210 299.25 210V218ZM350.509 225.827C350.085 225.636 349.66 225.446 349.235 225.258L346.002 232.576C346.408 232.755 346.813 232.936 347.218 233.119L350.509 225.827ZM351.409 227.641C347.841 217.039 345.311 205.958 343.941 194.52L335.998 195.471C337.434 207.46 340.086 219.076 343.827 230.193L351.409 227.641ZM342.294 198.25C342.617 198.02 342.938 197.788 343.257 197.554L338.537 191.096C338.24 191.312 337.943 191.527 337.644 191.741L342.294 198.25ZM336.924 194.788C338.373 207.23 341.139 219.272 345.079 230.77L352.647 228.176C348.891 217.214 346.253 205.731 344.87 193.862L336.924 194.788ZM434.711 235.575C437.059 234.398 439.439 233.274 441.849 232.206L438.607 224.892C436.081 226.012 433.586 227.19 431.125 228.424L434.711 235.575ZM396.466 262.016C407.862 251.517 420.725 242.59 434.711 235.575L431.125 228.424C416.464 235.777 402.985 245.133 391.045 256.133L396.466 262.016ZM378.68 281.175C384.102 274.333 390.051 267.926 396.466 262.016L391.045 256.133C384.325 262.324 378.092 269.037 372.41 276.207L378.68 281.175ZM356.387 256.638C361.038 265.275 366.399 273.473 372.391 281.152L378.698 276.23C372.981 268.903 367.867 261.083 363.431 252.845L356.387 256.638ZM352.014 247.887C353.615 250.552 355.019 253.348 356.206 256.255L363.612 253.229C362.269 249.941 360.681 246.78 358.873 243.768L352.014 247.887ZM345.079 230.77C347.04 236.492 349.291 242.079 351.816 247.513L359.071 244.143C356.664 238.96 354.517 233.633 352.647 228.176L345.079 230.77ZM356.901 228.871C354.794 227.815 352.663 226.8 350.509 225.827L347.218 233.119C349.273 234.046 351.305 235.014 353.314 236.022L356.901 228.871ZM449 170.5C406.357 170.5 369.44 194.989 351.533 230.652L358.682 234.241C375.285 201.177 409.498 178.5 449 178.5V170.5ZM444.02 229.82C449.846 212.436 453 193.832 453 174.5H445C445 192.957 441.989 210.703 436.435 227.278L444.02 229.82ZM443.572 231.141C443.723 230.702 443.873 230.261 444.021 229.82L436.435 227.278C436.294 227.699 436.151 228.119 436.007 228.538L443.572 231.141ZM441.849 232.206C445.979 230.375 450.199 228.707 454.498 227.211L451.868 219.655C447.361 221.224 442.937 222.973 438.607 224.892L441.849 232.206ZM456.961 224.748C459.33 217.941 462.129 211.334 465.325 204.961L458.174 201.375C454.824 208.056 451.889 214.981 449.405 222.118L456.961 224.748ZM465.325 204.961C474.41 186.846 486.705 170.615 501.466 157.016L496.045 151.133C480.581 165.379 467.697 182.386 458.174 201.375L465.325 204.961ZM501.466 157.016C504.516 154.206 507.671 151.508 510.925 148.93L505.957 142.66C502.547 145.362 499.241 148.188 496.045 151.133L501.466 157.016ZM510.902 142.641C503.223 136.649 495.025 131.288 486.388 126.637L482.595 133.681C490.833 138.117 498.653 143.231 505.98 148.948L510.902 142.641ZM486.005 126.456C483.098 125.269 480.302 123.865 477.637 122.264L473.518 129.123C476.53 130.931 479.691 132.519 482.979 133.862L486.005 126.456ZM477.263 122.066C465.026 116.381 452.014 112.081 438.431 109.367L436.863 117.212C449.816 119.8 462.223 123.9 473.893 129.321L477.263 122.066ZM438.431 109.367C427.377 107.158 415.947 106 404.25 106V114C415.418 114 426.323 115.105 436.863 117.212L438.431 109.367ZM404.25 106C397.234 106 390.314 106.417 383.513 107.227L384.46 115.171C390.947 114.398 397.551 114 404.25 114V106ZM387.986 111.262C387.992 110.914 387.995 110.565 387.998 110.216L379.998 110.165C379.996 110.488 379.992 110.812 379.987 111.135L387.986 111.262ZM384.468 114.163C390.796 113.414 397.234 113.019 403.763 113.001L403.74 105.001C396.904 105.02 390.16 105.433 383.528 106.218L384.468 114.163ZM407.751 109.019C407.815 95.2276 410.627 82.095 415.665 70.1338L408.293 67.0285C402.853 79.9438 399.82 94.1177 399.751 108.982L407.751 109.019ZM415.665 70.1338C428.219 40.3281 454.599 17.7746 486.756 10.5002L484.991 2.69736C450.278 10.5498 421.833 34.8798 408.293 67.0285L415.665 70.1338ZM485.327 2.63631C449.488 7.58014 417.146 23.4687 391.785 46.811L397.202 52.6973C421.402 30.424 452.248 15.2752 486.42 10.5613L485.327 2.63631ZM391.785 46.811C372.583 64.4844 357.375 86.4371 347.675 111.162L355.123 114.084C364.372 90.5065 378.878 69.5626 397.202 52.6973L391.785 46.811ZM350.636 108.696C350.239 108.773 349.842 108.852 349.446 108.932L351.026 116.774C351.404 116.698 351.783 116.623 352.162 116.549L350.636 108.696ZM353.965 114.3C363.249 90.3689 377.909 69.1128 396.466 52.0164L391.045 46.1327C371.605 64.0433 356.24 86.3173 346.507 111.406L353.965 114.3ZM396.466 52.0164C419.352 30.9314 448.154 16.1837 480.094 10.5434L478.703 2.66533C445.213 8.57934 415.023 24.0422 391.045 46.1327L396.466 52.0164ZM478.969 2.62757C442.682 6.55184 408.482 17.4467 377.739 33.9453L381.522 40.9943C411.377 24.9721 444.587 14.3924 479.829 10.5812L478.969 2.62757ZM377.739 33.9453C364.85 40.8629 352.568 48.7653 340.996 57.5516L345.833 63.9233C357.075 55.3882 369.004 47.7127 381.522 40.9943L377.739 33.9453ZM347.379 60.2033C347.324 59.8019 347.267 59.4015 347.206 59.0022L339.298 60.2098C339.352 60.5626 339.402 60.9166 339.45 61.2717L347.379 60.2033ZM376.838 33.2945C364.224 40.0922 352.194 47.8305 340.839 56.4153L345.664 62.7966C356.695 54.4565 368.382 46.9396 380.633 40.3369L376.838 33.2945ZM509.25 0C461.35 0 416.253 12.0529 376.838 33.2945L380.633 40.3369C418.91 19.7083 462.707 8 509.25 8V0ZM788.75 279.5C788.75 125.136 663.614 0 509.25 0V8C659.195 8 780.75 129.555 780.75 279.5H788.75ZM509.25 559C663.614 559 788.75 433.864 788.75 279.5H780.75C780.75 429.445 659.195 551 509.25 551V559ZM376.838 525.706C416.253 546.947 461.35 559 509.25 559V551C462.707 551 418.91 539.292 380.633 518.663L376.838 525.706ZM340.839 502.585C352.194 511.169 364.224 518.908 376.838 525.706L380.633 518.663C368.382 512.06 356.695 504.543 345.664 496.203L340.839 502.585ZM347.206 499.998C347.267 499.598 347.324 499.198 347.379 498.797L339.45 497.728C339.402 498.083 339.352 498.437 339.298 498.79L347.206 499.998ZM340.996 501.448C352.568 510.235 364.85 518.137 377.739 525.055L381.522 518.006C369.004 511.287 357.075 503.612 345.833 495.077L340.996 501.448ZM377.739 525.055C408.482 541.553 442.682 552.448 478.969 556.372L479.829 548.419C444.587 544.608 411.377 534.028 381.522 518.006L377.739 525.055ZM480.094 548.457C448.154 542.816 419.352 528.069 396.466 506.984L391.045 512.867C415.023 534.958 445.213 550.421 478.703 556.335L480.094 548.457ZM396.466 506.984C377.909 489.887 363.249 468.631 353.965 444.7L346.507 447.594C356.24 472.683 371.605 494.957 391.045 512.867L396.466 506.984ZM349.446 450.068C349.842 450.148 350.239 450.227 350.636 450.304L352.162 442.451C351.783 442.377 351.404 442.302 351.026 442.226L349.446 450.068ZM347.675 447.838C357.375 472.563 372.583 494.516 391.785 512.189L397.202 506.303C378.878 489.437 364.372 468.494 355.123 444.916L347.675 447.838ZM391.785 512.189C417.146 535.531 449.488 551.42 485.327 556.364L486.42 548.439C452.248 543.725 421.402 528.576 397.202 506.303L391.785 512.189ZM486.756 548.5C454.599 541.225 428.219 518.672 415.665 488.866L408.293 491.972C421.833 524.12 450.278 548.45 484.991 556.303L486.756 548.5ZM415.665 488.866C410.627 476.905 407.815 463.772 407.751 449.981L399.751 450.018C399.82 464.882 402.853 479.056 408.293 491.972L415.665 488.866ZM403.763 445.999C397.234 445.981 390.796 445.586 384.468 444.837L383.528 452.782C390.16 453.567 396.904 453.98 403.74 453.999L403.763 445.999ZM387.998 448.784C387.995 448.435 387.992 448.086 387.986 447.738L379.987 447.865C379.992 448.188 379.996 448.512 379.998 448.835L387.998 448.784ZM383.513 451.773C390.314 452.583 397.234 453 404.25 453V445C397.551 445 390.947 444.602 384.46 443.829L383.513 451.773ZM404.25 453C415.947 453 427.377 451.842 438.431 449.633L436.863 441.788C426.323 443.895 415.418 445 404.25 445V453ZM438.431 449.633C452.014 446.919 465.026 442.619 477.263 436.934L473.892 429.679C462.223 435.1 449.816 439.2 436.863 441.788L438.431 449.633ZM477.637 436.736C480.302 435.135 483.098 433.731 486.004 432.544L482.979 425.138C479.691 426.481 476.53 428.069 473.518 429.877L477.637 436.736ZM486.388 432.363C495.025 427.712 503.223 422.351 510.902 416.359L505.98 410.052C498.653 415.769 490.833 420.883 482.595 425.319L486.388 432.363ZM510.925 410.07C507.671 407.492 504.516 404.794 501.466 401.984L496.045 407.867C499.241 410.812 502.547 413.638 505.957 416.34L510.925 410.07ZM501.466 401.984C486.705 388.385 474.41 372.154 465.325 354.039L458.174 357.625C467.697 376.614 480.581 393.621 496.045 407.867L501.466 401.984ZM465.325 354.039C462.129 347.666 459.33 341.059 456.961 334.252L449.405 336.882C451.889 344.019 454.824 350.944 458.174 357.625L465.325 354.039ZM454.498 331.789C450.199 330.293 445.98 328.625 441.849 326.794L438.607 334.108C442.937 336.027 447.361 337.776 451.868 339.345L454.498 331.789ZM444.021 329.18C443.873 328.739 443.723 328.298 443.572 327.859L436.007 330.461C436.151 330.881 436.294 331.301 436.435 331.722L444.021 329.18ZM438.148 332.808C442.804 334.902 447.568 336.797 452.43 338.481L455.049 330.922C450.413 329.316 445.869 327.509 441.43 325.512L438.148 332.808ZM452.43 338.481L452.66 338.561L455.278 331.001L455.049 330.922L452.43 338.481ZM450.189 336.09L450.269 336.32L457.828 333.701L457.749 333.472L450.189 336.09ZM450.269 336.32C452.756 343.498 455.7 350.462 459.068 357.177L466.219 353.59C463.007 347.186 460.199 340.545 457.828 333.701L450.269 336.32ZM459.068 357.177C468.549 376.082 481.381 393.012 496.785 407.189L502.202 401.303C487.504 387.774 475.262 371.621 466.219 353.59L459.068 357.177ZM496.785 407.189C500.003 410.151 503.334 412.993 506.77 415.708L511.73 409.431C508.451 406.841 505.273 404.129 502.202 401.303L496.785 407.189ZM511.73 415.708C531.61 400 547.97 380.031 559.432 357.177L552.281 353.59C541.349 375.389 525.74 394.442 506.77 409.431L511.73 415.708ZM559.432 357.177C562.8 350.462 565.744 343.498 568.231 336.32L560.672 333.701C558.301 340.545 555.493 347.186 552.281 353.59L559.432 357.177ZM568.231 336.319L568.311 336.09L560.751 333.472L560.672 333.701L568.231 336.319ZM565.84 338.561L566.069 338.481L563.451 330.922L563.222 331.001L565.84 338.561ZM566.07 338.481C573.248 335.994 580.212 333.05 586.927 329.682L583.34 322.531C576.936 325.743 570.295 328.551 563.451 330.922L566.07 338.481ZM586.927 329.682C609.781 318.22 629.75 301.86 645.458 281.98L639.181 277.02C624.192 295.99 605.139 311.599 583.34 322.531L586.927 329.682ZM645.458 277.02C629.75 257.14 609.781 240.78 586.927 229.318L583.34 236.469C605.139 247.401 624.192 263.01 639.181 281.98L645.458 277.02ZM586.927 229.318C580.212 225.95 573.248 223.006 566.07 220.519L563.451 228.078C570.295 230.449 576.936 233.257 583.34 236.469L586.927 229.318ZM566.069 220.519L565.84 220.439L563.222 227.999L563.451 228.078L566.069 220.519ZM568.311 222.91L568.231 222.681L560.672 225.298L560.751 225.528L568.311 222.91ZM568.231 222.68C565.744 215.502 562.8 208.538 559.432 201.823L552.281 205.41C555.493 211.814 558.301 218.455 560.672 225.299L568.231 222.68ZM559.432 201.823C547.97 178.969 531.61 159 511.73 143.292L506.77 149.569C525.74 164.558 541.349 183.611 552.281 205.41L559.432 201.823ZM506.77 143.292C503.334 146.007 500.003 148.849 496.785 151.811L502.202 157.697C505.273 154.871 508.451 152.159 511.73 149.569L506.77 143.292ZM496.785 151.811C481.381 165.988 468.549 182.918 459.068 201.823L466.219 205.41C475.262 187.379 487.504 171.226 502.202 157.697L496.785 151.811ZM459.068 201.823C455.7 208.538 452.756 215.502 450.269 222.68L457.828 225.299C460.199 218.455 463.007 211.814 466.219 205.41L459.068 201.823ZM450.269 222.68L450.189 222.91L457.749 225.528L457.828 225.299L450.269 222.68ZM452.66 220.439L452.43 220.519L455.049 228.078L455.278 227.999L452.66 220.439ZM452.43 220.519C447.568 222.203 442.804 224.098 438.148 226.192L441.43 233.488C445.87 231.491 450.413 229.684 455.049 228.078L452.43 220.519ZM436.876 247.748C439.382 242.357 441.619 236.816 443.572 231.142L436.007 228.538C434.145 233.95 432.011 239.234 429.621 244.377L436.876 247.748ZM438.148 226.192C435.932 227.189 433.74 228.232 431.573 229.318L435.16 236.469C437.226 235.433 439.316 234.439 441.43 233.488L438.148 226.192ZM431.573 229.318C417.022 236.616 403.641 245.899 391.785 256.811L397.202 262.697C408.516 252.285 421.281 243.429 435.16 236.469L431.573 229.318ZM391.509 262.443C391.598 262.525 391.687 262.607 391.775 262.689L397.212 256.82C397.119 256.734 397.026 256.648 396.933 256.562L391.509 262.443ZM391.493 262.428C391.505 262.439 391.514 262.447 391.52 262.453C391.523 262.456 391.526 262.458 391.527 262.459C391.528 262.46 391.529 262.461 391.529 262.461C391.53 262.462 391.53 262.462 391.53 262.462C391.531 262.462 391.53 262.461 391.528 262.46C391.527 262.459 391.525 262.457 391.522 262.455C391.517 262.45 391.508 262.442 391.497 262.431L396.946 256.574C396.934 256.563 396.924 256.554 396.918 256.548C396.915 256.546 396.912 256.543 396.911 256.542C396.91 256.541 396.909 256.54 396.909 256.54C396.909 256.54 396.908 256.539 396.908 256.539C396.908 256.539 396.909 256.54 396.91 256.541C396.911 256.542 396.913 256.544 396.916 256.547C396.921 256.551 396.93 256.56 396.942 256.57L391.493 262.428ZM397.212 256.82C397.117 256.732 397.023 256.645 396.929 256.559L391.505 262.439C391.596 262.523 391.686 262.606 391.775 262.689L397.212 256.82ZM391.785 256.811C385.019 263.038 378.749 269.797 373.042 277.02L379.319 281.98C384.764 275.088 390.746 268.639 397.202 262.697L391.785 256.811ZM373.042 281.98C378.749 289.203 385.019 295.962 391.785 302.189L397.202 296.303C390.746 290.361 384.764 283.912 379.319 277.02L373.042 281.98ZM391.785 302.189C403.641 313.101 417.022 322.384 431.573 329.682L435.16 322.531C421.281 315.571 408.516 306.715 397.202 296.303L391.785 302.189ZM431.573 329.682C433.739 330.768 435.932 331.811 438.148 332.808L441.43 325.512C439.316 324.561 437.226 323.567 435.16 322.531L431.573 329.682ZM443.572 327.859C441.619 322.184 439.382 316.643 436.876 311.252L429.621 314.623C432.011 319.766 434.145 325.05 436.007 330.462L443.572 327.859ZM429.82 314.998C441.88 335.062 463.869 348.5 489 348.5V340.5C466.791 340.5 447.35 328.634 436.677 310.877L429.82 314.998ZM489 348.5C527.108 348.5 558 317.608 558 279.5H550C550 313.189 522.689 340.5 489 340.5V348.5ZM558 279.5C558 241.392 527.108 210.5 489 210.5V218.5C522.689 218.5 550 245.811 550 279.5H558ZM489 210.5C463.869 210.5 441.88 223.938 429.82 244.002L436.677 248.123C447.35 230.366 466.791 218.5 489 218.5V210.5ZM432.497 256.467C433.68 253.568 435.08 250.78 436.677 248.123L429.82 244.002C428.014 247.007 426.43 250.162 425.09 253.444L432.497 256.467ZM429.621 244.377C428.254 247.319 426.803 250.214 425.272 253.06L432.316 256.851C433.922 253.868 435.443 250.833 436.876 247.748L429.621 244.377ZM425.272 305.94C426.803 308.786 428.254 311.681 429.621 314.623L436.876 311.252C435.443 308.167 433.922 305.132 432.316 302.149L425.272 305.94ZM436.677 310.877C435.08 308.22 433.68 305.432 432.497 302.533L425.09 305.556C426.43 308.838 428.014 311.993 429.82 314.998L436.677 310.877ZM350.509 333.173C352.663 332.2 354.794 331.185 356.901 330.129L353.314 322.978C351.305 323.986 349.272 324.954 347.218 325.881L350.509 333.173ZM351.533 328.348C369.44 364.011 406.357 388.5 449 388.5V380.5C409.498 380.5 375.285 357.823 358.682 324.759L351.533 328.348ZM453 384.5C453 365.168 449.846 346.564 444.02 329.18L436.435 331.722C441.989 348.297 445 366.043 445 384.5H453ZM441.849 326.794C439.439 325.726 437.059 324.602 434.711 323.425L431.125 330.576C433.586 331.81 436.081 332.988 438.607 334.108L441.849 326.794ZM434.711 323.425C420.725 316.41 407.862 307.483 396.466 296.984L391.045 302.867C402.985 313.867 416.464 323.223 431.125 330.576L434.711 323.425ZM396.466 296.984C390.051 291.074 384.102 284.667 378.68 277.825L372.41 282.793C378.092 289.963 384.325 296.676 391.045 302.867L396.466 296.984ZM372.391 277.848C366.399 285.527 361.038 293.725 356.387 302.362L363.431 306.155C367.867 297.917 372.981 290.097 378.698 282.77L372.391 277.848ZM356.206 302.745C355.019 305.652 353.615 308.448 352.014 311.113L358.873 315.232C360.681 312.22 362.269 309.059 363.612 305.771L356.206 302.745ZM351.816 311.487C349.291 316.921 347.04 322.508 345.079 328.23L352.647 330.824C354.517 325.367 356.664 320.04 359.071 314.857L351.816 311.487ZM349.234 333.742C349.366 333.684 349.498 333.625 349.63 333.567L346.379 326.257C346.254 326.313 346.128 326.368 346.003 326.424L349.234 333.742ZM349.63 333.567C349.923 333.436 350.216 333.305 350.509 333.173L347.218 325.881C346.939 326.007 346.659 326.132 346.379 326.257L349.63 333.567ZM345.079 328.23C341.139 339.728 338.373 351.77 336.924 364.212L344.87 365.138C346.253 353.269 348.891 341.786 352.647 330.824L345.079 328.23ZM343.258 361.446C342.938 361.212 342.617 360.98 342.294 360.75L337.644 367.259C337.943 367.473 338.24 367.688 338.537 367.904L343.258 361.446ZM343.941 364.48C345.284 353.269 347.741 342.401 351.198 331.991L343.606 329.47C339.981 340.385 337.405 351.778 335.998 363.529L343.941 364.48ZM351.198 331.991C351.268 331.78 351.339 331.569 351.41 331.359L343.827 328.807C343.753 329.028 343.679 329.248 343.606 329.47L351.198 331.991ZM335.983 338.954C340.487 337.393 344.907 335.653 349.235 333.742L346.002 326.424C341.875 328.247 337.66 329.906 333.365 331.394L335.983 338.954ZM329.629 357.401C333.006 350.667 335.96 343.682 338.454 336.483L330.894 333.865C328.516 340.73 325.699 347.391 322.478 353.814L329.629 357.401ZM330.129 353.212C329.374 352.81 328.614 352.417 327.848 352.033L324.259 359.182C324.967 359.538 325.672 359.902 326.371 360.274L330.129 353.212ZM342.294 360.75C338.421 357.982 334.358 355.462 330.129 353.212L326.371 360.274C330.289 362.359 334.054 364.694 337.644 367.259L342.294 360.75ZM342.751 384.01C342.77 377.401 343.174 370.884 343.941 364.48L335.998 363.529C335.194 370.24 334.771 377.067 334.751 383.987L342.751 384.01ZM309.943 383.995C319.111 386.561 328.766 387.952 338.732 387.999L338.769 379.999C329.527 379.956 320.584 378.666 312.1 376.291L309.943 383.995ZM232.418 298.553C239.715 339.734 270.225 372.877 309.943 383.995L312.1 376.291C275.315 365.995 247.051 335.283 240.295 297.158L232.418 298.553ZM299.25 341C271.273 341 247.65 322.316 240.197 296.737L232.516 298.974C240.937 327.876 267.621 349 299.25 349V341ZM348.921 315.771C337.727 331.073 319.648 341 299.25 341V349C322.308 349 342.742 337.767 355.378 320.495L348.921 315.771ZM351.409 331.359C352.741 327.401 354.218 323.51 355.833 319.691L348.465 316.575C346.772 320.578 345.224 324.658 343.827 328.807L351.409 331.359ZM387.986 447.738C387.424 412.284 369.932 380.943 343.257 361.446L338.537 367.904C363.271 385.984 379.466 415.022 379.987 447.865L387.986 447.738ZM347.665 443.562C359.12 447.512 371.117 450.296 383.513 451.773L384.46 443.829C372.635 442.421 361.195 439.766 350.273 435.999L347.665 443.562ZM335.75 384.5C335.75 404.307 339.07 423.345 345.188 441.085L352.751 438.477C346.919 421.565 343.75 403.407 343.75 384.5H335.75ZM336.924 364.212C336.149 370.868 335.75 377.638 335.75 384.5H343.75C343.75 377.948 344.13 371.488 344.87 365.138L336.924 364.212ZM384.468 444.837C372.789 443.455 361.482 440.864 350.674 437.194L348.102 444.769C359.434 448.617 371.287 451.333 383.528 452.782L384.468 444.837ZM345.617 442.314C346.272 444.17 346.959 446.012 347.675 447.838L355.123 444.916C354.44 443.175 353.785 441.419 353.16 439.649L345.617 442.314ZM350.636 450.304C361.438 452.402 372.592 453.5 384 453.5V445.5C373.107 445.5 362.463 444.451 352.162 442.451L350.636 450.304ZM388 449.5C388 449.261 387.999 449.022 387.998 448.784L379.998 448.836C379.999 449.057 380 449.278 380 449.5H388ZM348 489.5C348 464.369 334.562 442.38 314.498 430.32L310.377 437.177C328.134 447.85 340 467.291 340 489.5H348ZM347.379 498.797C347.789 495.754 348 492.651 348 489.5H340C340 492.292 339.813 495.039 339.45 497.728L347.379 498.797ZM268.869 420.225C287.396 451.806 311.968 479.41 340.996 501.448L345.833 495.077C317.634 473.667 293.765 446.852 275.769 416.177L268.869 420.225ZM257.439 398.62C260.94 406.006 264.755 413.214 268.869 420.225L275.769 416.177C271.774 409.367 268.068 402.367 264.669 395.194L257.439 398.62ZM232.378 309.781C235.782 341.263 244.433 371.174 257.439 398.62L264.669 395.194C252.039 368.542 243.638 339.497 240.331 308.921L232.378 309.781ZM291.466 401.984C265.214 377.798 246.763 345.29 240.293 308.656L232.415 310.047C239.199 348.46 258.544 382.531 286.045 407.867L291.466 401.984ZM349.498 436.789C327.752 429.22 308.055 417.267 291.466 401.984L286.045 407.867C303.425 423.879 324.068 436.409 346.868 444.345L349.498 436.789ZM353.965 444.7C353.266 442.899 352.598 441.083 351.961 439.252L344.405 441.882C345.074 443.801 345.774 445.706 346.507 447.594L353.965 444.7ZM310.752 437.376C322.949 443.044 335.913 447.341 349.446 450.068L351.026 442.226C338.12 439.625 325.756 435.527 314.123 430.121L310.752 437.376ZM302.033 432.997C304.932 434.18 307.72 435.58 310.377 437.177L314.498 430.32C311.493 428.514 308.338 426.93 305.056 425.59L302.033 432.997ZM314.123 430.121C311.181 428.754 308.286 427.303 305.44 425.772L301.649 432.816C304.632 434.422 307.667 435.943 310.752 437.376L314.123 430.121ZM243.502 430.32C223.438 442.38 210 464.369 210 489.5H218C218 467.291 229.866 447.85 247.623 437.177L243.502 430.32ZM210 489.5C210 527.608 240.892 558.5 279 558.5V550.5C245.311 550.5 218 523.189 218 489.5H210ZM279 558.5C313.54 558.5 342.147 533.124 347.206 499.998L339.298 498.79C334.826 528.069 309.529 550.5 279 550.5V558.5ZM268.049 420.805C286.734 452.631 311.535 480.428 340.839 502.585L345.664 496.203C317.194 474.677 293.098 447.67 274.948 416.755L268.049 420.805ZM255.22 396.232C259.098 404.658 263.383 412.857 268.049 420.805L274.948 416.755C270.416 409.035 266.254 401.071 262.487 392.887L255.22 396.232ZM229.75 279.5C229.75 321.161 238.868 360.704 255.22 396.232L262.487 392.887C246.608 358.387 237.75 319.983 237.75 279.5H229.75ZM255.22 162.768C238.868 198.296 229.75 237.839 229.75 279.5H237.75C237.75 239.017 246.608 200.613 262.487 166.113L255.22 162.768ZM268.049 138.195C263.383 146.143 259.098 154.342 255.22 162.768L262.487 166.113C266.254 157.929 270.416 149.965 274.948 142.245L268.049 138.195ZM340.839 56.4153C311.535 78.5717 286.734 106.369 268.049 138.195L274.948 142.245C293.098 111.33 317.194 84.3228 345.664 62.7966L340.839 56.4153ZM347.206 59.0021C342.147 25.8757 313.54 0.5 279 0.5V8.5C309.529 8.5 334.826 30.9308 339.298 60.2099L347.206 59.0021ZM279 0.5C240.892 0.5 210 31.3924 210 69.5H218C218 35.8106 245.311 8.5 279 8.5V0.5ZM210 69.5C210 94.6315 223.438 116.62 243.502 128.68L247.623 121.823C229.866 111.15 218 91.7087 218 69.5H210ZM247.248 121.624C224.98 111.275 200.159 105.5 174 105.5V113.5C198.97 113.5 222.643 119.011 243.877 128.879L247.248 121.624ZM170 109.5C170 152.143 194.489 189.06 230.152 206.967L233.741 199.818C200.677 183.215 178 149.002 178 109.5H170ZM228.371 201.599C224.994 208.333 222.04 215.318 219.546 222.517L227.106 225.135C229.484 218.27 232.301 211.609 235.522 205.186L228.371 201.599ZM222.017 220.046C214.818 222.54 207.833 225.494 201.099 228.871L204.686 236.022C211.109 232.801 217.77 229.984 224.635 227.606L222.017 220.046ZM206.467 230.652C188.56 194.989 151.643 170.5 109 170.5V178.5C148.502 178.5 182.715 201.177 199.318 234.241L206.467 230.652ZM105 174.5C105 200.659 110.775 225.48 121.124 247.748L128.379 244.377C118.511 223.143 113 199.47 113 174.5H105ZM128.18 244.002C116.12 223.938 94.1315 210.5 69 210.5V218.5C91.2087 218.5 110.65 230.366 121.323 248.123L128.18 244.002ZM69 210.5C30.8924 210.5 0 241.392 0 279.5H8C8 245.811 35.3106 218.5 69 218.5V210.5ZM0 279.5C0 317.608 30.8924 348.5 69 348.5V340.5C35.3106 340.5 8 313.189 8 279.5H0ZM69 348.5C94.1315 348.5 116.12 335.062 128.18 314.998L121.323 310.877C110.65 328.634 91.2087 340.5 69 340.5V348.5ZM121.124 311.252C110.775 333.52 105 358.341 105 384.5H113C113 359.53 118.511 335.857 128.379 314.623L121.124 311.252ZM109 388.5C151.643 388.5 188.56 364.011 206.467 328.348L199.318 324.759C182.715 357.823 148.502 380.5 109 380.5V388.5ZM201.099 330.129C207.833 333.506 214.818 336.46 222.017 338.954L224.635 331.394C217.77 329.016 211.109 326.199 204.686 322.978L201.099 330.129ZM219.546 336.483C222.04 343.682 224.994 350.667 228.371 357.401L235.522 353.814C232.301 347.391 229.484 340.73 227.106 333.865L219.546 336.483ZM230.152 352.033C194.489 369.94 170 406.857 170 449.5H178C178 409.998 200.677 375.785 233.741 359.182L230.152 352.033ZM174 453.5C200.159 453.5 224.98 447.725 247.248 437.376L243.877 430.121C222.643 439.989 198.97 445.5 174 445.5V453.5ZM252.56 425.772C249.714 427.303 246.819 428.754 243.877 430.121L247.248 437.376C250.333 435.943 253.368 434.422 256.351 432.816L252.56 425.772ZM247.623 437.177C250.28 435.58 253.068 434.18 255.967 432.997L252.944 425.59C249.662 426.93 246.507 428.514 243.502 430.32L247.623 437.177ZM125.503 302.533C124.32 305.432 122.92 308.22 121.323 310.877L128.18 314.998C129.986 311.993 131.57 308.838 132.91 305.556L125.503 302.533ZM128.379 314.623C129.746 311.681 131.197 308.786 132.728 305.94L125.684 302.149C124.078 305.132 122.557 308.167 121.124 311.252L128.379 314.623ZM132.728 253.06C131.197 250.214 129.746 247.319 128.379 244.377L121.124 247.748C122.557 250.833 124.078 253.868 125.684 256.851L132.728 253.06ZM121.323 248.123C122.92 250.78 124.32 253.568 125.503 256.467L132.91 253.444C131.57 250.162 129.986 247.007 128.18 244.002L121.323 248.123ZM255.967 126.003C253.068 124.82 250.28 123.42 247.623 121.823L243.502 128.68C246.507 130.486 249.662 132.07 252.944 133.41L255.967 126.003ZM243.877 128.879C246.819 130.246 249.714 131.697 252.56 133.228L256.351 126.184C253.368 124.578 250.333 123.057 247.248 121.624L243.877 128.879ZM349.446 108.932C335.913 111.659 322.949 115.955 310.752 121.624L314.123 128.879C325.756 123.472 338.12 119.375 351.026 116.774L349.446 108.932ZM351.961 119.748C352.598 117.917 353.266 116.101 353.965 114.3L346.507 111.406C345.774 113.294 345.073 115.199 344.405 117.118L351.961 119.748ZM291.466 157.016C308.055 141.733 327.752 129.78 349.498 122.211L346.868 114.655C324.068 122.591 303.425 135.121 286.045 151.133L291.466 157.016ZM240.293 250.344C246.763 213.71 265.214 181.202 291.466 157.016L286.045 151.133C258.544 176.469 239.199 210.54 232.415 248.953L240.293 250.344ZM257.439 160.38C244.433 187.826 235.782 217.737 232.378 249.219L240.331 250.079C243.638 219.503 252.039 190.458 264.669 163.806L257.439 160.38ZM268.869 138.775C264.755 145.786 260.94 152.994 257.439 160.38L264.669 163.806C268.068 156.633 271.774 149.633 275.769 142.823L268.869 138.775ZM340.996 57.5516C311.968 79.5904 287.396 107.194 268.869 138.775L275.769 142.823C293.765 112.148 317.634 85.3329 345.833 63.9233L340.996 57.5516ZM348 69.5C348 66.3492 347.789 63.2457 347.379 60.2033L339.45 61.2716C339.813 63.9609 340 66.7075 340 69.5H348ZM314.498 128.68C334.562 116.62 348 94.6315 348 69.5H340C340 91.7087 328.134 111.15 310.377 121.823L314.498 128.68ZM305.44 133.228C308.286 131.697 311.181 130.246 314.123 128.879L310.752 121.624C307.667 123.057 304.632 124.578 301.649 126.184L305.44 133.228ZM310.377 121.823C307.72 123.42 304.932 124.82 302.033 126.003L305.056 133.41C308.338 132.07 311.493 130.486 314.498 128.68L310.377 121.823ZM347.675 111.162C346.959 112.988 346.272 114.83 345.617 116.686L353.16 119.351C353.785 117.581 354.44 115.825 355.123 114.084L347.675 111.162ZM350.674 121.806C361.482 118.136 372.789 115.545 384.468 114.163L383.528 106.218C371.287 107.667 359.434 110.383 348.102 114.231L350.674 121.806ZM387.998 110.216C387.999 109.978 388 109.739 388 109.5H380C380 109.722 379.999 109.943 379.998 110.164L387.998 110.216ZM384 105.5C372.592 105.5 361.438 106.598 350.636 108.696L352.162 116.549C362.463 114.549 373.107 113.5 384 113.5V105.5ZM343.257 197.554C369.932 178.057 387.424 146.716 387.986 111.262L379.987 111.135C379.466 143.978 363.271 173.016 338.537 191.096L343.257 197.554ZM335.75 174.5C335.75 181.362 336.148 188.131 336.924 194.788L344.87 193.862C344.13 187.512 343.75 181.052 343.75 174.5H335.75ZM345.188 117.915C339.07 135.655 335.75 154.693 335.75 174.5H343.75C343.75 155.593 346.919 137.435 352.751 120.523L345.188 117.915ZM383.513 107.227C371.117 108.704 359.12 111.488 347.665 115.438L350.273 123.001C361.195 119.234 372.635 116.579 384.46 115.171L383.513 107.227ZM311.477 181.846C320.152 179.383 329.305 178.045 338.769 178.001L338.732 170.001C328.534 170.048 318.66 171.491 309.293 174.149L311.477 181.846ZM240.25 257.006C248.442 220.793 276.008 191.913 311.477 181.846L309.293 174.149C271.021 185.012 241.289 216.157 232.447 255.241L240.25 257.006ZM286.785 151.811C257.878 178.417 238.022 214.724 232.386 255.577L240.311 256.67C245.684 217.719 264.616 183.088 292.202 157.697L286.785 151.811ZM346.436 115.867C324.095 123.76 303.858 136.096 286.785 151.811L292.202 157.697C308.494 142.702 327.799 130.936 349.101 123.41L346.436 115.867ZM342.751 174.013C342.804 155.439 345.897 137.587 351.556 120.924L343.981 118.352C338.047 135.825 334.806 154.537 334.751 173.99L342.751 174.013ZM286.785 407.189C303.858 422.904 324.095 435.24 346.436 443.133L349.101 435.59C327.799 428.064 308.494 416.298 292.202 401.303L286.785 407.189ZM232.386 303.423C238.022 344.276 257.878 380.583 286.785 407.189L292.202 401.303C264.616 375.912 245.684 341.281 240.311 302.33L232.386 303.423ZM311.477 377.154C276.008 367.087 248.442 338.207 240.25 301.994L232.447 303.759C241.289 342.843 271.021 373.988 309.293 384.851L311.477 377.154ZM338.769 380.999C329.305 380.955 320.152 379.617 311.477 377.154L309.293 384.851C318.66 387.509 328.534 388.952 338.732 388.999L338.769 380.999ZM351.556 438.076C345.897 421.413 342.804 403.561 342.751 384.987L334.751 385.01C334.806 404.463 338.047 423.175 343.981 440.648L351.556 438.076ZM286.648 401.429C286.585 401.487 286.522 401.545 286.46 401.603L291.881 407.485C291.948 407.425 292.013 407.364 292.078 407.304L286.648 401.429ZM286.777 401.31L286.647 401.43L292.079 407.303L292.21 407.182L286.777 401.31ZM291.881 407.485C291.991 407.384 292.102 407.282 292.212 407.18L286.775 401.312C286.67 401.408 286.566 401.505 286.46 401.602L291.881 407.485ZM291.76 407.597C291.8 407.56 291.841 407.523 291.881 407.486L286.46 401.602C286.421 401.638 286.382 401.674 286.344 401.71L291.76 407.597ZM286.431 401.629C286.401 401.657 286.373 401.683 286.344 401.709L291.759 407.598C291.79 407.57 291.821 407.541 291.85 407.514L286.431 401.629ZM286.46 401.603L286.43 401.63L291.852 407.513L291.882 407.485L286.46 401.603ZM408.994 491.056C422.955 524.701 453.358 549.804 490.197 556.332L491.592 548.455C457.492 542.412 429.318 519.162 416.383 487.99L408.994 491.056ZM400.751 450.018C400.819 464.543 403.743 478.402 408.994 491.056L416.383 487.99C411.524 476.279 408.814 463.447 408.751 449.981L400.751 450.018ZM436.447 442.89C426.187 444.9 415.587 445.968 404.74 445.999L404.763 453.999C416.121 453.967 427.229 452.848 437.985 450.741L436.447 442.89ZM469.059 432.917C458.683 437.305 447.771 440.672 436.447 442.89L437.985 450.741C449.857 448.415 461.298 444.886 472.175 440.285L469.059 432.917ZM447.75 489.5C447.75 469.102 457.677 451.023 472.979 439.829L468.255 433.372C450.983 446.008 439.75 466.442 439.75 489.5H447.75ZM492.013 548.553C466.434 541.1 447.75 517.477 447.75 489.5H439.75C439.75 521.129 460.874 547.813 489.776 556.234L492.013 548.553ZM436.447 116.11C447.771 118.328 458.683 121.695 469.059 126.083L472.175 118.715C461.298 114.114 449.857 110.585 437.985 108.259L436.447 116.11ZM404.74 113.001C415.587 113.032 426.187 114.1 436.447 116.11L437.985 108.259C427.229 106.152 416.121 105.033 404.763 105.001L404.74 113.001ZM408.994 67.9439C403.743 80.5981 400.819 94.4574 400.751 108.982L408.751 109.019C408.814 95.5526 411.524 82.7207 416.383 71.01L408.994 67.9439ZM490.197 2.66814C453.358 9.19554 422.955 34.2986 408.994 67.9439L416.383 71.01C429.318 39.8379 457.492 16.5876 491.592 10.5454L490.197 2.66814ZM447.75 69.5C447.75 41.5232 466.434 17.8999 492.013 10.4471L489.776 2.76647C460.874 11.1872 439.75 37.8715 439.75 69.5H447.75ZM472.979 119.171C457.677 107.977 447.75 89.898 447.75 69.5H439.75C439.75 92.5576 450.983 112.992 468.255 125.628L472.979 119.171ZM486.814 125.731C483.838 124.13 480.81 122.612 477.734 121.182L474.361 128.436C477.296 129.801 480.184 131.248 483.024 132.776L486.814 125.731ZM509.25 130C501.167 130 493.465 128.417 486.429 125.549L483.409 132.957C491.388 136.21 500.114 138 509.25 138V130ZM532.071 125.549C525.035 128.417 517.333 130 509.25 130V138C518.386 138 527.112 136.21 535.091 132.957L532.071 125.549ZM540.766 121.182C537.69 122.612 534.662 124.13 531.686 125.731L535.477 132.776C538.316 131.248 541.204 129.801 544.139 128.436L540.766 121.182ZM569.75 69.5C569.75 91.5172 557.992 110.792 540.391 121.382L544.515 128.237C564.421 116.261 577.75 94.4387 577.75 69.5H569.75ZM509.25 9C542.663 9 569.75 36.0868 569.75 69.5H577.75C577.75 31.6685 547.082 1 509.25 1V9ZM448.75 69.5C448.75 36.0868 475.837 9 509.25 9V1C471.418 1 440.75 31.6685 440.75 69.5H448.75ZM478.109 121.382C460.508 110.792 448.75 91.5172 448.75 69.5H440.75C440.75 94.4387 454.079 116.261 473.985 128.237L478.109 121.382ZM488.074 135.608C494.607 139.422 500.857 143.668 506.785 148.308L511.715 142.008C505.504 137.146 498.954 132.696 492.107 128.699L488.074 135.608ZM509.25 131C502.985 131 496.945 130.064 491.259 128.328L488.922 135.979C495.357 137.944 502.184 139 509.25 139V131ZM527.241 128.328C521.555 130.064 515.515 131 509.25 131V139C516.316 139 523.143 137.944 529.578 135.979L527.241 128.328ZM511.715 148.308C517.643 143.668 523.893 139.422 530.426 135.608L526.393 128.699C519.546 132.696 512.996 137.146 506.785 142.008L511.715 148.308ZM532.112 126.637C523.475 131.288 515.277 136.649 507.598 142.641L512.52 148.948C519.847 143.231 527.667 138.117 535.905 133.681L532.112 126.637ZM540.863 122.264C538.198 123.865 535.402 125.269 532.495 126.456L535.521 133.862C538.809 132.519 541.97 130.931 544.982 129.123L540.863 122.264ZM614.25 106C588.175 106 563.434 111.754 541.237 122.066L544.607 129.321C565.771 119.49 589.363 114 614.25 114V106ZM670.835 115.438C653.095 109.32 634.057 106 614.25 106V114C633.157 114 651.315 117.169 668.227 123.001L670.835 115.438ZM682.75 174.5C682.75 154.693 679.43 135.655 673.312 117.915L665.749 120.523C671.581 137.435 674.75 155.593 674.75 174.5H682.75ZM666.684 247.513C676.996 225.315 682.75 200.575 682.75 174.5H674.75C674.75 199.387 669.26 222.979 659.429 244.142L666.684 247.513ZM662.294 256.255C663.481 253.348 664.885 250.552 666.486 247.887L659.627 243.768C657.819 246.78 656.231 249.941 654.888 253.229L662.294 256.255ZM646.109 281.152C652.101 273.473 657.462 265.275 662.113 256.638L655.069 252.845C650.633 261.083 645.519 268.903 639.802 276.23L646.109 281.152ZM583.789 235.575C605.649 246.538 624.763 262.175 639.82 281.175L646.09 276.207C630.316 256.3 610.288 239.915 587.375 228.424L583.789 235.575ZM564.002 227.211C570.809 229.58 577.415 232.379 583.789 235.575L587.375 228.424C580.694 225.074 573.769 222.139 566.632 219.655L564.002 227.211ZM553.175 204.961C556.371 211.334 559.17 217.941 561.539 224.748L569.095 222.118C566.611 214.981 563.676 208.056 560.326 201.375L553.175 204.961ZM507.575 148.93C526.575 163.987 542.212 183.101 553.175 204.961L560.326 201.375C548.835 178.462 532.45 158.434 512.543 142.66L507.575 148.93ZM549.441 126.083C569.215 117.72 590.944 113.066 613.76 113.001L613.737 105.001C589.839 105.07 567.06 109.945 546.325 118.715L549.441 126.083ZM570.75 69.5C570.75 89.898 560.823 107.977 545.521 119.171L550.245 125.628C567.517 112.992 578.75 92.5576 578.75 69.5H570.75ZM526.487 10.4471C552.066 17.8999 570.75 41.5232 570.75 69.5H578.75C578.75 37.8715 557.626 11.1872 528.725 2.76648L526.487 10.4471ZM617.749 108.982C617.5 55.788 578.977 11.6469 528.303 2.66815L526.908 10.5454C573.839 18.8612 609.518 59.7565 609.749 109.019L617.749 108.982ZM531.744 10.5002C576.827 20.6985 610.526 60.9093 610.749 109.019L618.749 108.982C618.508 57.0688 582.147 13.6998 533.509 2.69736L531.744 10.5002ZM672.883 116.686C651.63 56.5331 598.152 11.5998 533.173 2.63631L532.08 10.5613C594.04 19.1083 645.066 61.9674 665.34 119.351L672.883 116.686ZM614.737 113.001C633.311 113.054 651.163 116.147 667.826 121.806L670.398 114.231C652.925 108.297 634.213 105.056 614.76 105.001L614.737 113.001ZM666.944 120.924C672.603 137.587 675.696 155.439 675.749 174.013L683.749 173.99C683.694 154.537 680.453 135.825 674.519 118.352L666.944 120.924ZM786.114 255.577C777.15 190.598 732.217 137.12 672.064 115.867L669.399 123.41C726.783 143.684 769.642 194.711 778.189 256.67L786.114 255.577ZM679.731 178.001C727.841 178.224 768.051 211.923 778.25 257.006L786.053 255.241C775.05 206.603 731.681 170.242 679.768 170.001L679.731 178.001ZM786.082 260.447C777.103 209.773 732.962 171.25 679.768 171.001L679.731 179.001C728.994 179.232 769.889 214.911 778.205 261.842L786.082 260.447ZM719.25 218C747.227 218 770.85 236.684 778.303 262.263L785.984 260.026C777.563 231.124 750.879 210 719.25 210V218ZM669.579 243.229C680.773 227.927 698.852 218 719.25 218V210C696.192 210 675.758 221.233 663.122 238.505L669.579 243.229ZM675.749 174.99C675.684 197.806 671.03 219.535 662.667 239.309L670.035 242.425C678.805 221.69 683.68 198.911 683.749 175.013L675.749 174.99ZM663.019 257.064C664.62 254.088 666.138 251.06 667.568 247.984L660.314 244.611C658.949 247.546 657.502 250.434 655.974 253.274L663.019 257.064ZM658.75 279.5C658.75 271.417 660.333 263.715 663.201 256.679L655.793 253.659C652.54 261.638 650.75 270.364 650.75 279.5H658.75ZM663.201 302.321C660.333 295.285 658.75 287.583 658.75 279.5H650.75C650.75 288.636 652.54 297.362 655.793 305.341L663.201 302.321ZM667.568 311.016C666.138 307.94 664.62 304.912 663.019 301.936L655.974 305.726C657.502 308.566 658.949 311.454 660.314 314.389L667.568 311.016ZM719.25 340C697.233 340 677.957 328.242 667.368 310.641L660.513 314.765C672.489 334.671 694.311 348 719.25 348V340ZM779.75 279.5C779.75 312.913 752.663 340 719.25 340V348C757.082 348 787.75 317.332 787.75 279.5H779.75ZM719.25 219C752.663 219 779.75 246.087 779.75 279.5H787.75C787.75 241.669 757.082 211 719.25 211V219ZM667.368 248.359C677.957 230.758 697.233 219 719.25 219V211C694.311 211 672.489 224.329 660.513 244.235L667.368 248.359ZM653.142 258.324C649.328 264.857 645.082 271.107 640.442 277.035L646.742 281.965C651.604 275.754 656.054 269.204 660.051 262.357L653.142 258.324ZM657.75 279.5C657.75 273.235 658.686 267.195 660.422 261.509L652.771 259.172C650.806 265.607 649.75 272.434 649.75 279.5H657.75ZM660.422 297.491C658.686 291.805 657.75 285.765 657.75 279.5H649.75C649.75 286.566 650.806 293.393 652.771 299.828L660.422 297.491ZM640.442 281.965C645.082 287.893 649.328 294.143 653.142 300.676L660.051 296.643C656.054 289.796 651.604 283.246 646.742 277.035L640.442 281.965ZM662.113 302.362C657.462 293.725 652.101 285.527 646.109 277.848L639.802 282.77C645.519 290.097 650.633 297.917 655.069 306.155L662.113 302.362ZM666.499 311.134C664.893 308.463 663.485 305.66 662.294 302.746L654.888 305.771C656.235 309.068 657.827 312.237 659.642 315.256L666.499 311.134ZM719.25 341C696.859 341 677.258 329.036 666.499 311.134L659.642 315.256C671.788 335.463 693.936 349 719.25 349V341ZM778.303 296.737C770.85 322.316 747.227 341 719.25 341V349C750.879 349 777.563 327.876 785.984 298.974L778.303 296.737ZM679.25 388C732.675 388 777.074 349.391 786.082 298.553L778.205 297.158C769.862 344.242 728.728 380 679.25 380V388ZM678.75 388H679.25V380H678.75V388ZM682.75 384.5V384H674.75V384.5H682.75ZM673.312 441.085C679.43 423.345 682.75 404.307 682.75 384.5H674.75C674.75 403.407 671.581 421.565 665.749 438.477L673.312 441.085ZM614.25 453C634.057 453 653.095 449.68 670.835 443.562L668.227 435.999C651.315 441.831 633.157 445 614.25 445V453ZM541.237 436.934C563.434 447.246 588.175 453 614.25 453V445C589.363 445 565.771 439.51 544.607 429.679L541.237 436.934ZM532.495 432.544C535.402 433.731 538.198 435.135 540.863 436.736L544.982 429.877C541.97 428.069 538.809 426.481 535.521 425.138L532.495 432.544ZM507.598 416.359C515.277 422.351 523.475 427.712 532.112 432.363L535.905 425.319C527.667 420.883 519.847 415.769 512.52 410.052L507.598 416.359ZM553.175 354.039C542.212 375.899 526.575 395.013 507.575 410.07L512.543 416.34C532.45 400.566 548.835 380.538 560.326 357.625L553.175 354.039ZM561.539 334.252C559.17 341.059 556.371 347.665 553.175 354.039L560.326 357.625C563.676 350.944 566.611 344.019 569.095 336.882L561.539 334.252ZM583.789 323.425C577.416 326.621 570.809 329.42 564.002 331.789L566.632 339.345C573.769 336.861 580.694 333.926 587.375 330.576L583.789 323.425ZM639.82 277.825C624.763 296.825 605.649 312.462 583.789 323.425L587.375 330.576C610.288 319.085 630.316 302.7 646.09 282.793L639.82 277.825ZM778.25 301.994C768.051 347.077 727.841 380.776 679.731 380.999L679.768 388.999C731.681 388.758 775.05 352.397 786.053 303.759L778.25 301.994ZM672.064 443.133C732.217 421.88 777.15 368.402 786.114 303.423L778.189 302.33C769.642 364.289 726.783 415.316 669.399 435.59L672.064 443.133ZM675.749 384.987C675.696 403.561 672.603 421.413 666.944 438.076L674.519 440.648C680.453 423.175 683.694 404.463 683.749 385.01L675.749 384.987ZM667.826 437.194C651.163 442.853 633.311 445.946 614.737 445.999L614.76 453.999C634.213 453.944 652.925 450.703 670.398 444.769L667.826 437.194ZM533.173 556.364C598.152 547.4 651.63 502.467 672.883 442.314L665.34 439.649C645.066 497.033 594.04 539.892 532.08 548.439L533.173 556.364ZM610.749 449.981C610.526 498.091 576.827 538.301 531.744 548.5L533.509 556.303C582.147 545.3 618.508 501.931 618.749 450.018L610.749 449.981ZM528.303 556.332C578.977 547.353 617.5 503.212 617.749 450.018L609.749 449.981C609.518 499.244 573.839 540.139 526.908 548.455L528.303 556.332ZM570.75 489.5C570.75 517.477 552.066 541.1 526.487 548.553L528.725 556.234C557.626 547.813 578.75 521.129 578.75 489.5H570.75ZM545.521 439.829C560.823 451.023 570.75 469.102 570.75 489.5H578.75C578.75 466.442 567.517 446.008 550.245 433.372L545.521 439.829ZM613.76 445.999C590.944 445.934 569.215 441.28 549.441 432.917L546.325 440.285C567.06 449.055 589.839 453.93 613.737 453.999L613.76 445.999ZM531.686 433.269C534.662 434.87 537.69 436.388 540.766 437.818L544.139 430.564C541.204 429.199 538.316 427.752 535.476 426.224L531.686 433.269ZM509.25 429C517.333 429 525.035 430.583 532.071 433.451L535.091 426.043C527.112 422.79 518.386 421 509.25 421V429ZM486.429 433.451C493.465 430.583 501.167 429 509.25 429V421C500.114 421 491.388 422.79 483.409 426.043L486.429 433.451ZM477.734 437.818C480.81 436.388 483.838 434.87 486.814 433.269L483.024 426.224C480.184 427.752 477.296 429.199 474.361 430.564L477.734 437.818ZM448.75 489.5C448.75 467.483 460.508 448.207 478.109 437.618L473.985 430.763C454.079 442.739 440.75 464.561 440.75 489.5H448.75ZM509.25 550C475.837 550 448.75 522.913 448.75 489.5H440.75C440.75 527.332 471.418 558 509.25 558V550ZM569.75 489.5C569.75 522.913 542.663 550 509.25 550V558C547.082 558 577.75 527.332 577.75 489.5H569.75ZM540.391 437.618C557.992 448.207 569.75 467.483 569.75 489.5H577.75C577.75 464.561 564.421 442.739 544.515 430.763L540.391 437.618ZM530.426 423.392C523.893 419.578 517.643 415.332 511.715 410.692L506.785 416.992C512.996 421.854 519.546 426.304 526.393 430.301L530.426 423.392ZM509.25 428C515.515 428 521.555 428.936 527.241 430.672L529.578 423.021C523.143 421.056 516.316 420 509.25 420V428ZM491.259 430.672C496.945 428.936 502.985 428 509.25 428V420C502.184 420 495.357 421.056 488.922 423.021L491.259 430.672ZM506.785 410.692C500.857 415.332 494.607 419.578 488.074 423.392L492.107 430.301C498.954 426.304 505.504 421.854 511.715 416.992L506.785 410.692ZM539.797 556.335C602.482 545.265 653.606 500.748 674.095 441.882L666.539 439.252C646.989 495.421 598.195 537.898 538.406 548.457L539.797 556.335ZM778.169 308.921C764.555 434.808 664.558 534.805 538.671 548.419L539.531 556.372C669.156 542.354 772.104 439.406 786.122 309.781L778.169 308.921ZM671.632 444.345C730.498 423.856 775.015 372.732 786.085 310.047L778.207 308.656C767.648 368.445 725.171 417.239 669.002 436.789L671.632 444.345ZM786.085 248.953C775.015 186.268 730.498 135.144 671.632 114.655L669.002 122.211C725.171 141.761 767.648 190.555 778.207 250.344L786.085 248.953ZM538.671 10.5812C664.558 24.1952 764.555 124.192 778.169 250.079L786.122 249.219C772.104 119.594 669.156 16.6458 539.531 2.62757L538.671 10.5812ZM674.095 117.118C653.606 58.2524 602.482 13.7348 539.797 2.66533L538.406 10.5434C598.195 21.1016 646.989 63.579 666.539 119.748L674.095 117.118ZM351.131 310.641C340.542 328.242 321.267 340 299.25 340V348C324.189 348 346.011 334.671 357.987 314.765L351.131 310.641ZM355.481 301.936C353.88 304.912 352.362 307.94 350.932 311.016L358.186 314.389C359.551 311.454 360.998 308.566 362.526 305.726L355.481 301.936ZM359.75 279.5C359.75 287.583 358.167 295.285 355.299 302.321L362.707 305.341C365.96 297.362 367.75 288.636 367.75 279.5H359.75ZM355.299 256.679C358.167 263.715 359.75 271.417 359.75 279.5H367.75C367.75 270.364 365.96 261.638 362.707 253.659L355.299 256.679ZM350.932 247.984C352.362 251.06 353.88 254.088 355.481 257.064L362.526 253.274C360.998 250.434 359.551 247.546 358.186 244.611L350.932 247.984ZM299.25 219C321.267 219 340.542 230.758 351.132 248.359L357.987 244.235C346.011 224.329 324.189 211 299.25 211V219ZM238.75 279.5C238.75 246.087 265.837 219 299.25 219V211C261.418 211 230.75 241.669 230.75 279.5H238.75ZM299.25 340C265.837 340 238.75 312.913 238.75 279.5H230.75C230.75 317.332 261.418 348 299.25 348V340ZM365.358 300.676C369.172 294.143 373.418 287.893 378.058 281.965L371.758 277.035C366.896 283.246 362.446 289.796 358.449 296.643L365.358 300.676ZM360.75 279.5C360.75 285.765 359.814 291.805 358.078 297.491L365.729 299.828C367.694 293.393 368.75 286.566 368.75 279.5H360.75ZM358.078 261.509C359.814 267.195 360.75 273.235 360.75 279.5H368.75C368.75 272.434 367.694 265.607 365.729 259.172L358.078 261.509ZM378.058 277.035C373.418 271.107 369.172 264.857 365.358 258.324L358.449 262.357C362.446 269.204 366.896 275.754 371.758 281.965L378.058 277.035ZM344.783 327.54L307.8 377.771L314.243 382.514L351.226 332.283L344.783 327.54Z" fill="#777467"/>
</svg>
