<svg width="844" height="559" viewBox="0 0 844 559" fill="none" xmlns="http://www.w3.org/2000/svg">
<path fill-rule="evenodd" clip-rule="evenodd" d="M332.209 217.624C312.313 224.55 296.784 240.802 290.857 261.144C294.573 240.171 304.545 221.358 318.777 206.704C321.21 205.707 323.598 204.622 325.936 203.451C328.234 208.06 330.329 212.789 332.209 217.624ZM366.025 215.148C362.049 214.394 357.945 214 353.75 214C346.204 214 338.956 215.276 332.209 217.624C332.33 217.935 332.45 218.247 332.569 218.558C307.351 227.322 289.25 251.297 289.25 279.5C289.25 307.629 307.256 331.552 332.371 340.372C332.251 340.684 332.13 340.995 332.008 341.305C312.208 334.34 296.764 318.13 290.857 297.856C294.573 318.829 304.545 337.642 318.777 352.296C318.042 351.995 317.303 351.702 316.561 351.418C304.073 338.021 295.032 321.37 290.849 302.876C293.001 318.477 297.276 333.399 303.373 347.343C302.969 347.247 302.565 347.154 302.16 347.063C297.007 335.136 293.177 322.504 290.854 309.351C292.209 321.874 294.405 334.144 297.386 346.104C297.028 346.041 296.669 345.98 296.31 345.92C291.044 324.647 288.25 302.4 288.25 279.5C288.25 256.6 291.044 234.353 296.31 213.08C296.669 213.02 297.028 212.959 297.386 212.896C294.405 224.856 292.209 237.126 290.854 249.649C293.177 236.496 297.007 223.864 302.16 211.937C302.565 211.846 302.97 211.753 303.373 211.657C297.276 225.601 293.001 240.523 290.849 256.124C295.032 237.63 304.073 220.979 316.561 207.582C317.303 207.298 318.042 207.005 318.777 206.704C320.681 204.743 322.662 202.856 324.714 201.049C325.067 201.729 325.416 202.413 325.76 203.099C325.819 203.216 325.878 203.334 325.936 203.451C325.975 203.432 326.014 203.412 326.053 203.392C336.592 198.101 346.117 191.086 354.259 182.719C366.298 177.802 379.458 175.066 393.251 175.001C393.265 180.079 393.502 185.105 393.951 190.07C383.204 196.7 373.742 205.212 366.025 215.148ZM365.341 216.039C361.581 215.356 357.707 215 353.75 215C346.331 215 339.204 216.253 332.569 218.558C333.198 220.204 333.802 221.862 334.381 223.533C341.413 225.969 348.235 228.854 354.814 232.153C354.932 232.212 355.049 232.271 355.166 232.33C355.147 232.369 355.127 232.408 355.108 232.447C348.001 246.6 344 262.583 344 279.5C344 296.277 347.935 312.135 354.932 326.201C354.892 326.221 354.853 326.24 354.814 326.26C348.235 329.559 341.413 332.444 334.381 334.881C333.741 336.726 333.071 338.557 332.371 340.372C339.061 342.722 346.256 344 353.75 344C357.707 344 361.581 343.644 365.341 342.961C365.567 343.259 365.795 343.556 366.025 343.852C362.049 344.606 357.945 345 353.75 345C346.129 345 338.811 343.698 332.008 341.305C330.132 346.084 328.045 350.758 325.76 355.314C325.74 355.353 325.721 355.392 325.701 355.432C323.438 354.306 321.129 353.259 318.777 352.296C320.616 354.19 322.527 356.015 324.505 357.767C324.346 358.071 324.187 358.374 324.026 358.678C321.42 356.381 318.928 353.958 316.561 351.418C312.292 349.782 307.889 348.417 303.373 347.343C307.076 355.812 311.451 363.92 316.431 371.6C316.233 371.906 316.034 372.211 315.833 372.515C310.59 364.475 306.007 355.965 302.16 347.063C300.582 346.707 298.99 346.388 297.386 346.104C300.463 358.448 304.375 370.461 309.059 382.08C308.824 382.388 308.589 382.695 308.352 383.001C303.499 371.036 299.461 358.653 296.31 345.92C290.679 344.986 284.896 344.5 279 344.5C262.083 344.5 246.1 348.501 231.947 355.608C231.908 355.627 231.869 355.647 231.83 355.666C231.771 355.549 231.712 355.432 231.653 355.314C228.354 348.735 225.469 341.913 223.033 334.881C216.126 332.488 209.421 329.662 202.951 326.436C210.021 312.311 214 296.37 214 279.5C214 262.583 209.999 246.6 202.892 232.447C202.833 232.329 202.774 232.212 202.715 232.095C209.258 228.82 216.042 225.955 223.033 223.533C225.455 216.542 228.32 209.758 231.595 203.215C231.712 203.274 231.829 203.333 231.947 203.392C246.1 210.499 262.083 214.5 279 214.5C284.896 214.5 290.679 214.014 296.31 213.08C299.495 200.211 303.585 187.699 308.509 175.615C308.745 175.921 308.98 176.229 309.214 176.537C304.461 188.275 300.496 200.416 297.386 212.896C298.99 212.612 300.582 212.293 302.16 211.937C306.053 202.926 310.702 194.317 316.026 186.191C316.225 186.496 316.424 186.801 316.621 187.107C311.563 194.873 307.123 203.08 303.373 211.657C307.889 210.583 312.292 209.218 316.561 207.582C318.993 204.973 321.555 202.488 324.238 200.136C324.397 200.44 324.556 200.744 324.714 201.049C333.402 193.397 343.372 187.167 354.259 182.719C354.813 182.15 355.361 181.574 355.902 180.992C367.504 176.532 380.093 174.062 393.251 174.001C393.305 154.988 396.472 136.706 402.269 119.638C395.415 122.059 388.764 124.909 382.348 128.155C382.421 127.747 382.492 127.338 382.56 126.929C389.043 123.685 395.762 120.842 402.683 118.433C422.703 60.9157 472.662 17.4182 533.899 6.60439C456.726 14.9502 389.144 55.2814 344.68 114.07C344.169 114.191 343.659 114.314 343.15 114.44C393.401 47.3875 473.509 4 563.75 4C715.904 4 839.25 127.346 839.25 279.5C839.25 431.654 715.904 555 563.75 555C492.386 555 427.359 527.866 378.424 483.352C378.541 483.007 378.657 482.661 378.771 482.315C420.659 520.541 474.431 545.965 533.899 552.396C472.662 541.582 422.703 498.084 402.683 440.567C395.762 438.158 389.043 435.315 382.56 432.071C382.492 431.662 382.421 431.253 382.348 430.845C388.764 434.091 395.415 436.941 402.269 439.362C396.472 422.294 393.305 404.012 393.251 384.999C380.093 384.938 367.504 382.468 355.902 378.008C355.361 377.426 354.813 376.85 354.259 376.281C366.298 381.198 379.458 383.934 393.251 383.999C393.265 378.921 393.502 373.895 393.951 368.93C394.042 368.986 394.133 369.042 394.224 369.098C394.45 369.236 394.677 369.374 394.904 369.511C394.471 374.449 394.25 379.449 394.25 384.5C394.25 403.857 397.495 422.455 403.469 439.781C420.795 445.755 439.393 449 458.75 449C484.231 449 508.397 443.378 530.078 433.306C532.916 431.602 535.895 430.106 538.992 428.841C547.429 424.298 555.438 419.06 562.941 413.205C543.487 397.789 527.477 378.218 516.25 355.832C512.976 349.305 510.11 342.539 507.683 335.567C500.711 333.14 493.945 330.274 487.418 327C465.032 315.773 445.461 299.763 430.045 280.309C428.138 282.752 426.297 285.249 424.524 287.796C424.461 287.299 424.404 286.801 424.352 286.301C425.982 283.991 427.668 281.723 429.408 279.5C427.668 277.277 425.982 275.009 424.352 272.699C424.404 272.199 424.461 271.701 424.524 271.204C426.297 273.751 428.138 276.248 430.045 278.691C445.461 259.237 465.032 243.227 487.418 232C493.945 228.726 500.711 225.86 507.683 223.433C508.333 221.565 509.015 219.712 509.727 217.875C510.044 217.981 510.359 218.09 510.673 218.201C509.931 220.114 509.223 222.044 508.548 223.99L508.469 224.219L508.24 224.298C501.228 226.727 494.426 229.604 487.867 232.893C465.54 244.091 446.029 260.075 430.68 279.5C446.029 298.925 465.54 314.909 487.867 326.107C494.426 329.396 501.228 332.272 508.24 334.702L508.469 334.781L508.548 335.01C510.977 342.022 513.854 348.824 517.143 355.383C528.341 377.71 544.325 397.221 563.75 412.57C583.175 397.221 599.159 377.71 610.357 355.383C613.646 348.824 616.522 342.022 618.952 335.01L619.031 334.781L619.26 334.702C626.272 332.272 633.074 329.396 639.633 326.107C661.96 314.909 681.471 298.925 696.82 279.5C681.471 260.075 661.96 244.091 639.633 232.893C633.074 229.604 626.272 226.727 619.26 224.298L619.031 224.219L618.952 223.99C616.522 216.978 613.646 210.176 610.357 203.617C599.159 181.29 583.175 161.779 563.75 146.43C545.132 161.141 529.675 179.676 518.564 200.848C518.307 200.621 518.049 200.395 517.79 200.17C528.921 179.033 544.361 160.518 562.941 145.795C555.438 139.94 547.429 134.702 538.992 130.159C535.895 128.894 532.916 127.398 530.078 125.694C508.397 115.622 484.231 110 458.75 110C439.393 110 420.795 113.245 403.469 119.219C397.495 136.545 394.25 155.143 394.25 174.5C394.25 179.551 394.471 184.551 394.904 189.489C394.8 189.552 394.696 189.615 394.592 189.678C394.378 189.808 394.164 189.939 393.951 190.07C395.569 207.941 399.945 225.016 406.649 240.867C397.035 227.725 382.641 218.298 366.025 215.148C365.966 215.224 365.907 215.3 365.849 215.376C365.787 215.456 365.725 215.536 365.663 215.617C365.555 215.757 365.448 215.898 365.341 216.039ZM394.904 189.489C410.703 179.974 429.212 174.5 449 174.5C475.313 174.5 499.365 184.179 517.79 200.17C517.267 201.164 516.754 202.163 516.25 203.168C513.853 207.947 511.675 212.853 509.727 217.875C503.218 215.686 496.247 214.5 489 214.5C465.33 214.5 444.615 227.152 433.249 246.062C431.547 248.894 430.055 251.865 428.794 254.955C426.703 260.078 425.248 265.526 424.524 271.204C420.853 265.927 417.473 260.432 414.409 254.742C413.144 251.645 411.648 248.666 409.944 245.828C401.869 228.445 396.654 209.465 394.904 189.489ZM518.564 200.848C540.298 220.085 554 248.193 554 279.5C554 251.201 535.916 227.126 510.673 218.201C512.606 213.221 514.767 208.355 517.143 203.617C517.609 202.689 518.082 201.766 518.564 200.848ZM424.352 272.699C424.119 274.935 424 277.203 424 279.5C424 281.797 424.119 284.065 424.352 286.301C421.531 290.297 418.878 294.42 416.403 298.659C418.254 292.599 419.25 286.165 419.25 279.5C419.25 272.835 418.254 266.401 416.403 260.341C418.878 264.58 421.531 268.703 424.352 272.699ZM424.524 287.796C425.248 293.474 426.703 298.922 428.794 304.045C430.055 307.135 431.547 310.106 433.249 312.938C443.357 334.689 449 358.935 449 384.5C429.212 384.5 410.703 379.026 394.904 369.511C396.654 349.535 401.869 330.555 409.944 313.172C411.648 310.334 413.144 307.355 414.409 304.258C417.473 298.568 420.853 293.073 424.524 287.796ZM355.902 378.008C369.318 392.432 378.724 410.636 382.348 430.845C355.479 417.255 332.72 396.72 316.431 371.6C319.145 367.416 321.681 363.105 324.026 358.678C333.339 366.885 344.11 373.474 355.902 378.008ZM382.56 432.071C383.507 437.74 384 443.562 384 449.5C384 460.96 382.164 471.991 378.771 482.315C348.594 454.776 324.585 420.593 309.059 382.08C311.423 378.974 313.683 375.784 315.833 372.515C332.336 397.82 355.378 418.471 382.56 432.071ZM344.68 114.07C357.301 111.082 370.466 109.5 384 109.5C384 115.438 383.507 121.26 382.56 126.929C355.483 140.476 332.515 161.02 316.026 186.191C313.865 182.891 311.592 179.672 309.214 176.537C318.305 154.085 330.28 133.11 344.68 114.07ZM382.348 128.155C378.724 148.364 369.318 166.568 355.902 180.992C344.2 185.491 333.502 192.016 324.238 200.136C321.888 195.672 319.346 191.326 316.621 187.107C332.897 162.121 355.584 141.692 382.348 128.155ZM343.15 114.44C329.139 133.134 317.45 153.669 308.509 175.615C299.864 164.382 289.846 154.26 278.707 145.5C259.085 160.931 242.943 180.588 231.653 203.099C231.634 203.138 231.614 203.176 231.595 203.215C197.422 185.895 174 150.433 174 109.5C174 51.5101 221.01 4.5 279 4.5C243.101 4.5 214 33.6015 214 69.5C214 93.1701 226.652 113.885 245.562 125.251C248.394 126.953 251.365 128.445 254.455 129.706C262.029 132.797 270.315 134.5 279 134.5C287.685 134.5 295.971 132.797 303.545 129.706C306.635 128.445 309.606 126.953 312.438 125.251C322.207 120.711 332.48 117.072 343.15 114.44ZM378.424 483.352C364.339 524.732 325.146 554.5 279 554.5C314.898 554.5 344 525.398 344 489.5C344 465.83 331.348 445.115 312.438 433.749C309.606 432.047 306.635 430.555 303.545 429.294C295.971 426.203 287.685 424.5 279 424.5C270.315 424.5 262.029 426.203 254.455 429.294C251.365 430.555 248.394 432.047 245.562 433.749C223.811 443.857 199.565 449.5 174 449.5C174 408.474 197.53 372.943 231.83 355.666C243.111 378.031 259.187 397.563 278.707 412.913C289.779 404.206 299.743 394.153 308.352 383.001C323.998 421.57 348.127 455.792 378.424 483.352ZM202.951 326.436C202.932 326.475 202.912 326.514 202.892 326.553C185.638 360.917 150.073 384.5 109 384.5C51.0101 384.5 4 337.49 4 279.5C4 315.398 33.1015 344.5 69 344.5C92.6701 344.5 113.385 331.848 124.751 312.938C126.453 310.106 127.945 307.135 129.206 304.045C132.297 296.471 134 288.185 134 279.5C134 270.815 132.297 262.529 129.206 254.955C127.945 251.865 126.453 248.894 124.751 246.062C114.643 224.311 109 200.065 109 174.5C149.933 174.5 185.395 197.922 202.715 232.095C202.676 232.114 202.638 232.134 202.599 232.153C180.088 243.443 160.431 259.585 145 279.207C160.431 298.829 180.088 314.97 202.599 326.26C202.716 326.319 202.834 326.378 202.951 326.436ZM354.259 376.281C343.284 371.798 333.242 365.502 324.505 357.767C324.91 356.992 325.308 356.213 325.701 355.432C325.819 355.49 325.936 355.549 326.053 355.608C336.592 360.899 346.117 367.914 354.259 376.281ZM393.951 368.93C383.204 362.3 373.742 353.788 366.025 343.852C382.641 340.702 397.035 331.275 406.649 318.133C399.945 333.984 395.569 351.059 393.951 368.93ZM365.341 216.039C361.476 221.126 358.064 226.576 355.166 232.33C377.531 243.611 397.063 259.687 412.413 279.207C397.009 298.795 377.394 314.914 354.932 326.201C354.99 326.319 355.049 326.436 355.108 326.553C358.018 332.35 361.45 337.84 365.341 342.961C383.891 339.595 399.678 328.296 409.059 312.703C410.456 309.697 411.939 306.739 413.503 303.831C416.563 296.324 418.25 288.109 418.25 279.5C418.25 270.891 416.563 262.676 413.503 255.169C411.939 252.261 410.456 249.303 409.059 246.297C399.678 230.704 383.891 219.405 365.341 216.039ZM530.547 124.809C533.553 126.206 536.511 127.689 539.419 129.253C546.926 132.313 555.141 134 563.75 134C572.359 134 580.574 132.313 588.081 129.253C590.989 127.689 593.947 126.206 596.953 124.809C615.706 113.527 628.25 92.9779 628.25 69.5C628.25 33.8776 599.372 5 563.75 5C528.128 5 499.25 33.8776 499.25 69.5C499.25 92.9779 511.794 113.527 530.547 124.809ZM563.75 145.158C557.68 140.407 551.281 136.059 544.591 132.153C550.651 134.004 557.085 135 563.75 135C570.415 135 576.849 134.004 582.909 132.153C576.219 136.059 569.82 140.407 563.75 145.158ZM564.559 145.795C572.062 139.94 580.071 134.702 588.508 130.159C591.605 128.894 594.584 127.398 597.422 125.694C619.102 115.622 643.269 110 668.75 110C688.107 110 706.705 113.245 724.031 119.219C730.005 136.545 733.25 155.143 733.25 174.5C733.25 199.981 727.628 224.147 717.557 245.828C715.852 248.666 714.356 251.645 713.091 254.742C708.548 263.179 703.31 271.188 697.455 278.691C682.039 259.237 662.468 243.227 640.082 232C633.555 228.726 626.789 225.86 619.817 223.433C617.39 216.461 614.524 209.695 611.25 203.168C600.023 180.782 584.013 161.211 564.559 145.795ZM668.249 109.001C644.891 109.068 622.637 113.832 602.383 122.399C618.67 110.484 629.25 91.2278 629.25 69.5C629.25 39.6973 609.346 14.5435 582.106 6.6068C630.908 15.254 668.009 57.7722 668.249 109.001ZM669.249 109.001C669.017 58.989 633.987 17.1992 587.126 6.59879C650.596 15.354 702.848 59.2502 723.612 118.019C706.544 112.222 688.262 109.055 669.249 109.001ZM734.249 174.001C734.195 154.988 731.028 136.706 725.231 119.638C784 140.402 827.896 192.654 836.651 256.124C826.051 209.263 784.261 174.233 734.249 174.001ZM734.249 175.001C785.478 175.241 827.996 212.342 836.643 261.144C828.706 233.904 803.553 214 773.75 214C752.022 214 732.766 224.58 720.851 240.867C729.418 220.613 734.182 198.359 734.249 175.001ZM718.441 246.297C717.043 249.303 715.561 252.261 713.997 255.169C710.936 262.677 709.25 270.891 709.25 279.5C709.25 288.109 710.937 296.324 713.997 303.831C715.561 306.739 717.044 309.697 718.441 312.703C729.723 331.456 750.272 344 773.75 344C809.372 344 838.25 315.122 838.25 279.5C838.25 243.878 809.372 215 773.75 215C750.272 215 729.723 227.544 718.441 246.297ZM698.092 279.5C702.843 273.43 707.191 267.031 711.097 260.341C709.246 266.401 708.25 272.835 708.25 279.5C708.25 286.165 709.246 292.599 711.097 298.659C707.191 291.969 702.843 285.57 698.092 279.5ZM697.455 280.309C703.31 287.812 708.548 295.821 713.091 304.258C714.36 307.364 715.86 310.35 717.57 313.195C729.023 332.25 749.897 345 773.75 345C803.553 345 828.706 325.096 836.643 297.856C827.968 346.816 785.201 384 733.75 384H733.25V384.5C733.25 403.857 730.005 422.455 724.031 439.781C706.705 445.755 688.107 449 668.75 449C643.269 449 619.103 443.378 597.422 433.306C594.584 431.602 591.605 430.106 588.508 428.841C580.071 424.298 572.062 419.06 564.559 413.205C584.013 397.789 600.023 378.218 611.25 355.832C614.524 349.305 617.39 342.539 619.817 335.567C626.789 333.14 633.555 330.274 640.082 327C662.468 315.773 682.039 299.763 697.455 280.309ZM734.249 384.999C784.261 384.767 826.051 349.737 836.651 302.876C827.896 366.346 784 418.598 725.231 439.362C731.028 422.294 734.195 404.012 734.249 384.999ZM669.249 449.999C688.262 449.945 706.544 446.778 723.612 440.981C702.848 499.75 650.596 543.646 587.126 552.401C633.987 541.801 669.017 500.011 669.249 449.999ZM668.249 449.999C668.009 501.228 630.908 543.746 582.106 552.393C609.346 544.456 629.25 519.303 629.25 489.5C629.25 467.772 618.67 448.516 602.383 436.601C622.637 445.168 644.891 449.932 668.249 449.999ZM596.953 434.191C593.947 432.793 590.989 431.311 588.081 429.747C580.574 426.686 572.359 425 563.75 425C555.141 425 546.927 426.686 539.419 429.747C536.511 431.311 533.553 432.793 530.547 434.191C511.794 445.473 499.25 466.022 499.25 489.5C499.25 525.122 528.128 554 563.75 554C599.372 554 628.25 525.122 628.25 489.5C628.25 466.022 615.706 445.473 596.953 434.191ZM563.75 413.842C569.82 418.593 576.219 422.941 582.909 426.847C576.849 424.996 570.415 424 563.75 424C557.085 424 550.651 424.996 544.591 426.847C551.281 422.941 557.68 418.593 563.75 413.842ZM459.251 449.999C482.609 449.932 504.863 445.168 525.117 436.601C508.83 448.516 498.25 467.772 498.25 489.5C498.25 519.303 518.154 544.456 545.394 552.393C496.592 543.746 459.491 501.228 459.251 449.999ZM458.251 449.999C458.483 500.011 493.513 541.801 540.374 552.401C476.904 543.646 424.652 499.75 403.888 440.981C420.956 446.778 439.238 449.945 458.251 449.999ZM724.817 440.567C704.797 498.084 654.839 541.582 593.601 552.396C721.357 538.579 822.829 437.107 836.646 309.351C825.832 370.588 782.334 420.547 724.817 440.567ZM724.817 118.433C782.334 138.453 825.832 188.412 836.646 249.649C822.829 121.893 721.357 20.4205 593.601 6.60439C654.839 17.4182 704.797 60.9157 724.817 118.433ZM403.888 118.019C424.652 59.2502 476.904 15.354 540.374 6.59878C493.513 17.1992 458.483 58.989 458.251 109.001C439.238 109.055 420.956 112.222 403.888 118.019ZM525.117 122.399C504.863 113.832 482.609 109.068 459.251 109.001C459.491 57.7722 496.592 15.254 545.394 6.60679C518.154 14.5435 498.25 39.6973 498.25 69.5C498.25 91.2278 508.83 110.484 525.117 122.399Z" fill="#777467"/>
<path d="M290.857 261.144L286.918 260.447L294.697 262.263L290.857 261.144ZM290.857 297.856L294.697 296.737L286.918 298.553L290.857 297.856ZM290.849 302.876L294.75 301.994L286.886 303.423L290.849 302.876ZM290.854 309.351L294.793 308.656L286.878 309.781L290.854 309.351ZM290.854 249.649L286.878 249.219L294.793 250.344L290.854 249.649ZM290.849 256.124L286.886 255.577L294.75 257.006L290.849 256.124ZM325.76 203.099L329.336 201.306L329.336 201.306L325.76 203.099ZM326.053 203.392L327.848 206.967L327.848 206.967L326.053 203.392ZM393.251 175.001L397.251 174.99L397.239 170.982L393.232 171.001L393.251 175.001ZM334.381 223.533L330.601 224.842L331.237 226.677L333.071 227.312L334.381 223.533ZM354.814 232.153L353.021 235.729L353.021 235.729L354.814 232.153ZM355.108 232.447L351.534 230.65L351.533 230.652L355.108 232.447ZM354.814 326.26L356.607 329.836L356.608 329.836L354.814 326.26ZM334.381 334.881L333.071 331.101L331.237 331.737L330.601 333.571L334.381 334.881ZM325.76 355.314L329.336 357.108L329.336 357.107L325.76 355.314ZM231.947 355.608L230.152 352.033L230.15 352.034L231.947 355.608ZM231.653 355.314L235.229 353.521L235.229 353.521L231.653 355.314ZM223.033 334.881L226.812 333.571L226.177 331.737L224.342 331.101L223.033 334.881ZM202.892 232.447L199.318 234.241L199.318 234.241L202.892 232.447ZM223.033 223.533L224.342 227.312L226.177 226.677L226.812 224.842L223.033 223.533ZM231.947 203.392L233.741 199.818L233.741 199.818L231.947 203.392ZM393.251 174.001L393.269 178.001L397.239 177.983L397.251 174.013L393.251 174.001ZM402.269 119.638L406.056 120.924L408.707 113.121L400.936 115.867L402.269 119.638ZM402.683 118.433L403.998 122.211L405.825 121.575L406.461 119.748L402.683 118.433ZM533.899 6.60439L534.594 10.5434L533.469 2.62757L533.899 6.60439ZM533.899 552.396L533.469 556.372L534.594 548.457L533.899 552.396ZM402.683 440.567L406.461 439.252L405.825 437.425L403.998 436.789L402.683 440.567ZM402.269 439.362L400.936 443.133L408.707 445.879L406.056 438.076L402.269 439.362ZM393.251 384.999L397.251 384.987L397.239 381.017L393.269 380.999L393.251 384.999ZM393.251 383.999L393.232 387.999L397.239 388.018L397.251 384.01L393.251 383.999ZM394.224 369.098L396.314 365.687L396.314 365.687L394.224 369.098ZM403.469 439.781L399.688 441.085L400.323 442.927L402.165 443.562L403.469 439.781ZM530.078 433.306L531.763 436.934L531.955 436.845L532.137 436.736L530.078 433.306ZM538.992 428.841L540.504 432.544L540.701 432.464L540.888 432.363L538.992 428.841ZM562.941 413.205L565.402 416.359L569.412 413.229L565.425 410.07L562.941 413.205ZM516.25 355.832L512.674 357.625L512.674 357.625L516.25 355.832ZM507.683 335.567L511.461 334.252L510.825 332.425L508.998 331.789L507.683 335.567ZM487.418 327L489.211 323.425L489.211 323.425L487.418 327ZM430.045 280.309L433.18 277.825L430.021 273.838L426.891 277.848L430.045 280.309ZM429.408 279.5L432.558 281.965L434.487 279.5L432.558 277.035L429.408 279.5ZM430.045 278.691L426.891 281.152L430.021 285.162L433.18 281.175L430.045 278.691ZM487.418 232L485.625 228.424L485.625 228.424L487.418 232ZM507.683 223.433L508.998 227.211L510.825 226.575L511.461 224.748L507.683 223.433ZM508.548 223.99L504.769 222.68L504.769 222.68L508.548 223.99ZM508.469 224.219L509.778 227.999L511.613 227.363L512.249 225.528L508.469 224.219ZM508.24 224.298L506.93 220.519L506.93 220.519L508.24 224.298ZM487.867 232.893L489.66 236.469L489.66 236.469L487.867 232.893ZM430.68 279.5L427.542 277.02L425.582 279.5L427.542 281.98L430.68 279.5ZM487.867 326.107L486.073 329.682L486.073 329.682L487.867 326.107ZM508.24 334.702L506.93 338.481L506.93 338.481L508.24 334.702ZM508.469 334.781L512.249 333.472L511.613 331.637L509.778 331.001L508.469 334.781ZM508.548 335.01L504.769 336.32L504.769 336.32L508.548 335.01ZM517.143 355.383L520.719 353.59L520.719 353.59L517.143 355.383ZM563.75 412.57L561.27 415.708L563.75 417.668L566.23 415.708L563.75 412.57ZM610.357 355.383L613.932 357.177L613.932 357.177L610.357 355.383ZM618.952 335.01L622.731 336.32L622.731 336.319L618.952 335.01ZM619.031 334.781L617.722 331.001L615.887 331.637L615.251 333.472L619.031 334.781ZM619.26 334.702L620.569 338.481L620.57 338.481L619.26 334.702ZM639.633 326.107L641.427 329.682L641.427 329.682L639.633 326.107ZM696.82 279.5L699.958 281.98L701.918 279.5L699.958 277.02L696.82 279.5ZM639.633 232.893L637.84 236.469L637.84 236.469L639.633 232.893ZM619.26 224.298L620.57 220.519L620.569 220.519L619.26 224.298ZM619.031 224.219L615.251 225.528L615.887 227.363L617.722 227.999L619.031 224.219ZM618.952 223.99L622.731 222.681L622.731 222.68L618.952 223.99ZM610.357 203.617L613.932 201.823L613.932 201.823L610.357 203.617ZM563.75 146.43L566.23 143.292L563.75 141.332L561.27 143.292L563.75 146.43ZM562.941 145.795L565.425 148.93L569.412 145.771L565.402 142.641L562.941 145.795ZM538.992 130.159L540.888 126.637L540.701 126.537L540.505 126.456L538.992 130.159ZM530.078 125.694L532.137 122.264L531.955 122.155L531.763 122.066L530.078 125.694ZM403.469 119.219L402.165 115.438L400.323 116.073L399.688 117.915L403.469 119.219ZM394.592 189.678L392.516 186.259L392.516 186.259L394.592 189.678ZM406.649 240.867L403.421 243.229L410.333 239.309L406.649 240.867ZM365.849 215.376L362.683 212.931L362.683 212.931L365.849 215.376ZM365.663 215.617L368.836 218.053L368.836 218.052L365.663 215.617ZM516.25 203.168L519.825 204.961L519.825 204.961L516.25 203.168ZM433.249 246.062L436.677 248.123L436.677 248.123L433.249 246.062ZM428.794 254.955L425.09 253.444L425.09 253.444L428.794 254.955ZM414.409 254.742L410.706 256.255L410.786 256.451L410.887 256.638L414.409 254.742ZM409.944 245.828L406.316 247.513L406.405 247.705L406.514 247.887L409.944 245.828ZM517.143 203.617L513.568 201.823L513.568 201.823L517.143 203.617ZM416.403 298.659L412.578 297.491L419.858 300.676L416.403 298.659ZM416.403 260.341L419.858 258.324L412.578 261.509L416.403 260.341ZM428.794 304.045L432.497 302.533L432.497 302.533L428.794 304.045ZM433.249 312.938L436.876 311.252L436.787 311.059L436.677 310.877L433.249 312.938ZM449 384.5V388.5H453V384.5H449ZM409.944 313.172L406.514 311.113L406.405 311.295L406.316 311.487L409.944 313.172ZM414.409 304.258L410.887 302.362L410.787 302.549L410.706 302.745L414.409 304.258ZM384 109.5H388V105.5H384V109.5ZM278.707 145.5L281.179 142.356L278.707 140.411L276.234 142.356L278.707 145.5ZM231.653 203.099L228.078 201.306L228.077 201.306L231.653 203.099ZM245.562 125.251L247.623 121.823L247.623 121.823L245.562 125.251ZM254.455 129.706L255.967 126.003L255.967 126.003L254.455 129.706ZM303.545 129.706L302.033 126.003L302.033 126.003L303.545 129.706ZM312.438 125.251L310.752 121.624L310.559 121.713L310.377 121.823L312.438 125.251ZM312.438 433.749L310.377 437.177L310.377 437.177L312.438 433.749ZM303.545 429.294L302.033 432.997L302.033 432.997L303.545 429.294ZM254.455 429.294L252.944 425.59L252.944 425.59L254.455 429.294ZM245.562 433.749L247.248 437.376L247.441 437.287L247.623 437.177L245.562 433.749ZM174 449.5H170V453.5H174V449.5ZM278.707 412.913L276.234 416.057L278.707 418.002L281.179 416.057L278.707 412.913ZM202.892 326.553L206.467 328.348L206.467 328.348L202.892 326.553ZM124.751 312.938L121.323 310.877L121.323 310.877L124.751 312.938ZM129.206 304.045L125.503 302.533L125.503 302.533L129.206 304.045ZM129.206 254.955L132.91 253.444L132.91 253.444L129.206 254.955ZM124.751 246.062L121.124 247.748L121.213 247.941L121.323 248.123L124.751 246.062ZM109 174.5V170.5H105V174.5H109ZM202.599 232.153L200.806 228.577L200.806 228.578L202.599 232.153ZM145 279.207L141.856 276.734L139.911 279.207L141.856 281.679L145 279.207ZM202.599 326.26L200.806 329.836L200.806 329.836L202.599 326.26ZM326.053 355.608L327.848 352.033L327.848 352.033L326.053 355.608ZM406.649 318.133L410.333 319.691L403.421 315.771L406.649 318.133ZM412.413 279.207L415.557 281.679L417.502 279.207L415.557 276.734L412.413 279.207ZM355.108 326.553L351.533 328.348L351.533 328.348L355.108 326.553ZM409.059 312.703L412.487 314.765L412.596 314.582L412.686 314.389L409.059 312.703ZM413.503 303.831L417.026 305.726L417.127 305.539L417.207 305.341L413.503 303.831ZM413.503 255.169L417.207 253.659L417.127 253.461L417.026 253.274L413.503 255.169ZM409.059 246.297L412.686 244.611L412.596 244.418L412.487 244.235L409.059 246.297ZM539.419 129.253L537.524 132.776L537.711 132.877L537.909 132.957L539.419 129.253ZM530.547 124.809L528.485 128.237L528.668 128.346L528.861 128.436L530.547 124.809ZM588.081 129.253L589.591 132.957L589.789 132.877L589.977 132.776L588.081 129.253ZM596.953 124.809L598.639 128.436L598.832 128.346L599.015 128.237L596.953 124.809ZM544.591 132.153L545.759 128.328L542.574 135.608L544.591 132.153ZM563.75 145.158L561.285 148.308L563.75 150.237L566.215 148.308L563.75 145.158ZM582.909 132.153L584.926 135.608L581.741 128.328L582.909 132.153ZM588.508 130.159L586.995 126.456L586.799 126.537L586.612 126.637L588.508 130.159ZM564.559 145.795L562.098 142.641L558.088 145.771L562.075 148.93L564.559 145.795ZM597.422 125.694L595.737 122.066L595.545 122.155L595.363 122.264L597.422 125.694ZM724.031 119.219L727.812 117.915L727.177 116.073L725.335 115.438L724.031 119.219ZM717.557 245.828L720.986 247.887L721.095 247.705L721.184 247.513L717.557 245.828ZM713.091 254.742L716.613 256.638L716.714 256.451L716.794 256.255L713.091 254.742ZM697.455 278.691L694.32 281.175L697.479 285.162L700.609 281.152L697.455 278.691ZM640.082 232L641.875 228.424L641.875 228.424L640.082 232ZM619.817 223.433L616.039 224.748L616.675 226.575L618.502 227.211L619.817 223.433ZM611.25 203.168L607.675 204.961L607.675 204.961L611.25 203.168ZM602.383 122.399L600.021 119.171L603.941 126.083L602.383 122.399ZM668.249 109.001L668.26 113.001L672.268 112.989L672.249 108.982L668.249 109.001ZM582.106 6.6068L582.803 2.66815L580.987 10.4471L582.106 6.6068ZM587.126 6.59879L587.673 2.63631L586.244 10.5002L587.126 6.59879ZM669.249 109.001L665.249 109.019L665.267 112.989L669.237 113.001L669.249 109.001ZM723.612 118.019L722.326 121.806L730.129 124.457L727.383 116.686L723.612 118.019ZM725.231 119.638L726.564 115.867L718.793 113.121L721.444 120.924L725.231 119.638ZM734.249 174.001L730.249 174.013L730.261 177.983L734.231 178.001L734.249 174.001ZM836.651 256.124L832.75 257.006L840.614 255.577L836.651 256.124ZM836.643 261.144L832.803 262.263L840.582 260.447L836.643 261.144ZM734.249 175.001L734.268 171.001L730.261 170.982L730.249 174.99L734.249 175.001ZM720.851 240.867L717.167 239.309L724.079 243.229L720.851 240.867ZM713.997 255.169L710.474 253.274L710.373 253.462L710.293 253.659L713.997 255.169ZM718.441 246.297L715.013 244.235L714.904 244.418L714.814 244.611L718.441 246.297ZM713.997 303.831L710.293 305.341L710.373 305.539L710.474 305.726L713.997 303.831ZM718.441 312.703L714.814 314.389L714.904 314.582L715.013 314.765L718.441 312.703ZM711.097 260.341L714.922 261.509L707.642 258.324L711.097 260.341ZM698.092 279.5L694.942 277.035L693.013 279.5L694.942 281.965L698.092 279.5ZM711.097 298.659L707.642 300.676L714.922 297.491L711.097 298.659ZM713.091 304.258L716.794 302.746L716.714 302.549L716.613 302.362L713.091 304.258ZM697.455 280.309L700.609 277.848L697.479 273.838L694.32 277.825L697.455 280.309ZM717.57 313.195L714.142 315.256L714.142 315.256L717.57 313.195ZM836.643 297.856L840.582 298.553L832.803 296.737L836.643 297.856ZM733.25 384V380H729.25V384H733.25ZM724.031 439.781L725.335 443.562L727.177 442.927L727.812 441.085L724.031 439.781ZM597.422 433.306L595.363 436.736L595.545 436.845L595.737 436.934L597.422 433.306ZM588.508 428.841L586.612 432.363L586.799 432.464L586.995 432.544L588.508 428.841ZM564.559 413.205L562.075 410.07L558.088 413.229L562.098 416.359L564.559 413.205ZM611.25 355.832L607.675 354.039L607.675 354.039L611.25 355.832ZM619.817 335.567L618.502 331.789L616.675 332.425L616.039 334.252L619.817 335.567ZM640.082 327L641.875 330.576L641.875 330.576L640.082 327ZM836.651 302.876L840.614 303.423L832.75 301.994L836.651 302.876ZM734.249 384.999L734.231 380.999L730.261 381.017L730.249 384.987L734.249 384.999ZM725.231 439.362L721.444 438.076L718.793 445.879L726.564 443.133L725.231 439.362ZM723.612 440.981L727.383 442.314L730.129 434.543L722.326 437.194L723.612 440.981ZM669.249 449.999L669.237 445.999L665.267 446.011L665.249 449.981L669.249 449.999ZM587.126 552.401L586.244 548.5L587.673 556.364L587.126 552.401ZM582.106 552.393L580.987 548.553L582.803 556.332L582.106 552.393ZM668.249 449.999L672.249 450.018L672.268 446.011L668.26 445.999L668.249 449.999ZM602.383 436.601L603.941 432.917L600.021 439.829L602.383 436.601ZM588.081 429.747L589.976 426.224L589.789 426.123L589.591 426.043L588.081 429.747ZM596.953 434.191L599.015 430.763L598.832 430.654L598.639 430.564L596.953 434.191ZM539.419 429.747L537.909 426.043L537.712 426.123L537.524 426.224L539.419 429.747ZM530.547 434.191L528.861 430.564L528.668 430.654L528.485 430.763L530.547 434.191ZM582.909 426.847L581.741 430.672L584.926 423.392L582.909 426.847ZM563.75 413.842L566.215 410.692L563.75 408.763L561.285 410.692L563.75 413.842ZM544.591 426.847L542.574 423.392L545.759 430.672L544.591 426.847ZM525.117 436.601L527.479 439.829L523.559 432.917L525.117 436.601ZM459.251 449.999L459.24 445.999L455.232 446.011L455.251 450.018L459.251 449.999ZM545.394 552.393L544.697 556.332L546.513 548.553L545.394 552.393ZM540.374 552.401L539.827 556.364L541.256 548.5L540.374 552.401ZM458.251 449.999L462.251 449.981L462.233 446.011L458.263 445.999L458.251 449.999ZM403.888 440.981L405.174 437.194L397.371 434.543L400.117 442.314L403.888 440.981ZM593.601 552.396L592.906 548.457L594.031 556.372L593.601 552.396ZM724.817 440.567L723.502 436.789L721.675 437.425L721.039 439.252L724.817 440.567ZM836.646 309.351L840.622 309.781L832.707 308.656L836.646 309.351ZM836.646 249.649L832.707 250.344L840.622 249.219L836.646 249.649ZM724.817 118.433L721.039 119.748L721.675 121.575L723.502 122.211L724.817 118.433ZM593.601 6.60439L594.031 2.62757L592.906 10.5434L593.601 6.60439ZM540.374 6.59878L541.256 10.5002L539.827 2.63631L540.374 6.59878ZM403.888 118.019L400.117 116.686L397.371 124.457L405.174 121.806L403.888 118.019ZM458.251 109.001L458.263 113.001L462.233 112.989L462.251 109.019L458.251 109.001ZM459.251 109.001L455.251 108.982L455.232 112.989L459.24 113.001L459.251 109.001ZM525.117 122.399L523.559 126.083L527.479 119.171L525.117 122.399ZM545.394 6.60679L546.513 10.4471L544.697 2.66814L545.394 6.60679ZM294.697 262.263C300.261 243.169 314.845 227.904 333.524 221.402L330.895 213.847C309.781 221.196 293.307 238.435 287.016 260.026L294.697 262.263ZM315.907 203.917C301.136 219.128 290.778 238.662 286.918 260.447L294.795 261.842C298.368 241.68 307.955 223.589 321.646 209.491L315.907 203.917ZM320.293 210.406C322.82 209.37 325.299 208.243 327.727 207.028L324.146 199.874C321.897 201 319.601 202.044 317.26 203.003L320.293 210.406ZM335.938 216.175C334.013 211.225 331.868 206.384 329.516 201.666L322.356 205.236C324.6 209.736 326.646 214.353 328.481 219.074L335.938 216.175ZM353.75 218C357.694 218 361.548 218.371 365.28 219.078L366.77 211.218C362.549 210.418 358.197 210 353.75 210V218ZM333.524 221.402C339.853 219.199 346.657 218 353.75 218V210C345.75 210 338.058 211.353 330.895 213.847L333.524 221.402ZM336.306 217.131C336.184 216.812 336.061 216.493 335.938 216.175L328.481 219.074C328.599 219.378 328.717 219.681 328.833 219.986L336.306 217.131ZM331.256 214.78C304.479 224.085 285.25 249.542 285.25 279.5H293.25C293.25 253.052 310.223 230.559 333.882 222.337L331.256 214.78ZM285.25 279.5C285.25 309.379 304.378 334.781 331.045 344.146L333.696 336.598C310.134 328.323 293.25 305.878 293.25 279.5H285.25ZM335.731 342.767C335.856 342.449 335.98 342.131 336.103 341.812L328.639 338.933C328.522 339.237 328.403 339.54 328.284 339.843L335.731 342.767ZM333.335 337.532C314.746 330.993 300.242 315.767 294.697 296.737L287.016 298.974C293.286 320.493 309.67 337.687 330.68 345.078L333.335 337.532ZM286.918 298.553C290.778 320.338 301.136 339.872 315.907 355.083L321.646 349.509C307.955 335.411 298.368 317.32 294.795 297.158L286.918 298.553ZM320.293 348.594C319.53 348.282 318.763 347.978 317.992 347.682L315.13 355.153C315.844 355.427 316.554 355.708 317.26 355.997L320.293 348.594ZM319.487 348.69C307.469 335.798 298.773 319.779 294.75 301.994L286.947 303.759C291.291 322.961 300.678 340.244 313.635 354.145L319.487 348.69ZM286.886 303.423C289.089 319.393 293.466 334.67 299.708 348.946L307.038 345.741C301.086 332.128 296.912 317.561 294.811 302.33L286.886 303.423ZM304.298 343.452C303.879 343.352 303.46 343.255 303.039 343.16L301.282 350.965C301.671 351.053 302.06 351.143 302.448 351.235L304.298 343.452ZM305.832 345.476C300.801 333.831 297.061 321.498 294.793 308.656L286.915 310.047C289.293 323.509 293.213 336.44 298.488 348.649L305.832 345.476ZM286.878 309.781C288.252 322.486 290.48 334.936 293.505 347.072L301.267 345.137C298.33 333.353 296.166 321.262 294.831 308.921L286.878 309.781ZM298.082 342.165C297.71 342.1 297.337 342.036 296.964 341.974L295.655 349.866C296.001 349.923 296.346 349.983 296.69 350.043L298.082 342.165ZM300.193 344.959C295.004 323.998 292.25 302.074 292.25 279.5H284.25C284.25 302.727 287.084 325.297 292.427 346.881L300.193 344.959ZM292.25 279.5C292.25 256.926 295.004 235.002 300.193 214.041L292.427 212.119C287.084 233.703 284.25 256.274 284.25 279.5H292.25ZM296.964 217.026C297.337 216.964 297.71 216.9 298.082 216.835L296.69 208.957C296.346 209.017 296.001 209.077 295.655 209.134L296.964 217.026ZM293.505 211.928C290.48 224.064 288.252 236.514 286.878 249.219L294.831 250.079C296.166 237.738 298.33 225.647 301.267 213.863L293.505 211.928ZM294.793 250.344C297.061 237.502 300.801 225.169 305.832 213.524L298.488 210.351C293.213 222.56 289.293 235.491 286.915 248.953L294.793 250.344ZM303.039 215.84C303.459 215.745 303.879 215.648 304.298 215.548L302.448 207.765C302.06 207.857 301.671 207.947 301.282 208.035L303.039 215.84ZM299.708 210.054C293.466 224.33 289.089 239.607 286.886 255.577L294.811 256.67C296.912 241.439 301.086 226.872 307.038 213.259L299.708 210.054ZM294.75 257.006C298.773 239.221 307.469 223.202 319.487 210.31L313.635 204.855C300.678 218.756 291.291 236.039 286.947 255.241L294.75 257.006ZM317.992 211.317C318.763 211.022 319.53 210.718 320.293 210.406L317.26 203.003C316.554 203.292 315.844 203.573 315.129 203.847L317.992 211.317ZM322.071 198.047C319.94 199.923 317.884 201.882 315.907 203.917L321.646 209.491C323.478 207.604 325.384 205.789 327.358 204.051L322.071 198.047ZM329.336 201.306C328.983 200.604 328.627 199.904 328.265 199.207L321.164 202.89C321.508 203.555 321.849 204.222 322.185 204.892L329.336 201.306ZM329.516 201.667C329.456 201.546 329.396 201.426 329.336 201.306L322.185 204.892C322.242 205.007 322.299 205.121 322.356 205.236L329.516 201.667ZM327.727 207.028C327.767 207.008 327.807 206.988 327.848 206.967L324.259 199.817C324.221 199.836 324.183 199.855 324.145 199.875L327.727 207.028ZM327.848 206.967C338.79 201.473 348.676 194.192 357.126 185.509L351.392 179.93C343.558 187.981 334.395 194.728 324.259 199.818L327.848 206.967ZM355.772 186.422C367.344 181.696 379.998 179.063 393.269 179.001L393.232 171.001C378.919 171.068 365.251 173.909 352.746 179.016L355.772 186.422ZM389.251 175.013C389.266 180.208 389.508 185.35 389.968 190.431L397.935 189.709C397.496 184.861 397.265 179.951 397.251 174.99L389.251 175.013ZM391.851 186.666C380.695 193.547 370.875 202.383 362.866 212.695L369.184 217.602C376.609 208.042 385.713 199.852 396.051 193.474L391.851 186.666ZM366.055 212.103C362.06 211.378 357.948 211 353.75 211V219C357.466 219 361.101 219.335 364.627 219.974L366.055 212.103ZM353.75 211C345.878 211 338.307 212.33 331.256 214.78L333.882 222.337C340.1 220.176 346.784 219 353.75 219V211ZM338.16 222.223C337.568 220.513 336.95 218.816 336.306 217.131L328.833 219.986C329.447 221.593 330.036 223.212 330.601 224.842L338.16 222.223ZM356.607 228.578C349.873 225.2 342.889 222.247 335.69 219.753L333.071 227.312C339.937 229.691 346.598 232.507 353.021 235.729L356.607 228.578ZM356.968 228.759C356.848 228.698 356.728 228.638 356.607 228.577L353.021 235.729C353.136 235.786 353.25 235.844 353.365 235.902L356.968 228.759ZM351.594 230.531C351.573 230.572 351.553 230.612 351.534 230.65L358.682 234.243C358.701 234.204 358.72 234.166 358.739 234.129L351.594 230.531ZM351.533 230.652C344.153 245.35 340 261.946 340 279.5H348C348 263.22 351.849 247.851 358.682 234.241L351.533 230.652ZM340 279.5C340 296.909 344.084 313.375 351.35 327.983L358.513 324.42C351.785 310.894 348 295.645 348 279.5H340ZM356.608 329.836C356.646 329.816 356.687 329.796 356.728 329.775L353.135 322.627C353.098 322.646 353.06 322.665 353.021 322.685L356.608 329.836ZM335.69 338.66C342.889 336.166 349.873 333.213 356.607 329.836L353.021 322.685C346.598 325.906 339.937 328.723 333.071 331.101L335.69 338.66ZM336.103 341.812C336.82 339.953 337.506 338.079 338.16 336.19L330.601 333.571C329.977 335.373 329.323 337.16 328.639 338.933L336.103 341.812ZM331.045 344.146C338.156 346.644 345.799 348 353.75 348V340C346.714 340 339.967 338.801 333.696 336.598L331.045 344.146ZM353.75 348C357.948 348 362.06 347.622 366.055 346.897L364.627 339.026C361.101 339.665 357.466 340 353.75 340V348ZM362.156 345.381C362.391 345.691 362.628 345.999 362.866 346.305L369.184 341.398C368.963 341.114 368.744 340.828 368.526 340.542L362.156 345.381ZM365.28 339.922C361.548 340.629 357.694 341 353.75 341V349C358.197 349 362.549 348.582 366.77 347.782L365.28 339.922ZM353.75 341C346.587 341 339.718 339.777 333.335 337.532L330.68 345.078C337.904 347.62 345.67 349 353.75 349V341ZM329.336 357.107C331.675 352.443 333.81 347.659 335.731 342.767L328.284 339.843C326.453 344.509 324.416 349.072 322.185 353.521L329.336 357.107ZM329.275 357.228C329.296 357.187 329.316 357.146 329.336 357.108L322.185 353.521C322.165 353.56 322.146 353.598 322.127 353.635L329.275 357.228ZM327.483 351.85C325.133 350.681 322.735 349.595 320.293 348.594L317.26 355.997C319.522 356.924 321.743 357.93 323.92 359.013L327.483 351.85ZM315.907 355.083C317.817 357.049 319.8 358.944 321.854 360.761L327.157 354.772C325.254 353.087 323.416 351.332 321.646 349.509L315.907 355.083ZM327.561 360.55C327.725 360.24 327.889 359.929 328.051 359.618L320.959 355.915C320.804 356.213 320.648 356.509 320.492 356.805L327.561 360.55ZM326.671 355.677C324.163 353.467 321.765 351.135 319.487 348.69L313.635 354.145C316.092 356.781 318.677 359.295 321.381 361.679L326.671 355.677ZM317.992 347.682C313.559 345.984 308.987 344.566 304.298 343.452L302.448 351.235C306.79 352.267 311.024 353.58 315.129 355.153L317.992 347.682ZM299.708 348.946C303.499 357.616 307.978 365.916 313.075 373.776L319.787 369.424C314.925 361.925 310.653 354.009 307.038 345.741L299.708 348.946ZM319.175 374.714C319.38 374.402 319.584 374.09 319.787 373.777L313.075 369.423C312.882 369.722 312.687 370.019 312.492 370.317L319.175 374.714ZM319.184 370.33C314.063 362.478 309.588 354.169 305.832 345.476L298.488 348.649C302.425 357.762 307.117 366.472 312.483 374.7L319.184 370.33ZM303.039 343.16C301.4 342.791 299.747 342.459 298.082 342.165L296.69 350.043C298.233 350.316 299.764 350.623 301.282 350.965L303.039 343.16ZM293.505 347.072C296.627 359.597 300.596 371.786 305.349 383.575L312.769 380.584C308.153 369.136 304.299 357.299 301.267 345.137L293.505 347.072ZM311.519 385.446C311.761 385.132 312.002 384.818 312.242 384.503L305.876 379.657C305.647 379.958 305.417 380.258 305.186 380.557L311.519 385.446ZM312.059 381.498C307.276 369.707 303.298 357.505 300.193 344.959L292.427 346.881C295.625 359.8 299.721 372.365 304.646 384.505L312.059 381.498ZM296.964 341.974C291.118 341.004 285.116 340.5 279 340.5V348.5C284.676 348.5 290.239 348.968 295.655 349.866L296.964 341.974ZM279 340.5C261.446 340.5 244.85 344.653 230.152 352.033L233.741 359.182C247.351 352.349 262.72 348.5 279 348.5V340.5ZM230.15 352.034C230.112 352.053 230.072 352.073 230.031 352.094L233.629 359.239C233.666 359.22 233.704 359.201 233.743 359.182L230.15 352.034ZM228.077 357.107C228.138 357.228 228.198 357.348 228.259 357.468L235.402 353.865C235.344 353.75 235.286 353.636 235.229 353.521L228.077 357.107ZM219.253 336.19C221.747 343.389 224.7 350.373 228.078 357.107L235.229 353.521C232.007 347.098 229.191 340.437 226.812 333.571L219.253 336.19ZM201.166 330.016C207.789 333.318 214.653 336.211 221.723 338.66L224.342 331.101C217.599 328.765 211.053 326.006 204.736 322.856L201.166 330.016ZM210 279.5C210 295.735 206.172 311.064 199.374 324.646L206.528 328.227C213.87 313.559 218 297.006 218 279.5H210ZM199.318 234.241C206.151 247.851 210 263.22 210 279.5H218C218 261.946 213.847 245.35 206.467 230.652L199.318 234.241ZM199.147 233.903C199.204 234.016 199.261 234.129 199.318 234.241L206.467 230.652C206.406 230.53 206.344 230.408 206.283 230.287L199.147 233.903ZM221.723 219.753C214.566 222.232 207.622 225.166 200.925 228.518L204.505 235.672C210.894 232.474 217.517 229.677 224.342 227.312L221.723 219.753ZM228.018 201.425C224.666 208.122 221.732 215.066 219.253 222.223L226.812 224.842C229.177 218.017 231.974 211.394 235.172 205.005L228.018 201.425ZM229.787 206.783C229.908 206.844 230.03 206.906 230.152 206.967L233.741 199.818C233.629 199.761 233.516 199.704 233.403 199.647L229.787 206.783ZM230.152 206.967C244.85 214.347 261.446 218.5 279 218.5V210.5C262.72 210.5 247.351 206.651 233.741 199.818L230.152 206.967ZM279 218.5C285.116 218.5 291.118 217.996 296.964 217.026L295.655 209.134C290.239 210.032 284.676 210.5 279 210.5V218.5ZM300.193 214.041C303.331 201.36 307.362 189.031 312.213 177.124L304.804 174.105C299.809 186.366 295.659 199.062 292.427 212.119L300.193 214.041ZM312.4 174.119C312.161 173.804 311.92 173.489 311.678 173.175L305.339 178.054C305.569 178.354 305.799 178.654 306.027 178.955L312.4 174.119ZM305.506 175.036C300.683 186.946 296.661 199.266 293.505 211.928L301.267 213.863C304.332 201.567 308.238 189.604 312.921 178.038L305.506 175.036ZM298.082 216.835C299.747 216.541 301.4 216.209 303.039 215.84L301.282 208.035C299.764 208.377 298.233 208.684 296.69 208.957L298.082 216.835ZM305.832 213.524C309.634 204.725 314.172 196.319 319.371 188.383L312.68 183.999C307.231 192.316 302.473 201.127 298.488 210.351L305.832 213.524ZM319.982 184.937C319.779 184.624 319.576 184.311 319.372 183.999L312.679 188.382C312.874 188.68 313.068 188.978 313.261 189.277L319.982 184.937ZM313.27 184.924C308.092 192.873 303.547 201.274 299.708 210.054L307.038 213.259C310.699 204.886 315.033 196.874 319.973 189.29L313.27 184.924ZM304.298 215.548C308.987 214.434 313.559 213.016 317.992 211.317L315.13 203.847C311.024 205.42 306.79 206.733 302.448 207.765L304.298 215.548ZM319.487 210.31C321.827 207.799 324.293 205.407 326.874 203.144L321.601 197.128C318.817 199.569 316.158 202.148 313.635 204.855L319.487 210.31ZM328.265 199.207C328.103 198.895 327.941 198.584 327.777 198.273L320.698 202C320.854 202.296 321.009 202.593 321.163 202.89L328.265 199.207ZM352.746 179.016C341.44 183.635 331.089 190.105 322.071 198.047L327.358 204.051C335.716 196.69 345.304 190.698 355.772 186.422L352.746 179.016ZM352.973 178.268C352.453 178.828 351.925 179.382 351.392 179.93L357.126 185.509C357.701 184.918 358.27 184.32 358.831 183.716L352.973 178.268ZM357.338 184.726C368.494 180.437 380.603 178.06 393.269 178.001L393.232 170.001C379.582 170.064 366.514 172.627 354.467 177.259L357.338 184.726ZM397.251 174.013C397.304 155.439 400.397 137.587 406.056 120.924L398.481 118.352C392.547 135.825 389.306 154.537 389.251 173.99L397.251 174.013ZM400.936 115.867C393.92 118.346 387.111 121.263 380.542 124.585L384.153 131.724C390.418 128.555 396.911 125.773 403.601 123.41L400.936 115.867ZM378.615 126.269C378.549 126.663 378.481 127.056 378.411 127.449L386.285 128.861C386.361 128.437 386.434 128.013 386.505 127.588L378.615 126.269ZM384.35 130.506C390.68 127.338 397.24 124.563 403.998 122.211L401.368 114.655C394.283 117.121 387.406 120.031 380.77 123.351L384.35 130.506ZM406.461 119.748C426.011 63.5789 474.805 21.1016 534.594 10.5434L533.203 2.66533C470.518 13.7348 419.394 58.2524 398.905 117.118L406.461 119.748ZM533.469 2.62757C455.161 11.0962 386.595 52.0205 341.49 111.657L347.87 116.483C391.693 58.5423 458.291 18.8043 534.329 10.5812L533.469 2.62757ZM344.108 118.324C344.605 118.201 345.103 118.081 345.602 117.962L343.758 110.178C343.235 110.302 342.713 110.428 342.192 110.556L344.108 118.324ZM563.75 0C472.196 0 390.923 44.0242 339.949 112.041L346.351 116.839C395.879 50.7508 474.822 8 563.75 8V0ZM843.25 279.5C843.25 125.136 718.114 0 563.75 0V8C713.695 8 835.25 129.555 835.25 279.5H843.25ZM563.75 559C718.114 559 843.25 433.864 843.25 279.5H835.25C835.25 429.445 713.695 551 563.75 551V559ZM375.732 486.311C425.375 531.468 491.352 559 563.75 559V551C493.419 551 429.343 524.263 381.115 480.393L375.732 486.311ZM374.971 481.066C374.861 481.399 374.75 481.731 374.637 482.063L382.21 484.641C382.332 484.283 382.452 483.924 382.571 483.564L374.971 481.066ZM376.074 485.269C418.569 524.049 473.128 549.847 533.469 556.372L534.329 548.419C475.734 542.082 422.749 517.033 381.467 479.36L376.074 485.269ZM534.594 548.457C474.805 537.898 426.011 495.421 406.461 439.252L398.905 441.882C419.394 500.748 470.518 545.265 533.203 556.335L534.594 548.457ZM403.998 436.789C397.24 434.437 390.68 431.662 384.35 428.494L380.77 435.649C387.406 438.969 394.283 441.879 401.368 444.345L403.998 436.789ZM378.411 431.551C378.481 431.943 378.549 432.337 378.615 432.731L386.505 431.412C386.434 430.987 386.361 430.563 386.285 430.139L378.411 431.551ZM403.601 435.59C396.911 433.227 390.418 430.445 384.153 427.276L380.542 434.415C387.111 437.737 393.92 440.654 400.936 443.133L403.601 435.59ZM389.251 385.01C389.306 404.463 392.547 423.175 398.481 440.648L406.056 438.076C400.397 421.413 397.304 403.561 397.251 384.987L389.251 385.01ZM354.467 381.741C366.514 386.373 379.582 388.936 393.232 388.999L393.269 380.999C380.603 380.94 368.494 378.563 357.338 374.274L354.467 381.741ZM351.392 379.07C351.926 379.618 352.453 380.172 352.973 380.732L358.831 375.284C358.27 374.68 357.701 374.082 357.126 373.491L351.392 379.07ZM393.269 379.999C379.998 379.937 367.344 377.304 355.772 372.578L352.747 379.984C365.251 385.091 378.919 387.932 393.232 387.999L393.269 379.999ZM389.968 368.569C389.508 373.65 389.266 378.792 389.251 383.987L397.251 384.01C397.265 379.049 397.496 374.139 397.935 369.291L389.968 368.569ZM396.314 365.687C396.226 365.633 396.139 365.58 396.051 365.525L391.852 372.335C391.946 372.393 392.04 372.451 392.135 372.509L396.314 365.687ZM396.967 366.084C396.749 365.952 396.531 365.82 396.314 365.687L392.134 372.508C392.369 372.652 392.604 372.795 392.84 372.937L396.967 366.084ZM398.25 384.5C398.25 379.566 398.466 374.682 398.888 369.86L390.919 369.161C390.476 374.216 390.25 379.332 390.25 384.5H398.25ZM407.251 438.477C401.419 421.565 398.25 403.407 398.25 384.5H390.25C390.25 404.307 393.57 423.345 399.688 441.085L407.251 438.477ZM458.75 445C439.843 445 421.685 441.831 404.773 435.999L402.165 443.562C419.905 449.68 438.943 453 458.75 453V445ZM528.392 429.679C507.229 439.51 483.637 445 458.75 445V453C484.825 453 509.566 447.246 531.763 436.934L528.392 429.679ZM537.479 425.138C534.191 426.481 531.03 428.069 528.018 429.877L532.137 436.736C534.802 435.135 537.598 433.731 540.504 432.544L537.479 425.138ZM560.48 410.052C553.153 415.769 545.333 420.883 537.095 425.319L540.888 432.363C549.525 427.712 557.723 422.351 565.402 416.359L560.48 410.052ZM512.674 357.625C524.165 380.538 540.55 400.566 560.457 416.34L565.425 410.07C546.425 395.013 530.788 375.899 519.825 354.039L512.674 357.625ZM503.905 336.882C506.389 344.019 509.324 350.944 512.674 357.625L519.825 354.039C516.629 347.666 513.83 341.059 511.461 334.252L503.905 336.882ZM485.625 330.576C492.306 333.926 499.231 336.861 506.368 339.345L508.998 331.789C502.191 329.42 495.584 326.621 489.211 323.425L485.625 330.576ZM426.91 282.793C442.684 302.7 462.712 319.085 485.625 330.576L489.211 323.425C467.351 312.462 448.237 296.825 433.18 277.825L426.91 282.793ZM427.808 290.081C429.539 287.593 431.337 285.155 433.198 282.77L426.891 277.848C424.94 280.348 423.056 282.904 421.241 285.512L427.808 290.081ZM420.373 286.714C420.428 287.245 420.489 287.774 420.557 288.302L428.492 287.291C428.433 286.825 428.379 286.357 428.33 285.887L420.373 286.714ZM426.258 277.035C424.477 279.31 422.752 281.63 421.083 283.994L427.62 288.607C429.212 286.351 430.858 284.137 432.558 281.965L426.258 277.035ZM421.083 275.006C422.752 277.37 424.477 279.69 426.258 281.965L432.558 277.035C430.858 274.863 429.212 272.649 427.62 270.393L421.083 275.006ZM420.557 270.698C420.489 271.226 420.428 271.755 420.373 272.286L428.33 273.113C428.379 272.643 428.433 272.175 428.492 271.709L420.557 270.698ZM433.198 276.23C431.337 273.845 429.539 271.407 427.808 268.919L421.241 273.488C423.056 276.096 424.94 278.652 426.891 281.152L433.198 276.23ZM485.625 228.424C462.712 239.915 442.684 256.3 426.91 276.207L433.18 281.175C448.237 262.175 467.351 246.538 489.211 235.575L485.625 228.424ZM506.368 219.655C499.231 222.139 492.306 225.074 485.625 228.424L489.211 235.575C495.584 232.379 502.191 229.58 508.998 227.211L506.368 219.655ZM505.998 216.429C505.269 218.309 504.571 220.206 503.905 222.118L511.461 224.748C512.096 222.924 512.761 221.115 513.457 219.321L505.998 216.429ZM508.453 221.666C508.75 221.766 509.045 221.868 509.34 221.972L512.007 214.43C511.673 214.312 511.338 214.196 511.002 214.083L508.453 221.666ZM506.944 216.754C506.184 218.712 505.459 220.688 504.769 222.68L512.328 225.299C512.986 223.399 513.678 221.516 514.403 219.648L506.944 216.754ZM504.769 222.68L504.689 222.91L512.249 225.528L512.328 225.299L504.769 222.68ZM507.16 220.439L506.93 220.519L509.549 228.078L509.778 227.999L507.16 220.439ZM506.93 220.519C499.752 223.006 492.788 225.95 486.073 229.318L489.66 236.469C496.064 233.257 502.705 230.449 509.549 228.078L506.93 220.519ZM486.073 229.318C463.219 240.78 443.25 257.14 427.542 277.02L433.819 281.98C448.808 263.01 467.861 247.401 489.66 236.469L486.073 229.318ZM427.542 281.98C443.25 301.86 463.219 318.22 486.073 329.682L489.66 322.531C467.861 311.599 448.808 295.99 433.819 277.02L427.542 281.98ZM486.073 329.682C492.788 333.05 499.752 335.994 506.93 338.481L509.549 330.922C502.705 328.551 496.064 325.743 489.66 322.531L486.073 329.682ZM506.93 338.481L507.16 338.561L509.778 331.001L509.549 330.922L506.93 338.481ZM504.689 336.09L504.769 336.32L512.328 333.701L512.249 333.472L504.689 336.09ZM504.769 336.32C507.256 343.498 510.2 350.462 513.568 357.177L520.719 353.59C517.507 347.186 514.699 340.545 512.328 333.701L504.769 336.32ZM513.568 357.177C525.03 380.031 541.39 400 561.27 415.708L566.23 409.431C547.26 394.442 531.651 375.389 520.719 353.59L513.568 357.177ZM566.23 415.708C586.11 400 602.47 380.031 613.932 357.177L606.781 353.59C595.849 375.389 580.24 394.442 561.27 409.431L566.23 415.708ZM613.932 357.177C617.3 350.462 620.244 343.498 622.731 336.32L615.172 333.701C612.801 340.545 609.993 347.186 606.781 353.59L613.932 357.177ZM622.731 336.319L622.811 336.09L615.251 333.472L615.172 333.701L622.731 336.319ZM620.34 338.561L620.569 338.481L617.951 330.922L617.722 331.001L620.34 338.561ZM620.57 338.481C627.748 335.994 634.712 333.05 641.427 329.682L637.84 322.531C631.436 325.743 624.795 328.551 617.951 330.922L620.57 338.481ZM641.427 329.682C664.281 318.22 684.25 301.86 699.958 281.98L693.681 277.02C678.692 295.99 659.639 311.599 637.84 322.531L641.427 329.682ZM699.958 277.02C684.25 257.14 664.281 240.78 641.427 229.318L637.84 236.469C659.639 247.401 678.692 263.01 693.681 281.98L699.958 277.02ZM641.427 229.318C634.712 225.95 627.748 223.006 620.57 220.519L617.951 228.078C624.795 230.449 631.436 233.257 637.84 236.469L641.427 229.318ZM620.569 220.519L620.34 220.439L617.722 227.999L617.951 228.078L620.569 220.519ZM622.811 222.91L622.731 222.681L615.172 225.298L615.251 225.528L622.811 222.91ZM622.731 222.68C620.244 215.502 617.3 208.538 613.932 201.823L606.781 205.41C609.993 211.814 612.801 218.455 615.172 225.299L622.731 222.68ZM613.932 201.823C602.47 178.969 586.11 159 566.23 143.292L561.27 149.569C580.24 164.558 595.849 183.611 606.781 205.41L613.932 201.823ZM561.27 143.292C542.216 158.347 526.395 177.317 515.022 198.989L522.106 202.707C532.954 182.035 548.048 163.935 566.23 149.569L561.27 143.292ZM521.215 197.853C520.949 197.617 520.681 197.383 520.412 197.149L515.169 203.191C515.418 203.407 515.666 203.625 515.913 203.843L521.215 197.853ZM560.457 142.66C541.444 157.726 525.643 176.673 514.251 198.307L521.33 202.034C532.199 181.393 547.278 163.311 565.425 148.93L560.457 142.66ZM537.095 133.681C545.334 138.117 553.153 143.231 560.48 148.948L565.402 142.641C557.723 136.649 549.525 131.288 540.888 126.637L537.095 133.681ZM528.018 129.123C531.03 130.931 534.191 132.519 537.479 133.862L540.505 126.456C537.598 125.269 534.802 123.865 532.137 122.264L528.018 129.123ZM458.75 114C483.637 114 507.229 119.49 528.393 129.321L531.763 122.066C509.566 111.754 484.825 106 458.75 106V114ZM404.773 123.001C421.685 117.169 439.843 114 458.75 114V106C438.943 106 419.905 109.32 402.165 115.438L404.773 123.001ZM398.25 174.5C398.25 155.593 401.419 137.435 407.251 120.523L399.688 117.915C393.57 135.655 390.25 154.693 390.25 174.5H398.25ZM398.888 189.14C398.466 184.318 398.25 179.435 398.25 174.5H390.25C390.25 179.668 390.476 184.784 390.919 189.839L398.888 189.14ZM396.668 193.097C396.767 193.037 396.867 192.976 396.968 192.916L392.84 186.063C392.732 186.128 392.624 186.193 392.516 186.259L396.668 193.097ZM396.051 193.474C396.256 193.348 396.462 193.222 396.668 193.097L392.516 186.259C392.294 186.393 392.073 186.529 391.851 186.665L396.051 193.474ZM410.333 239.309C403.787 223.833 399.515 207.161 397.935 189.709L389.968 190.431C391.623 208.72 396.102 226.199 402.965 242.425L410.333 239.309ZM365.28 219.078C380.87 222.034 394.388 230.881 403.421 243.229L409.878 238.505C399.682 224.568 384.411 214.563 366.77 211.218L365.28 219.078ZM362.866 212.694C362.805 212.773 362.744 212.852 362.683 212.931L369.014 217.821C369.071 217.748 369.127 217.675 369.184 217.602L362.866 212.694ZM362.683 212.931C362.619 213.014 362.554 213.097 362.49 213.181L368.836 218.052C368.895 217.975 368.955 217.898 369.015 217.82L362.683 212.931ZM362.49 213.181C362.378 213.327 362.267 213.473 362.156 213.619L368.526 218.458C368.629 218.323 368.732 218.188 368.836 218.053L362.49 213.181ZM449 170.5C428.465 170.5 409.245 176.182 392.84 186.063L396.967 192.916C412.161 183.765 429.96 178.5 449 178.5V170.5ZM520.412 197.149C501.287 180.55 476.312 170.5 449 170.5V178.5C474.313 178.5 497.443 187.807 515.169 203.191L520.412 197.149ZM514.251 198.307C513.716 199.323 513.19 200.346 512.674 201.375L519.825 204.961C520.317 203.98 520.819 203.004 521.33 202.034L514.251 198.307ZM512.674 201.375C510.221 206.266 507.991 211.288 505.998 216.429L513.457 219.321C515.358 214.418 517.485 209.627 519.825 204.961L512.674 201.375ZM489 218.5C495.808 218.5 502.348 219.614 508.453 221.666L511.002 214.083C504.087 211.758 496.686 210.5 489 210.5V218.5ZM436.677 248.123C447.35 230.366 466.791 218.5 489 218.5V210.5C463.869 210.5 441.88 223.938 429.82 244.002L436.677 248.123ZM432.497 256.467C433.68 253.568 435.08 250.78 436.677 248.123L429.82 244.002C428.014 247.007 426.43 250.162 425.09 253.444L432.497 256.467ZM428.492 271.709C429.171 266.382 430.537 261.271 432.497 256.467L425.09 253.444C422.87 258.884 421.324 264.671 420.557 270.698L428.492 271.709ZM410.887 256.638C414.024 262.463 417.483 268.088 421.241 273.488L427.808 268.919C424.222 263.767 420.922 258.401 417.931 252.845L410.887 256.638ZM406.514 247.887C408.115 250.552 409.519 253.348 410.706 256.255L418.112 253.229C416.769 249.941 415.181 246.78 413.373 243.768L406.514 247.887ZM390.919 189.839C392.71 210.285 398.049 229.717 406.316 247.513L413.571 244.143C405.689 227.174 400.597 208.644 398.888 189.14L390.919 189.839ZM558 279.5C558 246.999 543.771 217.817 521.215 197.853L515.913 203.843C536.826 222.354 550 249.386 550 279.5H558ZM509.34 221.972C533.034 230.35 550 252.949 550 279.5H558C558 249.453 538.797 223.902 512.007 214.43L509.34 221.972ZM513.568 201.823C511.135 206.675 508.923 211.656 506.944 216.754L514.403 219.648C516.289 214.787 518.399 210.036 520.719 205.41L513.568 201.823ZM515.022 198.989C514.529 199.929 514.044 200.874 513.568 201.823L520.719 205.41C521.173 204.504 521.636 203.603 522.106 202.707L515.022 198.989ZM428 279.5C428 277.342 428.112 275.211 428.33 273.113L420.373 272.286C420.126 274.658 420 277.065 420 279.5H428ZM428.33 285.887C428.112 283.789 428 281.658 428 279.5H420C420 281.935 420.126 284.342 420.373 286.714L428.33 285.887ZM419.858 300.676C422.275 296.536 424.865 292.51 427.62 288.607L421.083 283.994C418.197 288.084 415.482 292.304 412.949 296.643L419.858 300.676ZM415.25 279.5C415.25 285.765 414.314 291.805 412.578 297.491L420.229 299.828C422.194 293.393 423.25 286.566 423.25 279.5H415.25ZM412.578 261.509C414.314 267.195 415.25 273.235 415.25 279.5H423.25C423.25 272.434 422.194 265.607 420.229 259.172L412.578 261.509ZM427.62 270.393C424.865 266.49 422.275 262.464 419.858 258.324L412.949 262.357C415.482 266.696 418.197 270.916 421.083 275.006L427.62 270.393ZM432.497 302.533C430.537 297.729 429.171 292.618 428.492 287.291L420.557 288.302C421.324 294.329 422.87 300.116 425.09 305.556L432.497 302.533ZM436.677 310.877C435.08 308.22 433.68 305.432 432.497 302.533L425.09 305.556C426.43 308.838 428.014 311.993 429.82 314.998L436.677 310.877ZM453 384.5C453 358.341 447.225 333.52 436.876 311.252L429.621 314.623C439.489 335.857 445 359.529 445 384.5H453ZM392.84 372.937C409.245 382.818 428.465 388.5 449 388.5V380.5C429.96 380.5 412.161 375.235 396.967 366.084L392.84 372.937ZM406.316 311.487C398.049 329.283 392.71 348.715 390.919 369.161L398.888 369.86C400.597 350.356 405.689 331.826 413.571 314.857L406.316 311.487ZM410.706 302.745C409.519 305.652 408.115 308.448 406.514 311.113L413.373 315.232C415.181 312.22 416.769 309.059 418.112 305.771L410.706 302.745ZM421.241 285.512C417.483 290.912 414.024 296.537 410.887 302.362L417.931 306.155C420.922 300.599 424.222 295.233 427.808 290.081L421.241 285.512ZM386.285 430.139C382.522 409.152 372.754 390.253 358.831 375.284L352.973 380.732C365.882 394.611 374.926 412.119 378.411 431.551L386.285 430.139ZM313.075 373.776C329.747 399.486 353.039 420.503 380.542 434.415L384.153 427.276C357.919 414.006 335.694 393.953 319.787 369.424L313.075 373.776ZM319.787 373.777C322.565 369.494 325.16 365.082 327.561 360.55L320.491 356.805C318.201 361.128 315.726 365.337 313.075 369.423L319.787 373.777ZM357.338 374.274C345.996 369.914 335.633 363.575 326.671 355.677L321.381 361.679C331.045 370.195 342.225 377.035 354.467 381.741L357.338 374.274ZM378.615 432.731C379.526 438.182 380 443.784 380 449.5H388C388 443.341 387.489 437.298 386.506 431.412L378.615 432.731ZM380 449.5C380 460.53 378.233 471.14 374.971 481.066L382.571 483.564C386.095 472.842 388 461.389 388 449.5H380ZM305.349 383.575C321.103 422.654 345.462 457.333 376.074 485.269L381.467 479.36C351.726 452.219 328.067 418.533 312.769 380.584L305.349 383.575ZM312.242 384.503C314.661 381.324 316.974 378.059 319.175 374.713L312.492 370.317C310.392 373.509 308.185 376.624 305.876 379.657L312.242 384.503ZM384.35 428.494C357.806 415.213 335.301 395.044 319.184 370.33L312.483 374.7C329.371 400.595 352.949 421.729 380.77 435.649L384.35 428.494ZM345.602 117.962C357.923 115.045 370.778 113.5 384 113.5V105.5C370.153 105.5 356.679 107.118 343.758 110.178L345.602 117.962ZM380 109.5C380 115.216 379.526 120.818 378.615 126.269L386.506 127.588C387.489 121.702 388 115.659 388 109.5H380ZM319.371 188.383C335.476 163.8 357.909 143.735 384.35 130.506L380.77 123.351C353.057 137.217 329.554 158.241 312.68 183.999L319.371 188.383ZM319.372 183.999C317.16 180.622 314.834 177.327 312.4 174.119L306.027 178.955C308.35 182.016 310.569 185.16 312.679 188.382L319.372 183.999ZM341.49 111.657C326.881 130.973 314.73 152.254 305.506 175.036L312.921 178.038C321.879 155.916 333.679 135.246 347.87 116.483L341.49 111.657ZM378.411 127.449C374.926 146.881 365.882 164.389 352.973 178.268L358.831 183.716C372.754 168.747 382.522 149.848 386.285 128.861L378.411 127.449ZM326.874 203.144C335.789 195.33 346.082 189.053 357.338 184.726L354.467 177.259C342.317 181.93 331.214 188.702 321.601 197.128L326.874 203.144ZM327.777 198.273C325.372 193.704 322.77 189.255 319.982 184.937L313.261 189.277C315.921 193.396 318.404 197.641 320.698 201.999L327.777 198.273ZM380.542 124.585C353.146 138.443 329.928 159.351 313.27 184.924L319.973 189.29C335.867 164.891 358.021 144.942 384.153 131.724L380.542 124.585ZM312.213 177.124C321.024 155.499 332.543 135.263 346.351 116.839L339.949 112.041C325.736 131.006 313.876 151.838 304.804 174.105L312.213 177.124ZM311.679 173.175C302.831 161.679 292.579 151.321 281.179 142.356L276.234 148.644C287.113 157.199 296.896 167.084 305.339 178.054L311.679 173.175ZM276.234 142.356C256.154 158.147 239.633 178.264 228.078 201.306L235.229 204.892C246.252 182.912 262.016 163.714 281.179 148.644L276.234 142.356ZM228.077 201.306C228.058 201.344 228.038 201.385 228.018 201.425L235.172 205.005C235.191 204.968 235.209 204.931 235.229 204.892L228.077 201.306ZM170 109.5C170 151.998 194.322 188.808 229.787 206.783L233.403 199.647C200.522 182.982 178 148.867 178 109.5H170ZM279 0.5C218.801 0.5 170 49.301 170 109.5H178C178 53.7192 223.219 8.5 279 8.5V0.5ZM218 69.5C218 35.8106 245.311 8.5 279 8.5V0.5C240.892 0.5 210 31.3924 210 69.5H218ZM247.623 121.823C229.866 111.15 218 91.7087 218 69.5H210C210 94.6315 223.438 116.62 243.502 128.68L247.623 121.823ZM255.967 126.003C253.068 124.82 250.28 123.42 247.623 121.823L243.502 128.68C246.507 130.486 249.662 132.07 252.944 133.41L255.967 126.003ZM279 130.5C270.842 130.5 263.068 128.901 255.967 126.003L252.944 133.41C260.989 136.693 269.788 138.5 279 138.5V130.5ZM302.033 126.003C294.932 128.901 287.158 130.5 279 130.5V138.5C288.212 138.5 297.011 136.693 305.056 133.41L302.033 126.003ZM310.377 121.823C307.72 123.42 304.932 124.82 302.033 126.003L305.056 133.41C308.338 132.07 311.493 130.486 314.498 128.68L310.377 121.823ZM342.192 110.556C331.269 113.251 320.752 116.976 310.752 121.624L314.123 128.879C323.662 124.446 333.691 120.893 344.108 118.324L342.192 110.556ZM279 558.5C326.91 558.5 367.59 527.593 382.21 484.64L374.637 482.063C361.087 521.872 323.382 550.5 279 550.5V558.5ZM340 489.5C340 523.189 312.689 550.5 279 550.5V558.5C317.108 558.5 348 527.608 348 489.5H340ZM310.377 437.177C328.134 447.85 340 467.291 340 489.5H348C348 464.369 334.562 442.38 314.498 430.32L310.377 437.177ZM302.033 432.997C304.932 434.18 307.72 435.58 310.377 437.177L314.498 430.32C311.493 428.514 308.338 426.93 305.056 425.59L302.033 432.997ZM279 428.5C287.158 428.5 294.932 430.099 302.033 432.997L305.056 425.59C297.011 422.307 288.212 420.5 279 420.5V428.5ZM255.967 432.997C263.068 430.099 270.842 428.5 279 428.5V420.5C269.788 420.5 260.989 422.307 252.944 425.59L255.967 432.997ZM247.623 437.177C250.28 435.58 253.068 434.18 255.967 432.997L252.944 425.59C249.662 426.93 246.507 428.514 243.502 430.32L247.623 437.177ZM174 453.5C200.159 453.5 224.98 447.725 247.248 437.376L243.877 430.121C222.643 439.989 198.97 445.5 174 445.5V453.5ZM230.031 352.094C194.433 370.024 170 406.905 170 449.5H178C178 410.042 200.626 375.862 233.63 359.239L230.031 352.094ZM228.259 357.468C239.806 380.359 256.258 400.349 276.234 416.057L281.179 409.769C262.115 394.777 246.417 375.702 235.402 353.865L228.259 357.468ZM281.179 416.057C292.511 407.147 302.708 396.859 311.519 385.446L305.186 380.557C296.778 391.448 287.047 401.266 276.234 409.769L281.179 416.057ZM381.115 480.393C351.255 453.23 327.476 419.503 312.059 381.498L304.646 384.505C320.52 423.637 344.999 458.354 375.732 486.311L381.115 480.393ZM199.375 324.645C199.355 324.683 199.336 324.721 199.317 324.759L206.467 328.348C206.488 328.307 206.508 328.267 206.528 328.227L199.375 324.645ZM199.318 324.759C182.715 357.823 148.502 380.5 109 380.5V388.5C151.643 388.5 188.56 364.011 206.467 328.348L199.318 324.759ZM109 380.5C53.2192 380.5 8 335.281 8 279.5H0C0 339.699 48.801 388.5 109 388.5V380.5ZM0 279.5C0 317.608 30.8924 348.5 69 348.5V340.5C35.3106 340.5 8 313.189 8 279.5H0ZM69 348.5C94.1315 348.5 116.12 335.062 128.18 314.998L121.323 310.877C110.65 328.634 91.2087 340.5 69 340.5V348.5ZM128.18 314.998C129.986 311.993 131.57 308.838 132.91 305.556L125.503 302.533C124.32 305.432 122.92 308.22 121.323 310.877L128.18 314.998ZM132.91 305.556C136.193 297.511 138 288.712 138 279.5H130C130 287.658 128.401 295.432 125.503 302.533L132.91 305.556ZM138 279.5C138 270.288 136.193 261.489 132.91 253.444L125.503 256.467C128.401 263.568 130 271.342 130 279.5H138ZM132.91 253.444C131.57 250.162 129.986 247.007 128.18 244.002L121.323 248.123C122.92 250.78 124.32 253.568 125.503 256.467L132.91 253.444ZM128.379 244.377C118.511 223.143 113 199.47 113 174.5H105C105 200.659 110.775 225.48 121.124 247.748L128.379 244.377ZM109 178.5C148.368 178.5 182.482 201.022 199.147 233.903L206.283 230.287C188.308 194.822 151.498 170.5 109 170.5V178.5ZM200.925 228.518C200.885 228.538 200.844 228.558 200.806 228.577L204.392 235.729C204.431 235.709 204.468 235.691 204.505 235.672L200.925 228.518ZM200.806 228.578C177.764 240.133 157.647 256.654 141.856 276.734L148.144 281.679C163.214 262.516 182.412 246.752 204.392 235.729L200.806 228.578ZM141.856 281.679C157.647 301.76 177.764 318.28 200.806 329.836L204.392 322.685C182.412 311.661 163.214 295.898 148.144 276.734L141.856 281.679ZM200.806 329.836C200.926 329.896 201.046 329.956 201.167 330.016L204.736 322.856C204.621 322.799 204.507 322.742 204.392 322.685L200.806 329.836ZM321.854 360.761C330.923 368.791 341.349 375.328 352.747 379.984L355.772 372.578C345.22 368.267 335.562 362.213 327.157 354.772L321.854 360.761ZM328.051 359.618C328.465 358.824 328.873 358.028 329.275 357.228L322.127 353.636C321.743 354.399 321.354 355.159 320.959 355.916L328.051 359.618ZM327.848 352.033C327.727 351.972 327.605 351.911 327.483 351.85L323.92 359.013C324.033 359.069 324.146 359.126 324.259 359.182L327.848 352.033ZM357.126 373.491C348.676 364.808 338.79 357.527 327.848 352.033L324.259 359.182C334.395 364.272 343.558 371.019 351.392 379.07L357.126 373.491ZM362.866 346.305C370.875 356.617 380.695 365.453 391.851 372.334L396.051 365.526C385.713 359.148 376.609 350.958 369.184 341.398L362.866 346.305ZM403.421 315.771C394.388 328.119 380.87 336.966 365.28 339.922L366.77 347.782C384.411 344.437 399.682 334.432 409.878 320.495L403.421 315.771ZM397.935 369.291C399.515 351.839 403.787 335.167 410.333 319.691L402.965 316.575C396.102 332.801 391.623 350.28 389.968 368.569L397.935 369.291ZM362.156 213.619C358.144 218.899 354.603 224.557 351.594 230.531L358.739 234.13C361.526 228.596 364.807 223.353 368.526 218.458L362.156 213.619ZM415.557 276.734C399.849 256.758 379.859 240.306 356.968 228.759L353.365 235.902C375.202 246.917 394.277 262.615 409.269 281.679L415.557 276.734ZM356.727 329.775C379.72 318.222 399.794 301.725 415.557 281.679L409.269 276.734C394.225 295.864 375.068 311.606 353.136 322.627L356.727 329.775ZM351.35 327.983C351.411 328.105 351.472 328.227 351.533 328.348L358.682 324.759C358.626 324.646 358.569 324.533 358.513 324.42L351.35 327.983ZM351.533 328.348C354.555 334.367 358.117 340.065 362.156 345.381L368.526 340.542C364.782 335.614 361.482 330.333 358.682 324.759L351.533 328.348ZM366.055 346.897C385.768 343.32 402.529 331.317 412.487 314.765L405.631 310.641C396.827 325.275 382.015 335.871 364.627 339.026L366.055 346.897ZM412.686 314.389C414.051 311.454 415.498 308.566 417.026 305.726L409.981 301.936C408.38 304.912 406.862 307.94 405.432 311.016L412.686 314.389ZM417.207 305.341C420.46 297.362 422.25 288.636 422.25 279.5H414.25C414.25 287.583 412.667 295.285 409.799 302.321L417.207 305.341ZM422.25 279.5C422.25 270.364 420.46 261.638 417.207 253.659L409.799 256.679C412.667 263.715 414.25 271.417 414.25 279.5H422.25ZM417.026 253.274C415.498 250.434 414.051 247.546 412.686 244.611L405.432 247.984C406.862 251.06 408.38 254.088 409.981 257.064L417.026 253.274ZM412.487 244.235C402.529 227.683 385.768 215.68 366.055 212.103L364.627 219.974C382.015 223.129 396.828 233.725 405.632 248.359L412.487 244.235ZM541.314 125.731C538.338 124.13 535.31 122.612 532.234 121.182L528.861 128.436C531.796 129.801 534.684 131.248 537.524 132.776L541.314 125.731ZM563.75 130C555.667 130 547.965 128.417 540.929 125.549L537.909 132.957C545.888 136.21 554.614 138 563.75 138V130ZM586.571 125.549C579.535 128.417 571.833 130 563.75 130V138C572.886 138 581.612 136.21 589.591 132.957L586.571 125.549ZM595.266 121.182C592.19 122.612 589.162 124.13 586.186 125.731L589.977 132.776C592.816 131.248 595.704 129.801 598.639 128.436L595.266 121.182ZM624.25 69.5C624.25 91.5172 612.492 110.792 594.891 121.382L599.015 128.237C618.921 116.261 632.25 94.4387 632.25 69.5H624.25ZM563.75 9C597.163 9 624.25 36.0868 624.25 69.5H632.25C632.25 31.6685 601.582 1 563.75 1V9ZM503.25 69.5C503.25 36.0868 530.337 9 563.75 9V1C525.918 1 495.25 31.6685 495.25 69.5H503.25ZM532.609 121.382C515.008 110.792 503.25 91.5172 503.25 69.5H495.25C495.25 94.4387 508.579 116.261 528.485 128.237L532.609 121.382ZM542.574 135.608C549.107 139.422 555.357 143.668 561.285 148.308L566.215 142.008C560.004 137.146 553.454 132.696 546.607 128.699L542.574 135.608ZM563.75 131C557.485 131 551.445 130.064 545.759 128.328L543.422 135.979C549.857 137.944 556.684 139 563.75 139V131ZM581.741 128.328C576.055 130.064 570.015 131 563.75 131V139C570.816 139 577.643 137.944 584.078 135.979L581.741 128.328ZM566.215 148.308C572.143 143.668 578.393 139.422 584.926 135.608L580.893 128.699C574.046 132.696 567.496 137.146 561.285 142.008L566.215 148.308ZM586.612 126.637C577.975 131.288 569.777 136.649 562.098 142.641L567.02 148.948C574.347 143.231 582.167 138.117 590.405 133.681L586.612 126.637ZM595.363 122.264C592.698 123.865 589.902 125.269 586.995 126.456L590.021 133.862C593.309 132.519 596.47 130.931 599.482 129.123L595.363 122.264ZM668.75 106C642.675 106 617.934 111.754 595.737 122.066L599.107 129.321C620.271 119.49 643.863 114 668.75 114V106ZM725.335 115.438C707.595 109.32 688.557 106 668.75 106V114C687.657 114 705.815 117.169 722.727 123.001L725.335 115.438ZM737.25 174.5C737.25 154.693 733.93 135.655 727.812 117.915L720.249 120.523C726.081 137.435 729.25 155.593 729.25 174.5H737.25ZM721.184 247.513C731.496 225.315 737.25 200.575 737.25 174.5H729.25C729.25 199.387 723.76 222.979 713.929 244.142L721.184 247.513ZM716.794 256.255C717.981 253.348 719.385 250.552 720.986 247.887L714.127 243.768C712.319 246.78 710.731 249.941 709.388 253.229L716.794 256.255ZM700.609 281.152C706.601 273.473 711.962 265.275 716.613 256.638L709.569 252.845C705.133 261.083 700.019 268.903 694.302 276.23L700.609 281.152ZM638.289 235.575C660.149 246.538 679.263 262.175 694.32 281.175L700.59 276.207C684.816 256.3 664.788 239.915 641.875 228.424L638.289 235.575ZM618.502 227.211C625.309 229.58 631.915 232.379 638.289 235.575L641.875 228.424C635.194 225.074 628.269 222.139 621.132 219.655L618.502 227.211ZM607.675 204.961C610.871 211.334 613.67 217.941 616.039 224.748L623.595 222.118C621.111 214.981 618.176 208.056 614.826 201.375L607.675 204.961ZM562.075 148.93C581.075 163.987 596.712 183.101 607.675 204.961L614.826 201.375C603.335 178.462 586.95 158.434 567.043 142.66L562.075 148.93ZM603.941 126.083C623.715 117.72 645.444 113.066 668.26 113.001L668.237 105.001C644.339 105.07 621.56 109.945 600.825 118.715L603.941 126.083ZM625.25 69.5C625.25 89.898 615.323 107.977 600.021 119.171L604.745 125.628C622.017 112.992 633.25 92.5576 633.25 69.5H625.25ZM580.987 10.4471C606.566 17.8999 625.25 41.5232 625.25 69.5H633.25C633.25 37.8715 612.126 11.1872 583.225 2.76648L580.987 10.4471ZM672.249 108.982C672 55.788 633.477 11.6469 582.803 2.66815L581.408 10.5454C628.339 18.8612 664.018 59.7565 664.249 109.019L672.249 108.982ZM586.244 10.5002C631.327 20.6985 665.026 60.9093 665.249 109.019L673.249 108.982C673.008 57.0688 636.647 13.6998 588.009 2.69736L586.244 10.5002ZM727.383 116.686C706.13 56.5331 652.652 11.5998 587.673 2.63631L586.58 10.5613C648.54 19.1083 699.566 61.9674 719.84 119.351L727.383 116.686ZM669.237 113.001C687.811 113.054 705.663 116.147 722.326 121.806L724.898 114.231C707.425 108.297 688.713 105.056 669.26 105.001L669.237 113.001ZM721.444 120.924C727.103 137.587 730.196 155.439 730.249 174.013L738.249 173.99C738.194 154.537 734.953 135.825 729.019 118.352L721.444 120.924ZM840.614 255.577C831.65 190.598 786.717 137.12 726.564 115.867L723.899 123.41C781.283 143.684 824.142 194.711 832.689 256.67L840.614 255.577ZM734.231 178.001C782.341 178.224 822.551 211.923 832.75 257.006L840.553 255.241C829.55 206.603 786.181 170.242 734.268 170.001L734.231 178.001ZM840.582 260.447C831.603 209.773 787.462 171.25 734.268 171.001L734.231 179.001C783.494 179.232 824.389 214.911 832.705 261.842L840.582 260.447ZM773.75 218C801.727 218 825.35 236.684 832.803 262.263L840.484 260.026C832.063 231.124 805.379 210 773.75 210V218ZM724.079 243.229C735.273 227.927 753.352 218 773.75 218V210C750.692 210 730.258 221.233 717.622 238.505L724.079 243.229ZM730.249 174.99C730.184 197.806 725.53 219.535 717.167 239.309L724.535 242.425C733.305 221.69 738.18 198.911 738.249 175.013L730.249 174.99ZM717.519 257.064C719.12 254.088 720.638 251.06 722.068 247.984L714.814 244.611C713.449 247.546 712.002 250.434 710.474 253.274L717.519 257.064ZM713.25 279.5C713.25 271.417 714.833 263.715 717.701 256.679L710.293 253.659C707.04 261.638 705.25 270.364 705.25 279.5H713.25ZM717.701 302.321C714.833 295.285 713.25 287.583 713.25 279.5H705.25C705.25 288.636 707.04 297.362 710.293 305.341L717.701 302.321ZM722.068 311.016C720.638 307.94 719.12 304.912 717.519 301.936L710.474 305.726C712.002 308.566 713.449 311.454 714.814 314.389L722.068 311.016ZM773.75 340C751.733 340 732.457 328.242 721.868 310.641L715.013 314.765C726.989 334.671 748.811 348 773.75 348V340ZM834.25 279.5C834.25 312.913 807.163 340 773.75 340V348C811.582 348 842.25 317.332 842.25 279.5H834.25ZM773.75 219C807.163 219 834.25 246.087 834.25 279.5H842.25C842.25 241.669 811.582 211 773.75 211V219ZM721.868 248.359C732.457 230.758 751.733 219 773.75 219V211C748.811 211 726.989 224.329 715.013 244.235L721.868 248.359ZM707.642 258.324C703.828 264.857 699.582 271.107 694.942 277.035L701.242 281.965C706.104 275.754 710.554 269.204 714.551 262.357L707.642 258.324ZM712.25 279.5C712.25 273.235 713.186 267.195 714.922 261.509L707.271 259.172C705.306 265.607 704.25 272.434 704.25 279.5H712.25ZM714.922 297.491C713.186 291.805 712.25 285.765 712.25 279.5H704.25C704.25 286.566 705.306 293.393 707.271 299.828L714.922 297.491ZM694.942 281.965C699.582 287.893 703.828 294.143 707.642 300.676L714.551 296.643C710.554 289.796 706.104 283.246 701.242 277.035L694.942 281.965ZM716.613 302.362C711.962 293.725 706.601 285.527 700.609 277.848L694.302 282.77C700.019 290.097 705.133 297.917 709.569 306.155L716.613 302.362ZM720.999 311.134C719.393 308.463 717.985 305.66 716.794 302.746L709.388 305.771C710.735 309.068 712.327 312.237 714.142 315.256L720.999 311.134ZM773.75 341C751.359 341 731.758 329.036 720.999 311.134L714.142 315.256C726.288 335.463 748.436 349 773.75 349V341ZM832.803 296.737C825.35 322.316 801.727 341 773.75 341V349C805.379 349 832.063 327.876 840.484 298.974L832.803 296.737ZM733.75 388C787.175 388 831.574 349.391 840.582 298.553L832.705 297.158C824.362 344.242 783.228 380 733.75 380V388ZM733.25 388H733.75V380H733.25V388ZM737.25 384.5V384H729.25V384.5H737.25ZM727.812 441.085C733.93 423.345 737.25 404.307 737.25 384.5H729.25C729.25 403.407 726.081 421.565 720.249 438.477L727.812 441.085ZM668.75 453C688.557 453 707.595 449.68 725.335 443.562L722.727 435.999C705.815 441.831 687.657 445 668.75 445V453ZM595.737 436.934C617.934 447.246 642.675 453 668.75 453V445C643.863 445 620.271 439.51 599.107 429.679L595.737 436.934ZM586.995 432.544C589.902 433.731 592.698 435.135 595.363 436.736L599.482 429.877C596.47 428.069 593.309 426.481 590.021 425.138L586.995 432.544ZM562.098 416.359C569.777 422.351 577.975 427.712 586.612 432.363L590.405 425.319C582.167 420.883 574.347 415.769 567.02 410.052L562.098 416.359ZM607.675 354.039C596.712 375.899 581.075 395.013 562.075 410.07L567.043 416.34C586.95 400.566 603.335 380.538 614.826 357.625L607.675 354.039ZM616.039 334.252C613.67 341.059 610.871 347.665 607.675 354.039L614.826 357.625C618.176 350.944 621.111 344.019 623.595 336.882L616.039 334.252ZM638.289 323.425C631.916 326.621 625.309 329.42 618.502 331.789L621.132 339.345C628.269 336.861 635.194 333.926 641.875 330.576L638.289 323.425ZM694.32 277.825C679.263 296.825 660.149 312.462 638.289 323.425L641.875 330.576C664.788 319.085 684.816 302.7 700.59 282.793L694.32 277.825ZM832.75 301.994C822.551 347.077 782.341 380.776 734.231 380.999L734.268 388.999C786.181 388.758 829.55 352.397 840.553 303.759L832.75 301.994ZM726.564 443.133C786.717 421.88 831.65 368.402 840.614 303.423L832.689 302.33C824.142 364.289 781.283 415.316 723.899 435.59L726.564 443.133ZM730.249 384.987C730.196 403.561 727.103 421.413 721.444 438.076L729.019 440.648C734.953 423.175 738.194 404.463 738.249 385.01L730.249 384.987ZM722.326 437.194C705.663 442.853 687.811 445.946 669.237 445.999L669.26 453.999C688.713 453.944 707.425 450.703 724.898 444.769L722.326 437.194ZM587.673 556.364C652.652 547.4 706.13 502.467 727.383 442.314L719.84 439.649C699.566 497.033 648.54 539.892 586.58 548.439L587.673 556.364ZM665.249 449.981C665.026 498.091 631.327 538.301 586.244 548.5L588.009 556.303C636.647 545.3 673.008 501.931 673.249 450.018L665.249 449.981ZM582.803 556.332C633.477 547.353 672 503.212 672.249 450.018L664.249 449.981C664.018 499.244 628.339 540.139 581.408 548.455L582.803 556.332ZM625.25 489.5C625.25 517.477 606.566 541.1 580.987 548.553L583.225 556.234C612.126 547.813 633.25 521.129 633.25 489.5H625.25ZM600.021 439.829C615.323 451.023 625.25 469.102 625.25 489.5H633.25C633.25 466.442 622.017 446.008 604.745 433.372L600.021 439.829ZM668.26 445.999C645.444 445.934 623.715 441.28 603.941 432.917L600.825 440.285C621.56 449.055 644.339 453.93 668.237 453.999L668.26 445.999ZM586.186 433.269C589.162 434.87 592.19 436.388 595.266 437.818L598.639 430.564C595.704 429.199 592.816 427.752 589.976 426.224L586.186 433.269ZM563.75 429C571.833 429 579.535 430.583 586.571 433.451L589.591 426.043C581.612 422.79 572.886 421 563.75 421V429ZM540.929 433.451C547.965 430.583 555.667 429 563.75 429V421C554.614 421 545.888 422.79 537.909 426.043L540.929 433.451ZM532.234 437.818C535.31 436.388 538.338 434.87 541.314 433.269L537.524 426.224C534.684 427.752 531.796 429.199 528.861 430.564L532.234 437.818ZM503.25 489.5C503.25 467.483 515.008 448.207 532.609 437.618L528.485 430.763C508.579 442.739 495.25 464.561 495.25 489.5H503.25ZM563.75 550C530.337 550 503.25 522.913 503.25 489.5H495.25C495.25 527.332 525.918 558 563.75 558V550ZM624.25 489.5C624.25 522.913 597.163 550 563.75 550V558C601.582 558 632.25 527.332 632.25 489.5H624.25ZM594.891 437.618C612.492 448.207 624.25 467.483 624.25 489.5H632.25C632.25 464.561 618.921 442.739 599.015 430.763L594.891 437.618ZM584.926 423.392C578.393 419.578 572.143 415.332 566.215 410.692L561.285 416.992C567.496 421.854 574.046 426.304 580.893 430.301L584.926 423.392ZM563.75 428C570.015 428 576.055 428.936 581.741 430.672L584.078 423.021C577.643 421.056 570.816 420 563.75 420V428ZM545.759 430.672C551.445 428.936 557.485 428 563.75 428V420C556.684 420 549.857 421.056 543.422 423.021L545.759 430.672ZM561.285 410.692C555.357 415.332 549.107 419.578 542.574 423.392L546.607 430.301C553.454 426.304 560.004 421.854 566.215 416.992L561.285 410.692ZM523.559 432.917C503.785 441.28 482.056 445.934 459.24 445.999L459.263 453.999C483.161 453.93 505.94 449.055 526.675 440.285L523.559 432.917ZM502.25 489.5C502.25 469.102 512.177 451.023 527.479 439.829L522.755 433.372C505.483 446.008 494.25 466.442 494.25 489.5H502.25ZM546.513 548.553C520.934 541.1 502.25 517.477 502.25 489.5H494.25C494.25 521.129 515.374 547.813 544.275 556.234L546.513 548.553ZM455.251 450.018C455.5 503.212 494.023 547.353 544.697 556.332L546.092 548.455C499.161 540.139 463.482 499.244 463.251 449.981L455.251 450.018ZM541.256 548.5C496.173 538.301 462.474 498.091 462.251 449.981L454.251 450.018C454.492 501.931 490.853 545.3 539.491 556.303L541.256 548.5ZM400.117 442.314C421.37 502.467 474.848 547.4 539.827 556.364L540.92 548.439C478.961 539.892 427.934 497.033 407.66 439.649L400.117 442.314ZM458.263 445.999C439.689 445.946 421.837 442.853 405.174 437.194L402.602 444.769C420.075 450.703 438.787 453.944 458.24 453.999L458.263 445.999ZM594.297 556.335C656.982 545.265 708.106 500.748 728.595 441.882L721.039 439.252C701.489 495.421 652.695 537.898 592.906 548.457L594.297 556.335ZM832.669 308.921C819.055 434.808 719.058 534.805 593.171 548.419L594.031 556.372C723.656 542.354 826.604 439.406 840.622 309.781L832.669 308.921ZM726.132 444.345C784.998 423.856 829.515 372.732 840.585 310.047L832.707 308.656C822.148 368.445 779.671 417.239 723.502 436.789L726.132 444.345ZM840.585 248.953C829.515 186.268 784.998 135.144 726.132 114.655L723.502 122.211C779.671 141.761 822.148 190.555 832.707 250.344L840.585 248.953ZM593.171 10.5812C719.058 24.1952 819.055 124.192 832.669 250.079L840.622 249.219C826.604 119.594 723.656 16.6458 594.031 2.62757L593.171 10.5812ZM728.595 117.118C708.106 58.2524 656.982 13.7348 594.297 2.66533L592.906 10.5434C652.695 21.1016 701.489 63.579 721.039 119.748L728.595 117.118ZM539.827 2.63631C474.848 11.5998 421.37 56.5331 400.117 116.686L407.66 119.351C427.934 61.9674 478.961 19.1083 540.92 10.5613L539.827 2.63631ZM462.251 109.019C462.474 60.9093 496.173 20.6985 541.256 10.5002L539.491 2.69736C490.853 13.6998 454.492 57.0688 454.251 108.982L462.251 109.019ZM405.174 121.806C421.837 116.147 439.689 113.054 458.263 113.001L458.24 105.001C438.787 105.056 420.075 108.297 402.602 114.231L405.174 121.806ZM459.24 113.001C482.056 113.066 503.785 117.72 523.559 126.083L526.675 118.715C505.94 109.945 483.161 105.07 459.263 105.001L459.24 113.001ZM544.697 2.66814C494.023 11.6469 455.5 55.788 455.251 108.982L463.251 109.019C463.482 59.7565 499.161 18.8612 546.092 10.5454L544.697 2.66814ZM502.25 69.5C502.25 41.5232 520.934 17.8999 546.513 10.4471L544.276 2.76647C515.374 11.1872 494.25 37.8715 494.25 69.5H502.25ZM527.479 119.171C512.177 107.977 502.25 89.898 502.25 69.5H494.25C494.25 92.5576 505.483 112.992 522.755 125.628L527.479 119.171Z" fill="#777467"/>
</svg>
