<svg width="550" height="550" viewBox="0 0 550 550" fill="none" xmlns="http://www.w3.org/2000/svg">
<path d="M445 170C502.99 170 550 217.01 550 275C550 200.611 502.22 137.381 435.674 114.326C418.231 108.283 399.499 105 380 105C380 146.073 356.417 181.638 322.053 198.892C307.9 205.999 291.917 210 275 210C294.499 210 313.231 213.283 330.674 219.326C336.717 236.769 340 255.501 340 275C340 258.083 344.001 242.1 351.108 227.947C368.362 193.583 403.927 170 445 170Z" fill="#A6A6A6"/>
<path d="M380 445C380 502.99 332.99 550 275 550C349.389 550 412.619 502.22 435.674 435.674C441.717 418.231 445 399.499 445 380C403.927 380 368.362 356.417 351.108 322.053C344.001 307.9 340 291.917 340 275C340 294.499 336.717 313.231 330.674 330.674C313.231 336.717 294.499 340 275 340C291.917 340 307.9 344.001 322.053 351.108C356.417 368.362 380 403.927 380 445Z" fill="#A6A6A6"/>
<path d="M105 380C47.0101 380 0 332.99 0 275C0 349.389 47.7804 412.619 114.326 435.674C131.769 441.717 150.501 445 170 445C170 403.927 193.583 368.362 227.947 351.108C242.1 344.001 258.083 340 275 340C255.501 340 236.769 336.717 219.326 330.674C213.283 313.231 210 294.499 210 275C210 291.917 205.999 307.9 198.892 322.053C181.638 356.417 146.073 380 105 380Z" fill="#A6A6A6"/>
<path d="M170 105C170 47.0101 217.01 0 275 0C200.611 0 137.381 47.7804 114.326 114.326C108.283 131.769 105 150.501 105 170C146.073 170 181.638 193.583 198.892 227.947C205.999 242.1 210 258.083 210 275C210 255.501 213.283 236.769 219.326 219.326C236.769 213.283 255.501 210 275 210C258.083 210 242.1 205.999 227.947 198.892C193.583 181.638 170 146.073 170 105Z" fill="#A6A6A6"/>
<path d="M550 275C550 239.101 520.899 210 485 210C461.33 210 440.615 222.652 429.249 241.562C427.848 244.576 426.362 247.541 424.794 250.455C421.703 258.029 420 266.315 420 275C420 283.685 421.703 291.971 424.794 299.545C426.362 302.459 427.848 305.424 429.249 308.438C439.357 330.189 445 354.435 445 380C445 399.499 441.717 418.231 435.674 435.674C412.619 502.22 349.389 550 275 550C426.878 550 550 426.878 550 275Z" fill="#F1E7D6"/>
<path d="M275 550C310.899 550 340 520.899 340 485C340 461.33 327.348 440.615 308.438 429.249C305.424 427.848 302.459 426.362 299.545 424.794C291.971 421.703 283.685 420 275 420C266.315 420 258.029 421.703 250.455 424.794C247.541 426.362 244.576 427.848 241.562 429.249C219.811 439.357 195.565 445 170 445C150.501 445 131.769 441.717 114.326 435.674C47.7804 412.619 0 349.389 0 275C0 426.878 123.122 550 275 550Z" fill="#96E2F0"/>
<path d="M0 275C0 310.899 29.1015 340 65 340C88.6701 340 109.385 327.348 120.751 308.438C122.152 305.424 123.638 302.459 125.206 299.545C128.297 291.971 130 283.685 130 275C130 266.315 128.297 258.029 125.206 250.455C123.638 247.541 122.152 244.576 120.751 241.562C110.643 219.811 105 195.565 105 170C105 150.501 108.283 131.769 114.326 114.326C137.381 47.7804 200.611 0 275 0C123.122 0 0 123.122 0 275Z" fill="#CEF1F8"/>
<path d="M275 0C239.101 0 210 29.1015 210 65C210 88.6701 222.652 109.385 241.562 120.751C244.576 122.152 247.541 123.638 250.455 125.206C258.029 128.297 266.315 130 275 130C283.685 130 291.971 128.297 299.545 125.206C302.459 123.638 305.424 122.152 308.438 120.751C330.189 110.643 354.435 105 380 105C399.499 105 418.231 108.283 435.674 114.326C502.22 137.381 550 200.611 550 275C550 123.122 426.878 0 275 0Z" fill="#A6A6A6"/>
</svg>
